# R3 authored topology; reference 12-special-regions.png lower-right
v -1.7812 -3.422 0.77646 0.2152942213190881 0.20155203697957183 0.23819786188494854
v 0.79074 -2.24683 1.73853 0.2152942213190881 0.20155203697957183 0.23819786188494854
v -1.05528 -3.60343 0.24895 0.2152942213190881 0.20155203697957183 0.23819786188494854
v -1.7812 -3.422 0.77646 0.21324278602755628 0.1996315443662229 0.23592818879644528
v -1.98458 -2.6003 1.69346 0.21324278602755628 0.1996315443662229 0.23592818879644528
v 0.79074 -2.24683 1.73853 0.21324278602755628 0.1996315443662229 0.23592818879644528
v -1.7812 -3.422 0.77646 0.21891360391429598 0.20494039515380902 0.2422022851817743
v -1.05528 -3.60343 0.24895 0.21891360391429598 0.20494039515380902 0.2422022851817743
v -2.11893 -3.1293 -0.13966 0.21891360391429598 0.20494039515380902 0.2422022851817743
v -1.7812 -3.422 0.77646 0.23018321909035688 0.2154906731909724 0.25467079558933103
v -2.11893 -3.1293 -0.13966 0.23018321909035688 0.2154906731909724 0.25467079558933103
v -1.98458 -2.6003 1.69346 0.23018321909035688 0.2154906731909724 0.25467079558933103
v 0.79074 -2.24683 1.73853 0.22720466906875894 0.212702243383519 0.2513753785441588
v 3.44562 0.90074 0.90491 0.22720466906875894 0.212702243383519 0.2513753785441588
v 3.88866 0.7163 -0.07524 0.22720466906875894 0.212702243383519 0.2513753785441588
v 0.79074 -2.24683 1.73853 0.22580830789204762 0.21139501164361904 0.24983046830609526
v 2.29299 0.2091 1.71646 0.22580830789204762 0.21139501164361904 0.24983046830609526
v 3.44562 0.90074 0.90491 0.22580830789204762 0.21139501164361904 0.24983046830609526
v 0.79074 -2.24683 1.73853 0.21990590715037756 0.20586935988545985 0.2433001525919071
v 1.80449 -2.64995 -0.78848 0.21990590715037756 0.20586935988545985 0.2433001525919071
v -1.05528 -3.60343 0.24895 0.21990590715037756 0.20586935988545985 0.2433001525919071
v 0.79074 -2.24683 1.73853 0.21287225627225226 0.19928466544636383 0.23551824098206633
v -1.98458 -2.6003 1.69346 0.21287225627225226 0.19928466544636383 0.23551824098206633
v -0.68028 -0.60235 3.12995 0.21287225627225226 0.19928466544636383 0.23551824098206633
v 0.79074 -2.24683 1.73853 0.22726941126155772 0.2127628530959264 0.2514470082042767
v 3.88866 0.7163 -0.07524 0.22726941126155772 0.2127628530959264 0.2514470082042767
v 1.80449 -2.64995 -0.78848 0.22726941126155772 0.2127628530959264 0.2514470082042767
v 0.79074 -2.24683 1.73853 0.22151741206955408 0.20737800278851873 0.24508309420461305
v -0.68028 -0.60235 3.12995 0.22151741206955408 0.20737800278851873 0.24508309420461305
v 2.29299 0.2091 1.71646 0.22151741206955408 0.20737800278851873 0.24508309420461305
v 3.44562 0.90074 0.90491 0.22746265303384897 0.21294376028700754 0.251660807611918
v 3.19914 1.97614 -1.21133 0.22746265303384897 0.21294376028700754 0.251660807611918
v 3.88866 0.7163 -0.07524 0.22746265303384897 0.21294376028700754 0.251660807611918
v 3.44562 0.90074 0.90491 0.22659524572238837 0.21213171939968273 0.2507011229268978
v 1.3514 3.17025 0.94222 0.22659524572238837 0.21213171939968273 0.2507011229268978
v 3.19914 1.97614 -1.21133 0.22659524572238837 0.21213171939968273 0.2507011229268978
v 3.44562 0.90074 0.90491 0.22566692680761005 0.21126265488372006 0.24967404668076007
v 1.20412 2.55304 2.07076 0.22566692680761005 0.21126265488372006 0.24967404668076007
v 1.3514 3.17025 0.94222 0.22566692680761005 0.21126265488372006 0.24967404668076007
v 3.44562 0.90074 0.90491 0.22258918573514613 0.208381365369073 0.24626888634526808
v 2.29299 0.2091 1.71646 0.22258918573514613 0.208381365369073 0.24626888634526808
v 1.20412 2.55304 2.07076 0.22258918573514613 0.208381365369073 0.24626888634526808
v 3.19914 1.97614 -1.21133 0.21445120043243643 0.20076282593674902 0.23726515792524883
v 0.94424 3.86328 -0.45703 0.21445120043243643 0.20076282593674902 0.23726515792524883
v -0.98252 0.76152 -2.62076 0.21445120043243643 0.20076282593674902 0.23726515792524883
v 3.19914 1.97614 -1.21133 0.21616981517477937 0.2023717418657509 0.23916660402316017
v -0.98252 0.76152 -2.62076 0.21616981517477937 0.2023717418657509 0.23916660402316017
v 0.54182 0.26592 -2.42391 0.21616981517477937 0.2023717418657509 0.23916660402316017
v 3.19914 1.97614 -1.21133 0.2260520411299456 0.21162318744080014 0.2501001306118547
v 2.09359 -1.43164 -1.12399 0.2260520411299456 0.21162318744080014 0.2501001306118547
v 3.88866 0.7163 -0.07524 0.2260520411299456 0.21162318744080014 0.2501001306118547
v 3.19914 1.97614 -1.21133 0.2221617220284832 0.20798118657985662 0.2457959477761942
v 0.54182 0.26592 -2.42391 0.2221617220284832 0.20798118657985662 0.2457959477761942
v 2.09359 -1.43164 -1.12399 0.2221617220284832 0.20798118657985662 0.2457959477761942
v 3.19914 1.97614 -1.21133 0.22556564006973728 0.21116783325677532 0.24956198475800723
v 1.3514 3.17025 0.94222 0.22556564006973728 0.21116783325677532 0.24956198475800723
v 0.94424 3.86328 -0.45703 0.22556564006973728 0.21116783325677532 0.24956198475800723
v -0.98252 0.76152 -2.62076 0.22467063435919252 0.2103299555703079 0.24857176567400027
v -2.76946 2.3803 -0.67428 0.22467063435919252 0.2103299555703079 0.24857176567400027
v -2.68868 -2.05598 -2.01945 0.22467063435919252 0.2103299555703079 0.24857176567400027
v -0.98252 0.76152 -2.62076 0.2125245533171589 0.1989591562969147 0.23513354835089922
v -2.68868 -2.05598 -2.01945 0.2125245533171589 0.1989591562969147 0.23513354835089922
v 0.54182 0.26592 -2.42391 0.2125245533171589 0.1989591562969147 0.23513354835089922
v -0.98252 0.76152 -2.62076 0.21603980365628153 0.20225002895481675 0.23902276149205617
v 0.94424 3.86328 -0.45703 0.21603980365628153 0.20225002895481675 0.23902276149205617
v -2.76946 2.3803 -0.67428 0.21603980365628153 0.20225002895481675 0.23902276149205617
v -1.05528 -3.60343 0.24895 0.21266153411961325 0.19908739364389327 0.2352851015791466
v 1.80449 -2.64995 -0.78848 0.21266153411961325 0.19908739364389327 0.2352851015791466
v -2.68868 -2.05598 -2.01945 0.21266153411961325 0.19908739364389327 0.2352851015791466
v -1.05528 -3.60343 0.24895 0.21642536417786928 0.2026109792303457 0.23944933909040858
v -2.68868 -2.05598 -2.01945 0.21642536417786928 0.2026109792303457 0.23944933909040858
v -2.11893 -3.1293 -0.13966 0.21642536417786928 0.2026109792303457 0.23944933909040858
v -1.98458 -2.6003 1.69346 0.23080497604781064 0.2160727435341206 0.25535869690396074
v -2.59528 -1.3805 0.40943 0.23080497604781064 0.2160727435341206 0.25535869690396074
v -1.67573 1.20341 2.64658 0.23080497604781064 0.2160727435341206 0.25535869690396074
v -1.98458 -2.6003 1.69346 0.22477140638155596 0.21042429533592474 0.2486832581242747
v -1.67573 1.20341 2.64658 0.22477140638155596 0.21042429533592474 0.2486832581242747
v -0.68028 -0.60235 3.12995 0.22477140638155596 0.21042429533592474 0.2486832581242747
v -1.98458 -2.6003 1.69346 0.23136623302967183 0.21659817560224598 0.25597966207538164
v -2.11893 -3.1293 -0.13966 0.23136623302967183 0.21659817560224598 0.25597966207538164
v -2.59528 -1.3805 0.40943 0.23136623302967183 0.21659817560224598 0.25597966207538164
v -2.73429 0.88923 -0.23883 0.2326444969804086 0.21779484823697826 0.2573939115527925
v -2.68868 -2.05598 -2.01945 0.2326444969804086 0.21779484823697826 0.2573939115527925
v -2.76946 2.3803 -0.67428 0.2326444969804086 0.21779484823697826 0.2573939115527925
v -2.73429 0.88923 -0.23883 0.23259931519889793 0.2177525503989683 0.2573439231987807
v -2.59528 -1.3805 0.40943 0.23259931519889793 0.2177525503989683 0.2573439231987807
v -2.68868 -2.05598 -2.01945 0.23259931519889793 0.2177525503989683 0.2573439231987807
v -2.73429 0.88923 -0.23883 0.23135450009626068 0.21658719157947812 0.25596668095756503
v -2.76946 2.3803 -0.67428 0.23135450009626068 0.21658719157947812 0.25596668095756503
v -1.67573 1.20341 2.64658 0.23135450009626068 0.21658719157947812 0.25596668095756503
v -2.73429 0.88923 -0.23883 0.23136969259282214 0.21660141434221647 0.25598348967716494
v -1.67573 1.20341 2.64658 0.23136969259282214 0.21660141434221647 0.25598348967716494
v -2.59528 -1.3805 0.40943 0.23136969259282214 0.21660141434221647 0.25598348967716494
v 2.09359 -1.43164 -1.12399 0.22718002274397964 0.2126791702284065 0.2513481102699349
v 1.80449 -2.64995 -0.78848 0.22718002274397964 0.2126791702284065 0.2513481102699349
v 3.88866 0.7163 -0.07524 0.22718002274397964 0.2126791702284065 0.2513481102699349
v 2.09359 -1.43164 -1.12399 0.21933097639866814 0.20533112684130636 0.24266405899427115
v 0.54182 0.26592 -2.42391 0.21933097639866814 0.20533112684130636 0.24266405899427115
v 1.80449 -2.64995 -0.78848 0.21933097639866814 0.20533112684130636 0.24266405899427115
v 0.33071 0.21786 2.69779 0.2175279081193605 0.20364314802663538 0.2406691749405691
v -0.68028 -0.60235 3.12995 0.2175279081193605 0.20364314802663538 0.2406691749405691
v 1.20412 2.55304 2.07076 0.2175279081193605 0.20364314802663538 0.2406691749405691
v 0.33071 0.21786 2.69779 0.22094056493506292 0.2068379756838887 0.24444488035368667
v 1.20412 2.55304 2.07076 0.22094056493506292 0.2068379756838887 0.24444488035368667
v 2.29299 0.2091 1.71646 0.22094056493506292 0.2068379756838887 0.24444488035368667
v 0.33071 0.21786 2.69779 0.22092414953099757 0.20682260807157218 0.24442671863003987
v 2.29299 0.2091 1.71646 0.22092414953099757 0.20682260807157218 0.24442671863003987
v -0.68028 -0.60235 3.12995 0.22092414953099757 0.20682260807157218 0.24442671863003987
v 1.80449 -2.64995 -0.78848 0.21548575053611274 0.2017313409274247 0.23840976655059284
v 0.54182 0.26592 -2.42391 0.21548575053611274 0.2017313409274247 0.23840976655059284
v -2.68868 -2.05598 -2.01945 0.21548575053611274 0.2017313409274247 0.23840976655059284
v -2.68868 -2.05598 -2.01945 0.23154941102662926 0.21676966138663165 0.256182327093292
v -2.59528 -1.3805 0.40943 0.23154941102662926 0.21676966138663165 0.256182327093292
v -2.11893 -3.1293 -0.13966 0.23154941102662926 0.21676966138663165 0.256182327093292
v 0.94424 3.86328 -0.45703 0.2158291873047876 0.2020528562002267 0.23878973914572246
v 1.20412 2.55304 2.07076 0.2158291873047876 0.2020528562002267 0.23878973914572246
v -0.62676 2.47587 1.41037 0.2158291873047876 0.2020528562002267 0.23878973914572246
v 0.94424 3.86328 -0.45703 0.21924366262378048 0.20524938628609238 0.24256745651992737
v -0.62676 2.47587 1.41037 0.21924366262378048 0.20524938628609238 0.24256745651992737
v -2.76946 2.3803 -0.67428 0.21924366262378048 0.20524938628609238 0.24256745651992737
v 0.94424 3.86328 -0.45703 0.2137746241882344 0.20012943541026199 0.2365166054848551
v 1.3514 3.17025 0.94222 0.2137746241882344 0.20012943541026199 0.2365166054848551
v 1.20412 2.55304 2.07076 0.2137746241882344 0.20012943541026199 0.2365166054848551
v -0.62676 2.47587 1.41037 0.21666690761656487 0.2028371050027416 0.23971657863960372
v 1.20412 2.55304 2.07076 0.21666690761656487 0.2028371050027416 0.23971657863960372
v -1.67573 1.20341 2.64658 0.21666690761656487 0.2028371050027416 0.23971657863960372
v -0.62676 2.47587 1.41037 0.22101179159405906 0.20690465596039573 0.24452368431683133
v -1.67573 1.20341 2.64658 0.22101179159405906 0.20690465596039573 0.24452368431683133
v -2.76946 2.3803 -0.67428 0.22101179159405906 0.20690465596039573 0.24452368431683133
v 1.20412 2.55304 2.07076 0.21269733278001735 0.1991209072834205 0.23532470860767876
v -0.68028 -0.60235 3.12995 0.21269733278001735 0.1991209072834205 0.23532470860767876
v -1.67573 1.20341 2.64658 0.21269733278001735 0.1991209072834205 0.23532470860767876
f 1 2 3
f 4 5 6
f 7 8 9
f 10 11 12
f 13 14 15
f 16 17 18
f 19 20 21
f 22 23 24
f 25 26 27
f 28 29 30
f 31 32 33
f 34 35 36
f 37 38 39
f 40 41 42
f 43 44 45
f 46 47 48
f 49 50 51
f 52 53 54
f 55 56 57
f 58 59 60
f 61 62 63
f 64 65 66
f 67 68 69
f 70 71 72
f 73 74 75
f 76 77 78
f 79 80 81
f 82 83 84
f 85 86 87
f 88 89 90
f 91 92 93
f 94 95 96
f 97 98 99
f 100 101 102
f 103 104 105
f 106 107 108
f 109 110 111
f 112 113 114
f 115 116 117
f 118 119 120
f 121 122 123
f 124 125 126
f 127 128 129
f 130 131 132
