# R3 authored topology; reference 12-special-regions.png lower-right
v -1.7812 -3.422 0.77646 0.2152111806245515 0.20147429675489928 0.2381059870739719
v -0.47988 -2.74657 1.21852 0.2152111806245515 0.20147429675489928 0.2381059870739719
v -1.43661 -3.55821 0.51935 0.2152111806245515 0.20147429675489928 0.2381059870739719
v -1.43661 -3.55821 0.51935 0.21714019336058601 0.20328018101842096 0.24024021393086115
v -0.12884 -2.84919 0.96794 0.21714019336058601 0.20328018101842096 0.24024021393086115
v -1.05528 -3.60343 0.24895 0.21714019336058601 0.20328018101842096 0.24024021393086115
v -0.47988 -2.74657 1.21852 0.21407049106312592 0.2004064171654796 0.23684394755920316
v 0.79074 -2.24683 1.73853 0.21407049106312592 0.2004064171654796 0.23684394755920316
v -0.12884 -2.84919 0.96794 0.21407049106312592 0.2004064171654796 0.23684394755920316
v -1.43661 -3.55821 0.51935 0.21590483326122376 0.20212367369135842 0.2388734325443327
v -0.47988 -2.74657 1.21852 0.21590483326122376 0.20212367369135842 0.2388734325443327
v -0.12884 -2.84919 0.96794 0.21590483326122376 0.20212367369135842 0.2388734325443327
v -1.7812 -3.422 0.77646 0.2158424839811443 0.20206530415256066 0.23880445036211714
v -1.93296 -3.09124 1.26781 0.2158424839811443 0.20206530415256066 0.23880445036211714
v -0.47988 -2.74657 1.21852 0.2158424839811443 0.20206530415256066 0.23880445036211714
v -0.47988 -2.74657 1.21852 0.21373303124554482 0.20009049733625472 0.23647058776102833
v -0.59929 -2.4332 1.72282 0.21373303124554482 0.20009049733625472 0.23647058776102833
v 0.79074 -2.24683 1.73853 0.21373303124554482 0.20009049733625472 0.23647058776102833
v -1.93296 -3.09124 1.26781 0.21281904739627255 0.19923485288161685 0.23545937158736538
v -1.98458 -2.6003 1.69346 0.21281904739627255 0.19923485288161685 0.23545937158736538
v -0.59929 -2.4332 1.72282 0.21281904739627255 0.19923485288161685 0.23545937158736538
v -0.47988 -2.74657 1.21852 0.2159456175345477 0.2021618547131936 0.23891855557013789
v -1.93296 -3.09124 1.26781 0.2159456175345477 0.2021618547131936 0.23891855557013789
v -0.59929 -2.4332 1.72282 0.2159456175345477 0.2021618547131936 0.23891855557013789
v -1.7812 -3.422 0.77646 0.22119656047492006 0.20707763108290392 0.24472810946161372
v -1.43661 -3.55821 0.51935 0.22119656047492006 0.20707763108290392 0.24472810946161372
v -1.94054 -3.25965 0.31685 0.22119656047492006 0.20707763108290392 0.24472810946161372
v -1.94054 -3.25965 0.31685 0.21699148897879256 0.20314096840567814 0.24007568993398326
v -1.56321 -3.31568 0.05382 0.21699148897879256 0.20314096840567814 0.24007568993398326
v -2.11893 -3.1293 -0.13966 0.21699148897879256 0.20314096840567814 0.24007568993398326
v -1.43661 -3.55821 0.51935 0.21898822145455651 0.2050102498723508 0.24228484075823278
v -1.05528 -3.60343 0.24895 0.21898822145455651 0.2050102498723508 0.24228484075823278
v -1.56321 -3.31568 0.05382 0.21898822145455651 0.2050102498723508 0.24228484075823278
v -1.94054 -3.25965 0.31685 0.2193344443675109 0.20533437345043573 0.24266789589596952
v -1.43661 -3.55821 0.51935 0.2193344443675109 0.20533437345043573 0.24266789589596952
v -1.56321 -3.31568 0.05382 0.2193344443675109 0.20533437345043573 0.24266789589596952
v -1.7812 -3.422 0.77646 0.2292325770662296 0.2146007104449809 0.25361902143497744
v -1.94054 -3.25965 0.31685 0.2292325770662296 0.2146007104449809 0.25361902143497744
v -1.93296 -3.09124 1.26781 0.2292325770662296 0.2146007104449809 0.25361902143497744
v -1.93296 -3.09124 1.26781 0.23243460318594578 0.21759835191875776 0.25716168863125916
v -1.99506 -2.78564 0.75544 0.23243460318594578 0.21759835191875776 0.25716168863125916
v -1.98458 -2.6003 1.69346 0.23243460318594578 0.21759835191875776 0.25716168863125916
v -1.94054 -3.25965 0.31685 0.23063043333577002 0.2159093418462528 0.2551655858182988
v -2.11893 -3.1293 -0.13966 0.23063043333577002 0.2159093418462528 0.2551655858182988
v -1.99506 -2.78564 0.75544 0.23063043333577002 0.2159093418462528 0.2551655858182988
v -1.93296 -3.09124 1.26781 0.23241524530586208 0.2175802296480411 0.2571402714022304
v -1.94054 -3.25965 0.31685 0.23241524530586208 0.2175802296480411 0.2571402714022304
v -1.99506 -2.78564 0.75544 0.23241524530586208 0.2175802296480411 0.2571402714022304
v 0.79074 -2.24683 1.73853 0.22733930191206944 0.2128282826410863 0.2515243340303747
v 2.16532 -0.68803 1.35113 0.22733930191206944 0.2128282826410863 0.2515243340303747
v 2.32996 -0.76208 0.82818 0.22733930191206944 0.2128282826410863 0.2515243340303747
v 2.32996 -0.76208 0.82818 0.22682792016114095 0.21234954227851496 0.2509585499655177
v 3.5818 0.7897 0.40518 0.22682792016114095 0.21234954227851496 0.2509585499655177
v 3.88866 0.7163 -0.07524 0.22682792016114095 0.21234954227851496 0.2509585499655177
v 2.16532 -0.68803 1.35113 0.22795579403389288 0.21340542420194228 0.25220641042047726
v 3.44562 0.90074 0.90491 0.22795579403389288 0.21340542420194228 0.25220641042047726
v 3.5818 0.7897 0.40518 0.22795579403389288 0.21340542420194228 0.25220641042047726
v 2.32996 -0.76208 0.82818 0.22795309103967595 0.2134028937392711 0.25220341987368405
v 2.16532 -0.68803 1.35113 0.22795309103967595 0.2134028937392711 0.25220341987368405
v 3.5818 0.7897 0.40518 0.22795309103967595 0.2134028937392711 0.25220341987368405
v 0.79074 -2.24683 1.73853 0.2266093734913488 0.21214494539615633 0.25071675365000295
v 1.60261 -1.059 1.79555 0.2266093734913488 0.21214494539615633 0.25071675365000295
v 2.16532 -0.68803 1.35113 0.2266093734913488 0.21214494539615633 0.25071675365000295
v 2.16532 -0.68803 1.35113 0.22682610225298522 0.21234784040705 0.25095653866287726
v 2.92615 0.56591 1.33665 0.22682610225298522 0.21234784040705 0.25095653866287726
v 3.44562 0.90074 0.90491 0.22682610225298522 0.21234784040705 0.25095653866287726
v 1.60261 -1.059 1.79555 0.22431068833365486 0.20999298482299605 0.24817352751808625
v 2.29299 0.2091 1.71646 0.22431068833365486 0.20999298482299605 0.24817352751808625
v 2.92615 0.56591 1.33665 0.22431068833365486 0.20999298482299605 0.24817352751808625
v 2.16532 -0.68803 1.35113 0.2266617622241901 0.21219399016732693 0.2507747156522955
v 1.60261 -1.059 1.79555 0.2266617622241901 0.21219399016732693 0.2507747156522955
v 2.92615 0.56591 1.33665 0.2266617622241901 0.21219399016732693 0.2507747156522955
v 0.79074 -2.24683 1.73853 0.21855798913699473 0.20460747919208017 0.24180883904518566
v 1.31176 -2.47508 0.4802 0.21855798913699473 0.20460747919208017 0.24180883904518566
v -0.12884 -2.84919 0.96794 0.21855798913699473 0.20460747919208017 0.24180883904518566
v -0.12884 -2.84919 0.96794 0.22101433624055894 0.20690703818265094 0.24452649967040566
v 0.36276 -3.0278 -0.26123 0.22101433624055894 0.20690703818265094 0.24452649967040566
v -1.05528 -3.60343 0.24895 0.22101433624055894 0.20690703818265094 0.24452649967040566
v 1.31176 -2.47508 0.4802 0.21850093768763126 0.20455406932459097 0.24174571829269842
v 1.80449 -2.64995 -0.78848 0.21850093768763126 0.20455406932459097 0.24174571829269842
v 0.36276 -3.0278 -0.26123 0.21850093768763126 0.20455406932459097 0.24174571829269842
v -0.12884 -2.84919 0.96794 0.21836721567716175 0.20442888276159826 0.2415977705364343
v 1.31176 -2.47508 0.4802 0.21836721567716175 0.20442888276159826 0.2415977705364343
v 0.36276 -3.0278 -0.26123 0.21836721567716175 0.20442888276159826 0.2415977705364343
v 0.79074 -2.24683 1.73853 0.21295630025146473 0.19936334491626487 0.2356112258101312
v -0.59929 -2.4332 1.72282 0.21295630025146473 0.19936334491626487 0.2356112258101312
v 0.05455 -1.40697 2.40413 0.21295630025146473 0.19936334491626487 0.2356112258101312
v 0.05455 -1.40697 2.40413 0.21408999255604708 0.20042467388225685 0.23686552367903083
v -1.35563 -1.62921 2.45371 0.21408999255604708 0.20042467388225685 0.23686552367903083
v -0.68028 -0.60235 3.12995 0.21408999255604708 0.20042467388225685 0.23686552367903083
v -0.59929 -2.4332 1.72282 0.21278790865908037 0.19920570172339438 0.23542492021855702
v -1.98458 -2.6003 1.69346 0.21278790865908037 0.19920570172339438 0.23542492021855702
v -1.35563 -1.62921 2.45371 0.21278790865908037 0.19920570172339438 0.23542492021855702
v 0.05455 -1.40697 2.40413 0.21409327426927488 0.20042774612442754 0.2368691545106871
v -0.59929 -2.4332 1.72282 0.21409327426927488 0.20042774612442754 0.2368691545106871
v -1.35563 -1.62921 2.45371 0.21409327426927488 0.20042774612442754 0.2368691545106871
v 0.79074 -2.24683 1.73853 0.22730885053169794 0.2127997749658449 0.2514906431414531
v 2.32996 -0.76208 0.82818 0.22730885053169794 0.2127997749658449 0.2514906431414531
v 1.31176 -2.47508 0.4802 0.22730885053169794 0.2127997749658449 0.2514906431414531
v 1.31176 -2.47508 0.4802 0.22777304239031673 0.21323433755689228 0.2520042171126909
v 2.78116 -0.94461 -0.42194 0.22777304239031673 0.21323433755689228 0.2520042171126909
v 1.80449 -2.64995 -0.78848 0.22777304239031673 0.21323433755689228 0.2520042171126909
v 2.32996 -0.76208 0.82818 0.2272233448248257 0.2127197270700496 0.2513960410827859
v 3.88866 0.7163 -0.07524 0.2272233448248257 0.2127197270700496 0.2513960410827859
v 2.78116 -0.94461 -0.42194 0.2272233448248257 0.2127197270700496 0.2513960410827859
v 1.31176 -2.47508 0.4802 0.22778655867333142 0.21324699109843792 0.25201917129815393
v 2.32996 -0.76208 0.82818 0.22778655867333142 0.21324699109843792 0.25201917129815393
v 2.78116 -0.94461 -0.42194 0.22778655867333142 0.21324699109843792 0.25201917129815393
v 0.79074 -2.24683 1.73853 0.22013048221895085 0.20607960037518802 0.24354861862522223
v 0.05455 -1.40697 2.40413 0.22013048221895085 0.20607960037518802 0.24354861862522223
v 1.60261 -1.059 1.79555 0.22013048221895085 0.20607960037518802 0.24354861862522223
v 1.60261 -1.059 1.79555 0.22032395885598738 0.20626072743964777 0.24376267788322012
v 0.78086 -0.1904 2.34658 0.22032395885598738 0.20626072743964777 0.24376267788322012
v 2.29299 0.2091 1.71646 0.22032395885598738 0.20626072743964777 0.24376267788322012
v 0.05455 -1.40697 2.40413 0.2223455485767892 0.20815327951869628 0.24599933034027743
v -0.68028 -0.60235 3.12995 0.2223455485767892 0.20815327951869628 0.24599933034027743
v 0.78086 -0.1904 2.34658 0.2223455485767892 0.20815327951869628 0.24599933034027743
v 1.60261 -1.059 1.79555 0.21988395855210338 0.20584881226154358 0.24327586903636972
v 0.05455 -1.40697 2.40413 0.21988395855210338 0.20584881226154358 0.24327586903636972
v 0.78086 -0.1904 2.34658 0.21988395855210338 0.20584881226154358 0.24327586903636972
v 3.44562 0.90074 0.90491 0.22967011372210497 0.21501031922920466 0.2541031045436055
v 3.29413 1.42621 -0.15191 0.22967011372210497 0.21501031922920466 0.2541031045436055
v 3.5818 0.7897 0.40518 0.22967011372210497 0.21501031922920466 0.2541031045436055
v 3.5818 0.7897 0.40518 0.22553191656079374 0.21113626231223245 0.24952467364172928
v 3.52636 1.33956 -0.6401 0.22553191656079374 0.21113626231223245 0.24952467364172928
v 3.88866 0.7163 -0.07524 0.22553191656079374 0.21113626231223245 0.24952467364172928
v 3.29413 1.42621 -0.15191 0.2274032265970964 0.21288812702706897 0.2515950592138088
v 3.19914 1.97614 -1.21133 0.2274032265970964 0.21288812702706897 0.2515950592138088
v 3.52636 1.33956 -0.6401 0.2274032265970964 0.21288812702706897 0.2515950592138088
v 3.5818 0.7897 0.40518 0.22780796364404618 0.21326702979442624 0.2520428533934128
v 3.29413 1.42621 -0.15191 0.22780796364404618 0.21326702979442624 0.2520428533934128
v 3.52636 1.33956 -0.6401 0.22780796364404618 0.21326702979442624 0.2520428533934128
v 3.44562 0.90074 0.90491 0.22681054672618892 0.2123332777862194 0.25093932829280474
v 2.40755 2.04316 0.92705 0.22681054672618892 0.2123332777862194 0.25093932829280474
v 3.29413 1.42621 -0.15191 0.22681054672618892 0.2123332777862194 0.25093932829280474
v 3.29413 1.42621 -0.15191 0.22579899979200363 0.21138629767762043 0.24982016998264234
v 2.21016 2.49956 -0.1307 0.22579899979200363 0.21138629767762043 0.24982016998264234
v 3.19914 1.97614 -1.21133 0.22579899979200363 0.21138629767762043 0.24982016998264234
v 2.40755 2.04316 0.92705 0.22676572577967172 0.21229131775118204 0.2508897391604879
v 1.3514 3.17025 0.94222 0.22676572577967172 0.21229131775118204 0.2508897391604879
v 2.21016 2.49956 -0.1307 0.22676572577967172 0.21229131775118204 0.2508897391604879
v 3.29413 1.42621 -0.15191 0.2261964962900942 0.2117584220588116 0.2502599533422319
v 2.40755 2.04316 0.92705 0.2261964962900942 0.2117584220588116 0.2502599533422319
v 2.21016 2.49956 -0.1307 0.2261964962900942 0.2117584220588116 0.2502599533422319
v 3.44562 0.90074 0.90491 0.2251027165668522 0.21073445806258506 0.24904981407396418
v 2.28976 1.70081 1.46536 0.2251027165668522 0.21073445806258506 0.24904981407396418
v 2.40755 2.04316 0.92705 0.2251027165668522 0.21073445806258506 0.24904981407396418
v 2.40755 2.04316 0.92705 0.22451826341386147 0.21018731042999797 0.24840318505363398
v 1.24366 2.78528 1.46628 0.22451826341386147 0.21018731042999797 0.24840318505363398
v 1.3514 3.17025 0.94222 0.22451826341386147 0.21018731042999797 0.24840318505363398
v 2.28976 1.70081 1.46536 0.22602662725215134 0.2115993957254183 0.2500720131300398
v 1.20412 2.55304 2.07076 0.22602662725215134 0.2115993957254183 0.2500720131300398
v 1.24366 2.78528 1.46628 0.22602662725215134 0.2115993957254183 0.2500720131300398
v 2.40755 2.04316 0.92705 0.22456382009097342 0.2102299592341028 0.24845358818575786
v 2.28976 1.70081 1.46536 0.22456382009097342 0.2102299592341028 0.24845358818575786
v 1.24366 2.78528 1.46628 0.22456382009097342 0.2102299592341028 0.24845358818575786
v 3.44562 0.90074 0.90491 0.22293819678405688 0.20870809911698943 0.24665502622916935
v 2.92615 0.56591 1.33665 0.22293819678405688 0.20870809911698943 0.24665502622916935
v 2.28976 1.70081 1.46536 0.22293819678405688 0.20870809911698943 0.24665502622916935
v 2.28976 1.70081 1.46536 0.22218428700647852 0.20800231124010757 0.2458209132837635
v 1.68974 1.33462 1.82992 0.22218428700647852 0.20800231124010757 0.2458209132837635
v 1.20412 2.55304 2.07076 0.22218428700647852 0.20800231124010757 0.2458209132837635
v 2.92615 0.56591 1.33665 0.22091679983744725 0.20681572750739743 0.24441858705419697
v 2.29299 0.2091 1.71646 0.22091679983744725 0.20681572750739743 0.24441858705419697
v 1.68974 1.33462 1.82992 0.22091679983744725 0.20681572750739743 0.24441858705419697
v 2.28976 1.70081 1.46536 0.220915300947386 0.20681432429116992 0.24441692870774626
v 2.92615 0.56591 1.33665 0.220915300947386 0.20681432429116992 0.24441692870774626
v 1.68974 1.33462 1.82992 0.220915300947386 0.20681432429116992 0.24441692870774626
v 3.19914 1.97614 -1.21133 0.21536951243439814 0.20162252227901103 0.2382811626933767
v 2.1232 2.99231 -0.85492 0.21536951243439814 0.20162252227901103 0.2382811626933767
v 1.14444 1.41345 -1.9785 0.21536951243439814 0.20162252227901103 0.2382811626933767
v 1.14444 1.41345 -1.9785 0.21345278482967456 0.1998281389894826 0.23616052789666125
v -0.01915 2.31434 -1.54019 0.21345278482967456 0.1998281389894826 0.23616052789666125
v -0.98252 0.76152 -2.62076 0.21345278482967456 0.1998281389894826 0.23616052789666125
v 2.1232 2.99231 -0.85492 0.21369128396451795 0.2000514147752934 0.2364243992798922
v 0.94424 3.86328 -0.45703 0.21369128396451795 0.2000514147752934 0.2364243992798922
v -0.01915 2.31434 -1.54019 0.21369128396451795 0.2000514147752934 0.2364243992798922
v 1.14444 1.41345 -1.9785 0.21358892139725874 0.19995558598892307 0.2363111470778182
v 2.1232 2.99231 -0.85492 0.21358892139725874 0.19995558598892307 0.2363111470778182
v -0.01915 2.31434 -1.54019 0.21358892139725874 0.19995558598892307 0.2363111470778182
v 3.19914 1.97614 -1.21133 0.21684552259661355 0.20300431902661695 0.2399141952132746
v 1.14444 1.41345 -1.9785 0.21684552259661355 0.20300431902661695 0.2399141952132746
v 1.91348 1.1468 -1.8594 0.21684552259661355 0.20300431902661695 0.2399141952132746
v 1.91348 1.1468 -1.8594 0.2141469416598388 0.20047798793687038 0.23692853119811955
v -0.21224 0.49482 -2.42955 0.2141469416598388 0.20047798793687038 0.23692853119811955
v 0.54182 0.26592 -2.42391 0.2141469416598388 0.20047798793687038 0.23692853119811955
v 1.14444 1.41345 -1.9785 0.21712320786906206 0.20326427970720706 0.2402214214721538
v -0.98252 0.76152 -2.62076 0.21712320786906206 0.20326427970720706 0.2402214214721538
v -0.21224 0.49482 -2.42955 0.21712320786906206 0.20326427970720706 0.2402214214721538
v 1.91348 1.1468 -1.8594 0.21588322962127784 0.20210344900715374 0.23884953064481806
v 1.14444 1.41345 -1.9785 0.21588322962127784 0.20210344900715374 0.23884953064481806
v -0.21224 0.49482 -2.42955 0.21588322962127784 0.20210344900715374 0.23884953064481806
v 3.19914 1.97614 -1.21133 0.22702999857429207 0.21253872206955002 0.2511821260821955
v 2.7336 0.28122 -1.20615 0.22702999857429207 0.21253872206955002 0.2511821260821955
v 3.52636 1.33956 -0.6401 0.22702999857429207 0.21253872206955002 0.2511821260821955
v 3.52636 1.33956 -0.6401 0.22657167633267739 0.21210965443910226 0.25067504615530267
v 3.07799 -0.36806 -0.61702 0.22657167633267739 0.21210965443910226 0.25067504615530267
v 3.88866 0.7163 -0.07524 0.22657167633267739 0.21210965443910226 0.25067504615530267
v 2.7336 0.28122 -1.20615 0.2254867881341475 0.21109401442345724 0.2494747443186313
v 2.09359 -1.43164 -1.12399 0.2254867881341475 0.21109401442345724 0.2494747443186313
v 3.07799 -0.36806 -0.61702 0.2254867881341475 0.21109401442345724 0.2494747443186313
v 3.52636 1.33956 -0.6401 0.22699767980308908 0.21250846619863661 0.25114636914384325
v 2.7336 0.28122 -1.20615 0.22699767980308908 0.21250846619863661 0.25114636914384325
v 3.07799 -0.36806 -0.61702 0.22699767980308908 0.21250846619863661 0.25114636914384325
v 3.19914 1.97614 -1.21133 0.2224628601300117 0.20826310310043653 0.24612912184597044
v 1.91348 1.1468 -1.8594 0.2224628601300117 0.20826310310043653 0.24612912184597044
v 2.7336 0.28122 -1.20615 0.2224628601300117 0.20826310310043653 0.24612912184597044
v 2.7336 0.28122 -1.20615 0.220126333751707 0.2060757167037257 0.24354402883167586
v 1.26012 -0.55739 -1.69643 0.220126333751707 0.2060757167037257 0.24354402883167586
v 2.09359 -1.43164 -1.12399 0.220126333751707 0.2060757167037257 0.24354402883167586
v 1.91348 1.1468 -1.8594 0.22231124542182962 0.20812116592681923 0.24596137791351363
v 0.54182 0.26592 -2.42391 0.22231124542182962 0.20812116592681923 0.24596137791351363
v 1.26012 -0.55739 -1.69643 0.22231124542182962 0.20812116592681923 0.24596137791351363
v 2.7336 0.28122 -1.20615 0.22059315131274593 0.2065127373991664 0.2440605078353785
v 1.91348 1.1468 -1.8594 0.22059315131274593 0.2065127373991664 0.2440605078353785
v 1.26012 -0.55739 -1.69643 0.22059315131274593 0.2065127373991664 0.2440605078353785
v 3.19914 1.97614 -1.21133 0.22636295790800467 0.21191425846706824 0.2504441236428988
v 2.21016 2.49956 -0.1307 0.22636295790800467 0.21191425846706824 0.2504441236428988
v 2.1232 2.99231 -0.85492 0.22636295790800467 0.21191425846706824 0.2504441236428988
v 2.1232 2.99231 -0.85492 0.22452031843360826 0.21018923427827158 0.24840545869250277
v 1.16814 3.57902 0.24689 0.22452031843360826 0.21018923427827158 0.24840545869250277
v 0.94424 3.86328 -0.45703 0.22452031843360826 0.21018923427827158 0.24840545869250277
v 2.21016 2.49956 -0.1307 0.22712201405924 0.21262486422567153 0.2512839304485209
v 1.3514 3.17025 0.94222 0.22712201405924 0.21262486422567153 0.2512839304485209
v 1.16814 3.57902 0.24689 0.22712201405924 0.21262486422567153 0.2512839304485209
v 2.1232 2.99231 -0.85492 0.2270497051187905 0.212557170749506 0.25120392906759803
v 2.21016 2.49956 -0.1307 0.2270497051187905 0.212557170749506 0.25120392906759803
v 1.16814 3.57902 0.24689 0.2270497051187905 0.212557170749506 0.25120392906759803
v -0.98252 0.76152 -2.62076 0.22408097843154848 0.2097779372550667 0.24791938039235153
v -1.88989 1.58255 -1.65972 0.22408097843154848 0.2097779372550667 0.24791938039235153
v -1.87742 -0.66197 -2.37297 0.22408097843154848 0.2097779372550667 0.24791938039235153
v -1.87742 -0.66197 -2.37297 0.22583455212774875 0.21141958071533928 0.2498595044817646
v -2.69604 0.1602 -1.33057 0.22583455212774875 0.21141958071533928 0.2498595044817646
v -2.68868 -2.05598 -2.01945 0.22583455212774875 0.21141958071533928 0.2498595044817646
v -1.88989 1.58255 -1.65972 0.2251879915046741 0.2108142899192694 0.24914416081368201
v -2.76946 2.3803 -0.67428 0.2251879915046741 0.2108142899192694 0.24914416081368201
v -2.69604 0.1602 -1.33057 0.2251879915046741 0.2108142899192694 0.24914416081368201
v -1.87742 -0.66197 -2.37297 0.22578507458130248 0.21137326131015555 0.24980476336654744
v -1.88989 1.58255 -1.65972 0.22578507458130248 0.21137326131015555 0.24980476336654744
v -2.69604 0.1602 -1.33057 0.22578507458130248 0.21137326131015555 0.24980476336654744
v -0.98252 0.76152 -2.62076 0.21461659365806365 0.2009176621479745 0.23744814617487897
v -1.87742 -0.66197 -2.37297 0.21461659365806365 0.2009176621479745 0.23744814617487897
v -0.21224 0.49482 -2.42955 0.21461659365806365 0.2009176621479745 0.23744814617487897
v -0.21224 0.49482 -2.42955 0.21238078049388334 0.19882456046235888 0.23497448054642414
v -1.04847 -0.87422 -2.17003 0.21238078049388334 0.19882456046235888 0.23497448054642414
v 0.54182 0.26592 -2.42391 0.21238078049388334 0.19882456046235888 0.23497448054642414
v -1.87742 -0.66197 -2.37297 0.21459663249416472 0.20089897510092017 0.23742606148290568
v -2.68868 -2.05598 -2.01945 0.21459663249416472 0.20089897510092017 0.23742606148290568
v -1.04847 -0.87422 -2.17003 0.21459663249416472 0.20089897510092017 0.23742606148290568
v -0.21224 0.49482 -2.42955 0.21489999196380424 0.20118297120015718 0.2377616932365494
v -1.87742 -0.66197 -2.37297 0.21489999196380424 0.20118297120015718 0.2377616932365494
v -1.04847 -0.87422 -2.17003 0.21489999196380424 0.20118297120015718 0.2377616932365494
v -0.98252 0.76152 -2.62076 0.2158047229492151 0.20202995339926522 0.2387626721991316
v -0.01915 2.31434 -1.54019 0.2158047229492151 0.20202995339926522 0.2387626721991316
v -1.88989 1.58255 -1.65972 0.2158047229492151 0.20202995339926522 0.2387626721991316
v -1.88989 1.58255 -1.65972 0.21637188787268882 0.20256091630634698 0.2393901738165919
v -0.92236 3.15514 -0.5717 0.21637188787268882 0.20256091630634698 0.2393901738165919
v -2.76946 2.3803 -0.67428 0.21637188787268882 0.20256091630634698 0.2393901738165919
v -0.01915 2.31434 -1.54019 0.21568320066142313 0.2019161878532472 0.23862822200838307
v 0.94424 3.86328 -0.45703 0.21568320066142313 0.2019161878532472 0.23862822200838307
v -0.92236 3.15514 -0.5717 0.21568320066142313 0.2019161878532472 0.23862822200838307
v -1.88989 1.58255 -1.65972 0.21577721752405393 0.20200420363953986 0.23873224066491075
v -0.01915 2.31434 -1.54019 0.21577721752405393 0.20200420363953986 0.23873224066491075
v -0.92236 3.15514 -0.5717 0.21577721752405393 0.20200420363953986 0.23873224066491075
v -1.05528 -3.60343 0.24895 0.21403174825086316 0.2003701472986804 0.23680108317116777
v 0.36276 -3.0278 -0.26123 0.21403174825086316 0.2003701472986804 0.23680108317116777
v -1.92054 -2.9031 -0.90821 0.21403174825086316 0.2003701472986804 0.23680108317116777
v -1.92054 -2.9031 -0.90821 0.21407099085195877 0.20040688505289758 0.2368445005170608
v -0.42646 -2.26974 -1.35431 0.21407099085195877 0.20040688505289758 0.2368445005170608
v -2.68868 -2.05598 -2.01945 0.21407099085195877 0.20040688505289758 0.2368445005170608
v 0.36276 -3.0278 -0.26123 0.21161601444350908 0.19810860926626384 0.23412835640558455
v 1.80449 -2.64995 -0.78848 0.21161601444350908 0.19810860926626384 0.23412835640558455
v -0.42646 -2.26974 -1.35431 0.21161601444350908 0.19810860926626384 0.23412835640558455
v -1.92054 -2.9031 -0.90821 0.21438695352848247 0.20070267989900487 0.2371940762442785
v 0.36276 -3.0278 -0.26123 0.21438695352848247 0.20070267989900487 0.2371940762442785
v -0.42646 -2.26974 -1.35431 0.21438695352848247 0.20070267989900487 0.2371940762442785
v -1.05528 -3.60343 0.24895 0.2202452432683787 0.20618703625124815 0.24367558829692962
v -1.92054 -2.9031 -0.90821 0.2202452432683787 0.20618703625124815 0.24367558829692962
v -1.56321 -3.31568 0.05382 0.2202452432683787 0.20618703625124815 0.24367558829692962
v -1.56321 -3.31568 0.05382 0.21372660287858775 0.20008447929059278 0.23646347552524602
v -2.35661 -2.54173 -1.05836 0.21372660287858775 0.20008447929059278 0.23646347552524602
v -2.11893 -3.1293 -0.13966 0.21372660287858775 0.20008447929059278 0.23646347552524602
v -1.92054 -2.9031 -0.90821 0.22387066742413653 0.2095810503545108 0.24768669587351277
v -2.68868 -2.05598 -2.01945 0.22387066742413653 0.2095810503545108 0.24768669587351277
v -2.35661 -2.54173 -1.05836 0.22387066742413653 0.2095810503545108 0.24768669587351277
v -1.56321 -3.31568 0.05382 0.22444015012950608 0.21011418309996313 0.248316761845411
v -1.92054 -2.9031 -0.90821 0.22444015012950608 0.21011418309996313 0.248316761845411
v -2.35661 -2.54173 -1.05836 0.22444015012950608 0.21011418309996313 0.248316761845411
v -1.98458 -2.6003 1.69346 0.2312094597774567 0.21645140915336372 0.2558062108176117
v -2.27369 -1.97629 1.04399 0.2312094597774567 0.21645140915336372 0.2558062108176117
v -1.89262 -0.72229 2.24409 0.2312094597774567 0.21645140915336372 0.2558062108176117
v -1.89262 -0.72229 2.24409 0.230453156375384 0.2157433804365297 0.25496944960680784
v -2.21372 -0.09179 1.58396 0.230453156375384 0.2157433804365297 0.25496944960680784
v -1.67573 1.20341 2.64658 0.230453156375384 0.2157433804365297 0.25496944960680784
v -2.27369 -1.97629 1.04399 0.23091404687443906 0.2161748523930919 0.2554793710100177
v -2.59528 -1.3805 0.40943 0.23091404687443906 0.2161748523930919 0.2554793710100177
v -2.21372 -0.09179 1.58396 0.23091404687443906 0.2161748523930919 0.2554793710100177
v -1.89262 -0.72229 2.24409 0.23103836840645392 0.21629123850816964 0.2556169182369278
v -2.27369 -1.97629 1.04399 0.23103836840645392 0.21629123850816964 0.2556169182369278
v -2.21372 -0.09179 1.58396 0.23103836840645392 0.21629123850816964 0.2556169182369278
v -1.98458 -2.6003 1.69346 0.22464042275900298 0.21030167237013048 0.24853834007379055
v -1.89262 -0.72229 2.24409 0.22464042275900298 0.21030167237013048 0.24853834007379055
v -1.35563 -1.62921 2.45371 0.22464042275900298 0.21030167237013048 0.24853834007379055
v -1.35563 -1.62921 2.45371 0.22315670875218327 0.20891266351268223 0.24689678415135172
v -1.2102 0.30875 2.9672 0.22315670875218327 0.20891266351268223 0.24689678415135172
v -0.68028 -0.60235 3.12995 0.22315670875218327 0.20891266351268223 0.24689678415135172
v -1.89262 -0.72229 2.24409 0.2255714995970381 0.21117331877169523 0.2495684676392762
v -1.67573 1.20341 2.64658 0.2255714995970381 0.21117331877169523 0.2495684676392762
v -1.2102 0.30875 2.9672 0.2255714995970381 0.21117331877169523 0.2495684676392762
v -1.35563 -1.62921 2.45371 0.22394641239108032 0.2096519605363305 0.24777049881566335
v -1.89262 -0.72229 2.24409 0.22394641239108032 0.2096519605363305 0.24777049881566335
v -1.2102 0.30875 2.9672 0.22394641239108032 0.2096519605363305 0.24777049881566335
v -1.98458 -2.6003 1.69346 0.23124296078728068 0.2164827718008585 0.255843275764651
v -1.99506 -2.78564 0.75544 0.23124296078728068 0.2164827718008585 0.255843275764651
v -2.27369 -1.97629 1.04399 0.23124296078728068 0.2164827718008585 0.255843275764651
v -2.27369 -1.97629 1.04399 0.2309208263643579 0.21618119914961165 0.2554868717222683
v -2.29112 -2.19177 0.13111 0.2309208263643579 0.21618119914961165 0.2554868717222683
v -2.59528 -1.3805 0.40943 0.2309208263643579 0.21618119914961165 0.2554868717222683
v -1.99506 -2.78564 0.75544 0.2314985547961373 0.21672205129851152 0.25612606062551363
v -2.11893 -3.1293 -0.13966 0.2314985547961373 0.21672205129851152 0.25612606062551363
v -2.29112 -2.19177 0.13111 0.2314985547961373 0.21672205129851152 0.25612606062551363
v -2.27369 -1.97629 1.04399 0.23114616874196792 0.21639215797120404 0.25573618669324116
v -1.99506 -2.78564 0.75544 0.23114616874196792 0.21639215797120404 0.25573618669324116
v -2.29112 -2.19177 0.13111 0.23114616874196792 0.21639215797120404 0.25573618669324116
v -2.73429 0.88923 -0.23883 0.2326119053313195 0.21776433690591615 0.2573578527069918
v -2.79975 -0.60236 -1.1659 0.2326119053313195 0.21776433690591615 0.2573578527069918
v -2.68999 1.598 -0.44629 0.2326119053313195 0.21776433690591615 0.2573578527069918
v -2.68999 1.598 -0.44629 0.23246022012862202 0.2176223337374334 0.2571900307806031
v -2.69604 0.1602 -1.33057 0.23246022012862202 0.2176223337374334 0.2571900307806031
v -2.76946 2.3803 -0.67428 0.23246022012862202 0.2176223337374334 0.2571900307806031
v -2.79975 -0.60236 -1.1659 0.23188785718589097 0.2170865045995575 0.25655677816311345
v -2.68868 -2.05598 -2.01945 0.23188785718589097 0.2170865045995575 0.25655677816311345
v -2.69604 0.1602 -1.33057 0.23188785718589097 0.2170865045995575 0.25655677816311345
v -2.68999 1.598 -0.44629 0.2322842802841058 0.21745762409575864 0.25699537393135113
v -2.79975 -0.60236 -1.1659 0.2322842802841058 0.21745762409575864 0.25699537393135113
v -2.69604 0.1602 -1.33057 0.2322842802841058 0.21745762409575864 0.25699537393135113
v -2.73429 0.88923 -0.23883 0.2325426575908095 0.21769950923394935 0.2572812381855765
v -2.68155 -0.24718 0.08584 0.2325426575908095 0.21769950923394935 0.2572812381855765
v -2.79975 -0.60236 -1.1659 0.2325426575908095 0.21769950923394935 0.2572812381855765
v -2.79975 -0.60236 -1.1659 0.23255869849412567 0.21771452624981977 0.2572989855679688
v -2.68822 -1.74831 -0.8191 0.23255869849412567 0.21771452624981977 0.2572989855679688
v -2.68868 -2.05598 -2.01945 0.23255869849412567 0.21771452624981977 0.2572989855679688
v -2.68155 -0.24718 0.08584 0.23253726206184205 0.2176944581004479 0.2572752686641657
v -2.59528 -1.3805 0.40943 0.23253726206184205 0.2176944581004479 0.2572752686641657
v -2.68822 -1.74831 -0.8191 0.23253726206184205 0.2176944581004479 0.2572752686641657
v -2.79975 -0.60236 -1.1659 0.2324762045472094 0.2176372978739833 0.257207715669253
v -2.68155 -0.24718 0.08584 0.2324762045472094 0.2176372978739833 0.257207715669253
v -2.68822 -1.74831 -0.8191 0.2324762045472094 0.2176372978739833 0.257207715669253
v -2.73429 0.88923 -0.23883 0.23161744207331508 0.2168333500260822 0.2562575954853699
v -2.68999 1.598 -0.44629 0.23161744207331508 0.2168333500260822 0.2562575954853699
v -2.27745 1.08069 1.24343 0.23161744207331508 0.2168333500260822 0.2562575954853699
v -2.27745 1.08069 1.24343 0.2307729369937506 0.2160427495260644 0.2553232494398943
v -2.24517 1.81005 0.99616 0.2307729369937506 0.2160427495260644 0.2553232494398943
v -1.67573 1.20341 2.64658 0.2307729369937506 0.2160427495260644 0.2553232494398943
v -2.68999 1.598 -0.44629 0.23170023196511239 0.21691085545670097 0.25634919281246477
v -2.76946 2.3803 -0.67428 0.23170023196511239 0.21691085545670097 0.25634919281246477
v -2.24517 1.81005 0.99616 0.23170023196511239 0.21691085545670097 0.25634919281246477
v -2.27745 1.08069 1.24343 0.23164036180489558 0.21685480679607247 0.2562829534862675
v -2.68999 1.598 -0.44629 0.23164036180489558 0.21685480679607247 0.2562829534862675
v -2.24517 1.81005 0.99616 0.23164036180489558 0.21685480679607247 0.2562829534862675
v -2.73429 0.88923 -0.23883 0.23172621645936142 0.2169351813662107 0.25637794161461264
v -2.27745 1.08069 1.24343 0.23172621645936142 0.2169351813662107 0.25637794161461264
v -2.68155 -0.24718 0.08584 0.23172621645936142 0.2169351813662107 0.25637794161461264
v -2.68155 -0.24718 0.08584 0.2316945803328056 0.21690556456688187 0.2563429399426786
v -2.21372 -0.09179 1.58396 0.2316945803328056 0.21690556456688187 0.2563429399426786
v -2.59528 -1.3805 0.40943 0.2316945803328056 0.21690556456688187 0.2563429399426786
v -2.27745 1.08069 1.24343 0.23094142322973207 0.2162004813214513 0.2555096597435334
v -1.67573 1.20341 2.64658 0.23094142322973207 0.2162004813214513 0.2555096597435334
v -2.21372 -0.09179 1.58396 0.23094142322973207 0.2162004813214513 0.2555096597435334
v -2.68155 -0.24718 0.08584 0.23169797772275563 0.21690874510215422 0.2563466987570914
v -2.27745 1.08069 1.24343 0.23169797772275563 0.21690874510215422 0.2563466987570914
v -2.21372 -0.09179 1.58396 0.23169797772275563 0.21690874510215422 0.2563466987570914
v 2.09359 -1.43164 -1.12399 0.22710524956896683 0.21260916980924557 0.25126538250183567
v 1.89786 -1.9872 -0.93112 0.22710524956896683 0.21260916980924557 0.25126538250183567
v 3.07799 -0.36806 -0.61702 0.22710524956896683 0.21260916980924557 0.25126538250183567
v 3.07799 -0.36806 -0.61702 0.22907734830354523 0.2144553899011913 0.25344727897413516
v 2.78116 -0.94461 -0.42194 0.22907734830354523 0.2144553899011913 0.25344727897413516
v 3.88866 0.7163 -0.07524 0.22907734830354523 0.2144553899011913 0.25344727897413516
v 1.89786 -1.9872 -0.93112 0.22597405915141355 0.21155018303536588 0.2500138526781597
v 1.80449 -2.64995 -0.78848 0.22597405915141355 0.21155018303536588 0.2500138526781597
v 2.78116 -0.94461 -0.42194 0.22597405915141355 0.21155018303536588 0.2500138526781597
v 3.07799 -0.36806 -0.61702 0.22829807853199346 0.21372586075335562 0.2525851081630566
v 1.89786 -1.9872 -0.93112 0.22829807853199346 0.21372586075335562 0.2525851081630566
v 2.78116 -0.94461 -0.42194 0.22829807853199346 0.21372586075335562 0.2525851081630566
v 2.09359 -1.43164 -1.12399 0.21597395379358378 0.2021883822748444 0.23894990632481614
v 1.26012 -0.55739 -1.69643 0.21597395379358378 0.2021883822748444 0.23894990632481614
v 1.89786 -1.9872 -0.93112 0.21597395379358378 0.2021883822748444 0.23894990632481614
v 1.89786 -1.9872 -0.93112 0.22250911306571927 0.2083064037210989 0.24618029530675326
v 1.18582 -1.20489 -1.62355 0.22250911306571927 0.2083064037210989 0.24618029530675326
v 1.80449 -2.64995 -0.78848 0.22250911306571927 0.2083064037210989 0.24618029530675326
v 1.26012 -0.55739 -1.69643 0.22435669350065435 0.21003605348997428 0.2482244268517878
v 0.54182 0.26592 -2.42391 0.22435669350065435 0.21003605348997428 0.2482244268517878
v 1.18582 -1.20489 -1.62355 0.22435669350065435 0.21003605348997428 0.2482244268517878
v 1.89786 -1.9872 -0.93112 0.22407288029184527 0.20977035601789773 0.2479104207484246
v 1.26012 -0.55739 -1.69643 0.22407288029184527 0.20977035601789773 0.2479104207484246
v 1.18582 -1.20489 -1.62355 0.22407288029184527 0.20977035601789773 0.2479104207484246
v 0.33071 0.21786 2.69779 0.2125305544184238 0.1989647743491627 0.23514018786719232
v -0.16896 -0.18583 2.81669 0.2125305544184238 0.1989647743491627 0.23514018786719232
v 0.74509 1.34515 2.31492 0.2125305544184238 0.1989647743491627 0.23514018786719232
v 0.74509 1.34515 2.31492 0.2234662980802958 0.2092024918198514 0.24723930851436987
v 0.26431 0.98425 2.62407 0.2234662980802958 0.2092024918198514 0.24723930851436987
v 1.20412 2.55304 2.07076 0.2234662980802958 0.2092024918198514 0.24723930851436987
v -0.16896 -0.18583 2.81669 0.2234229132084393 0.20916187619513466 0.2471913082306137
v -0.68028 -0.60235 3.12995 0.2234229132084393 0.20916187619513466 0.2471913082306137
v 0.26431 0.98425 2.62407 0.2234229132084393 0.20916187619513466 0.2471913082306137
v 0.74509 1.34515 2.31492 0.2238094277699506 0.20952371961442184 0.24761894136249857
v -0.16896 -0.18583 2.81669 0.2238094277699506 0.20952371961442184 0.24761894136249857
v 0.26431 0.98425 2.62407 0.2238094277699506 0.20952371961442184 0.24761894136249857
v 0.33071 0.21786 2.69779 0.2204967560035953 0.20642249498208926 0.24395385770610548
v 0.74509 1.34515 2.31492 0.2204967560035953 0.20642249498208926 0.24395385770610548
v 1.32284 0.21527 2.22562 0.2204967560035953 0.20642249498208926 0.24395385770610548
v 1.32284 0.21527 2.22562 0.22122147341183654 0.20710095383235763 0.2447556727109681
v 1.68974 1.33462 1.82992 0.22122147341183654 0.20710095383235763 0.2447556727109681
v 2.29299 0.2091 1.71646 0.22122147341183654 0.20710095383235763 0.2447556727109681
v 0.74509 1.34515 2.31492 0.22116101078944034 0.2070443505262846 0.24468877789469998
v 1.20412 2.55304 2.07076 0.22116101078944034 0.2070443505262846 0.24468877789469998
v 1.68974 1.33462 1.82992 0.22116101078944034 0.2070443505262846 0.24468877789469998
v 1.32284 0.21527 2.22562 0.2210628327794129 0.20695243919774825 0.2445801554155207
v 0.74509 1.34515 2.31492 0.2210628327794129 0.20695243919774825 0.2445801554155207
v 1.68974 1.33462 1.82992 0.2210628327794129 0.20695243919774825 0.2445801554155207
v 0.33071 0.21786 2.69779 0.22027365243146382 0.20621363206349805 0.2437070197114068
v 1.32284 0.21527 2.22562 0.22027365243146382 0.20621363206349805 0.2437070197114068
v -0.16896 -0.18583 2.81669 0.22027365243146382 0.20621363206349805 0.2437070197114068
v -0.16896 -0.18583 2.81669 0.2208157436562347 0.20672112172073034 0.2443067802154086
v 0.78086 -0.1904 2.34658 0.2208157436562347 0.20672112172073034 0.2443067802154086
v -0.68028 -0.60235 3.12995 0.2208157436562347 0.20672112172073034 0.2443067802154086
v 1.32284 0.21527 2.22562 0.22072940977155736 0.20664029850954307 0.24421126187491454
v 2.29299 0.2091 1.71646 0.22072940977155736 0.20664029850954307 0.24421126187491454
v 0.78086 -0.1904 2.34658 0.22072940977155736 0.20664029850954307 0.24421126187491454
v -0.16896 -0.18583 2.81669 0.22040118471219186 0.20633302398588174 0.24384811925604208
v 1.32284 0.21527 2.22562 0.22040118471219186 0.20633302398588174 0.24384811925604208
v 0.78086 -0.1904 2.34658 0.22040118471219186 0.20633302398588174 0.24384811925604208
v 1.80449 -2.64995 -0.78848 0.21462332330069542 0.2009239622389489 0.23745559173693961
v 1.18582 -1.20489 -1.62355 0.21462332330069542 0.2009239622389489 0.23745559173693961
v -0.42646 -2.26974 -1.35431 0.21462332330069542 0.2009239622389489 0.23745559173693961
v -0.42646 -2.26974 -1.35431 0.21614882741899846 0.20235209375395602 0.23914338352740258
v -1.04847 -0.87422 -2.17003 0.21614882741899846 0.20235209375395602 0.23914338352740258
v -2.68868 -2.05598 -2.01945 0.21614882741899846 0.20235209375395602 0.23914338352740258
v 1.18582 -1.20489 -1.62355 0.2148195429615527 0.20110765724060256 0.23767268582980303
v 0.54182 0.26592 -2.42391 0.2148195429615527 0.20110765724060256 0.23767268582980303
v -1.04847 -0.87422 -2.17003 0.2148195429615527 0.20110765724060256 0.23767268582980303
v -0.42646 -2.26974 -1.35431 0.2146542890204546 0.20095295142340433 0.23748985168220513
v 1.18582 -1.20489 -1.62355 0.2146542890204546 0.20095295142340433 0.23748985168220513
v -1.04847 -0.87422 -2.17003 0.2146542890204546 0.20095295142340433 0.23748985168220513
v -2.68868 -2.05598 -2.01945 0.2306572151303815 0.2159344141646125 0.2551952167399966
v -2.68822 -1.74831 -0.8191 0.2306572151303815 0.2159344141646125 0.2551952167399966
v -2.35661 -2.54173 -1.05836 0.2306572151303815 0.2159344141646125 0.2551952167399966
v -2.35661 -2.54173 -1.05836 0.23202545855656656 0.2172153229040198 0.2567090179774779
v -2.29112 -2.19177 0.13111 0.23202545855656656 0.2172153229040198 0.2567090179774779
v -2.11893 -3.1293 -0.13966 0.23202545855656656 0.2172153229040198 0.2567090179774779
v -2.68822 -1.74831 -0.8191 0.23046691662751354 0.21575626237469353 0.2549846737155469
v -2.59528 -1.3805 0.40943 0.23046691662751354 0.21575626237469353 0.2549846737155469
v -2.29112 -2.19177 0.13111 0.23046691662751354 0.21575626237469353 0.2549846737155469
v -2.35661 -2.54173 -1.05836 0.23030045094384882 0.2156004221601989 0.2548004989165987
v -2.68822 -1.74831 -0.8191 0.23030045094384882 0.2156004221601989 0.2548004989165987
v -2.29112 -2.19177 0.13111 0.23030045094384882 0.2156004221601989 0.2548004989165987
v 0.94424 3.86328 -0.45703 0.21617990778382867 0.20238119026571197 0.23917777031402324
v 1.10434 3.29824 0.82952 0.21617990778382867 0.20238119026571197 0.23917777031402324
v 0.16147 3.22395 0.48485 0.21617990778382867 0.20238119026571197 0.23917777031402324
v 0.16147 3.22395 0.48485 0.21427204705543385 0.20059510788168278 0.23706694567835238
v 0.27957 2.43512 1.68564 0.21427204705543385 0.20059510788168278 0.23706694567835238
v -0.62676 2.47587 1.41037 0.21427204705543385 0.20059510788168278 0.23706694567835238
v 1.10434 3.29824 0.82952 0.2181334979941397 0.20421008322855633 0.24133918927011203
v 1.20412 2.55304 2.07076 0.2181334979941397 0.20421008322855633 0.24133918927011203
v 0.27957 2.43512 1.68564 0.2181334979941397 0.20421008322855633 0.24133918927011203
v 0.16147 3.22395 0.48485 0.21705803120313016 0.2032032632539942 0.2401493111183568
v 1.10434 3.29824 0.82952 0.21705803120313016 0.2032032632539942 0.2401493111183568
v 0.27957 2.43512 1.68564 0.21705803120313016 0.2032032632539942 0.2401493111183568
v 0.94424 3.86328 -0.45703 0.2189888860651375 0.20501087206097982 0.24228557607206705
v 0.16147 3.22395 0.48485 0.2189888860651375 0.20501087206097982 0.24228557607206705
v -0.92236 3.15514 -0.5717 0.2189888860651375 0.20501087206097982 0.24228557607206705
v -0.92236 3.15514 -0.5717 0.21936839571891747 0.20536615769430572 0.2427054590932704
v -1.65627 2.36826 0.35898 0.21936839571891747 0.20536615769430572 0.2427054590932704
v -2.76946 2.3803 -0.67428 0.21936839571891747 0.20536615769430572 0.2427054590932704
v 0.16147 3.22395 0.48485 0.2204053804260392 0.20633695188820692 0.24385276132242636
v -0.62676 2.47587 1.41037 0.2204053804260392 0.20633695188820692 0.24385276132242636
v -1.65627 2.36826 0.35898 0.2204053804260392 0.20633695188820692 0.24385276132242636
v -0.92236 3.15514 -0.5717 0.22030256131283876 0.20624069569712566 0.24373900400569398
v 0.16147 3.22395 0.48485 0.22030256131283876 0.20624069569712566 0.24373900400569398
v -1.65627 2.36826 0.35898 0.22030256131283876 0.20624069569712566 0.24373900400569398
v 0.94424 3.86328 -0.45703 0.21495958699507983 0.20123876229326623 0.2378276281647692
v 1.16814 3.57902 0.24689 0.21495958699507983 0.20123876229326623 0.2378276281647692
v 1.10434 3.29824 0.82952 0.21495958699507983 0.20123876229326623 0.2378276281647692
v 1.10434 3.29824 0.82952 0.22843206019308743 0.21385129039352865 0.2527333431923521
v 1.24366 2.78528 1.46628 0.22843206019308743 0.21385129039352865 0.2527333431923521
v 1.20412 2.55304 2.07076 0.22843206019308743 0.21385129039352865 0.2527333431923521
v 1.16814 3.57902 0.24689 0.2168175987732251 0.20297817757493417 0.23988330077037673
v 1.3514 3.17025 0.94222 0.2168175987732251 0.20297817757493417 0.23988330077037673
v 1.24366 2.78528 1.46628 0.2168175987732251 0.20297817757493417 0.23988330077037673
v 1.10434 3.29824 0.82952 0.22518931432255013 0.21081552830196182 0.249145624356864
v 1.16814 3.57902 0.24689 0.22518931432255013 0.21081552830196182 0.249145624356864
v 1.24366 2.78528 1.46628 0.22518931432255013 0.21081552830196182 0.249145624356864
v -0.62676 2.47587 1.41037 0.21462740836649108 0.200927786555864 0.2374601113842029
v 0.27957 2.43512 1.68564 0.21462740836649108 0.200927786555864 0.2374601113842029
v -1.17098 1.87117 2.06324 0.21462740836649108 0.200927786555864 0.2374601113842029
v -1.17098 1.87117 2.06324 0.21770119908885982 0.20380537787042197 0.2408609011195896
v -0.24333 1.93815 2.43392 0.21770119908885982 0.20380537787042197 0.2408609011195896
v -1.67573 1.20341 2.64658 0.21770119908885982 0.20380537787042197 0.2408609011195896
v 0.27957 2.43512 1.68564 0.2173154324840253 0.20344423466589603 0.24043409551424078
v 1.20412 2.55304 2.07076 0.2173154324840253 0.20344423466589603 0.24043409551424078
v -0.24333 1.93815 2.43392 0.2173154324840253 0.20344423466589603 0.24043409551424078
v -1.17098 1.87117 2.06324 0.21639564249304846 0.20258315467434324 0.23941645552422383
v 0.27957 2.43512 1.68564 0.21639564249304846 0.20258315467434324 0.23941645552422383
v -0.24333 1.93815 2.43392 0.21639564249304846 0.20258315467434324 0.23941645552422383
v -0.62676 2.47587 1.41037 0.2212100281736306 0.20709023914127123 0.24474300989422965
v -1.17098 1.87117 2.06324 0.2212100281736306 0.20709023914127123 0.24474300989422965
v -1.65627 2.36826 0.35898 0.2212100281736306 0.20709023914127123 0.24474300989422965
v -1.65627 2.36826 0.35898 0.2191813257418465 0.2051910283540691 0.24249848805480895
v -2.24517 1.81005 0.99616 0.2191813257418465 0.2051910283540691 0.24249848805480895
v -2.76946 2.3803 -0.67428 0.2191813257418465 0.2051910283540691 0.24249848805480895
v -1.17098 1.87117 2.06324 0.22173873966878907 0.20758520309418554 0.24532796729312836
v -1.67573 1.20341 2.64658 0.22173873966878907 0.20758520309418554 0.24532796729312836
v -2.24517 1.81005 0.99616 0.22173873966878907 0.20758520309418554 0.24532796729312836
v -1.65627 2.36826 0.35898 0.2200854262175262 0.20603742028874794 0.24349876943215665
v -1.17098 1.87117 2.06324 0.2200854262175262 0.20603742028874794 0.24349876943215665
v -2.24517 1.81005 0.99616 0.2200854262175262 0.20603742028874794 0.24349876943215665
v 1.20412 2.55304 2.07076 0.21424371163841582 0.2005685811083042 0.2370355958552686
v 0.26431 0.98425 2.62407 0.21424371163841582 0.2005685811083042 0.2370355958552686
v -0.24333 1.93815 2.43392 0.21424371163841582 0.2005685811083042 0.2370355958552686
v -0.24333 1.93815 2.43392 0.21205801072844518 0.19852239302237423 0.23461737357189683
v -1.2102 0.30875 2.9672 0.21205801072844518 0.19852239302237423 0.23461737357189683
v -1.67573 1.20341 2.64658 0.21205801072844518 0.19852239302237423 0.23461737357189683
v 0.26431 0.98425 2.62407 0.21392936176187627 0.20027429611750122 0.23668780450250143
v -0.68028 -0.60235 3.12995 0.21392936176187627 0.20027429611750122 0.23668780450250143
v -1.2102 0.30875 2.9672 0.21392936176187627 0.20027429611750122 0.23668780450250143
v -0.24333 1.93815 2.43392 0.21381295073061587 0.20016531557759784 0.23655900931897927
v 0.26431 0.98425 2.62407 0.21381295073061587 0.20016531557759784 0.23655900931897927
v -1.2102 0.30875 2.9672 0.21381295073061587 0.20016531557759784 0.23655900931897927
f 1 2 3
f 4 5 6
f 7 8 9
f 10 11 12
f 13 14 15
f 16 17 18
f 19 20 21
f 22 23 24
f 25 26 27
f 28 29 30
f 31 32 33
f 34 35 36
f 37 38 39
f 40 41 42
f 43 44 45
f 46 47 48
f 49 50 51
f 52 53 54
f 55 56 57
f 58 59 60
f 61 62 63
f 64 65 66
f 67 68 69
f 70 71 72
f 73 74 75
f 76 77 78
f 79 80 81
f 82 83 84
f 85 86 87
f 88 89 90
f 91 92 93
f 94 95 96
f 97 98 99
f 100 101 102
f 103 104 105
f 106 107 108
f 109 110 111
f 112 113 114
f 115 116 117
f 118 119 120
f 121 122 123
f 124 125 126
f 127 128 129
f 130 131 132
f 133 134 135
f 136 137 138
f 139 140 141
f 142 143 144
f 145 146 147
f 148 149 150
f 151 152 153
f 154 155 156
f 157 158 159
f 160 161 162
f 163 164 165
f 166 167 168
f 169 170 171
f 172 173 174
f 175 176 177
f 178 179 180
f 181 182 183
f 184 185 186
f 187 188 189
f 190 191 192
f 193 194 195
f 196 197 198
f 199 200 201
f 202 203 204
f 205 206 207
f 208 209 210
f 211 212 213
f 214 215 216
f 217 218 219
f 220 221 222
f 223 224 225
f 226 227 228
f 229 230 231
f 232 233 234
f 235 236 237
f 238 239 240
f 241 242 243
f 244 245 246
f 247 248 249
f 250 251 252
f 253 254 255
f 256 257 258
f 259 260 261
f 262 263 264
f 265 266 267
f 268 269 270
f 271 272 273
f 274 275 276
f 277 278 279
f 280 281 282
f 283 284 285
f 286 287 288
f 289 290 291
f 292 293 294
f 295 296 297
f 298 299 300
f 301 302 303
f 304 305 306
f 307 308 309
f 310 311 312
f 313 314 315
f 316 317 318
f 319 320 321
f 322 323 324
f 325 326 327
f 328 329 330
f 331 332 333
f 334 335 336
f 337 338 339
f 340 341 342
f 343 344 345
f 346 347 348
f 349 350 351
f 352 353 354
f 355 356 357
f 358 359 360
f 361 362 363
f 364 365 366
f 367 368 369
f 370 371 372
f 373 374 375
f 376 377 378
f 379 380 381
f 382 383 384
f 385 386 387
f 388 389 390
f 391 392 393
f 394 395 396
f 397 398 399
f 400 401 402
f 403 404 405
f 406 407 408
f 409 410 411
f 412 413 414
f 415 416 417
f 418 419 420
f 421 422 423
f 424 425 426
f 427 428 429
f 430 431 432
f 433 434 435
f 436 437 438
f 439 440 441
f 442 443 444
f 445 446 447
f 448 449 450
f 451 452 453
f 454 455 456
f 457 458 459
f 460 461 462
f 463 464 465
f 466 467 468
f 469 470 471
f 472 473 474
f 475 476 477
f 478 479 480
f 481 482 483
f 484 485 486
f 487 488 489
f 490 491 492
f 493 494 495
f 496 497 498
f 499 500 501
f 502 503 504
f 505 506 507
f 508 509 510
f 511 512 513
f 514 515 516
f 517 518 519
f 520 521 522
f 523 524 525
f 526 527 528
