# R3 authored topology; reference 03-basin-to-plains.png;09-natural-ecotones.png
v -0.71407 -0.07 -0.11152 0.25773674701932187 0.2945562823077964 0.16568790879813547
v -0.78034 0.17271 -0.09319 0.25773674701932187 0.2945562823077964 0.16568790879813547
v -0.73051 -0.07 -0.12762 0.25773674701932187 0.2945562823077964 0.16568790879813547
v -0.71407 -0.07 -0.11152 0.25773674701932187 0.2945562823077964 0.16568790879813547
v -0.74745 0.17271 -0.06099 0.25773674701932187 0.2945562823077964 0.16568790879813547
v -0.78034 0.17271 -0.09319 0.25773674701932187 0.2945562823077964 0.16568790879813547
v -0.74745 0.17271 -0.06099 0.2863483514354679 0.32725525878339184 0.1840810830656579
v -0.8994 0.41543 0.0399 0.2863483514354679 0.32725525878339184 0.1840810830656579
v -0.78034 0.17271 -0.09319 0.2863483514354679 0.32725525878339184 0.1840810830656579
v -0.74745 0.17271 -0.06099 0.2863483514354679 0.32725525878339184 0.1840810830656579
v -0.87803 0.41543 0.06083 0.2863483514354679 0.32725525878339184 0.1840810830656579
v -0.8994 0.41543 0.0399 0.2863483514354679 0.32725525878339184 0.1840810830656579
v -0.87803 0.41543 0.06083 0.25160266963308214 0.28754590815209385 0.16174457333555278
v -1.06193 0.62347 0.22724 0.25160266963308214 0.28754590815209385 0.16174457333555278
v -0.8994 0.41543 0.0399 0.25160266963308214 0.28754590815209385 0.16174457333555278
v 1.66296 -0.07 -1.13791 0.298054962339694 0.34063424267393594 0.19160676150408895
v 1.70413 0.04536 -1.1609 0.298054962339694 0.34063424267393594 0.19160676150408895
v 1.6879 -0.07 -1.13456 0.298054962339694 0.34063424267393594 0.19160676150408895
v 1.66296 -0.07 -1.13791 0.298054962339694 0.34063424267393594 0.19160676150408895
v 1.65425 0.04536 -1.1676 0.298054962339694 0.34063424267393594 0.19160676150408895
v 1.70413 0.04536 -1.1609 0.298054962339694 0.34063424267393594 0.19160676150408895
v 1.65425 0.04536 -1.1676 0.31006914136751945 0.35436473299145077 0.19933016230769104
v 1.70669 0.16073 -1.24611 0.31006914136751945 0.35436473299145077 0.19933016230769104
v 1.70413 0.04536 -1.1609 0.31006914136751945 0.35436473299145077 0.19933016230769104
v 1.65425 0.04536 -1.1676 0.31006914136751945 0.35436473299145077 0.19933016230769104
v 1.67427 0.16073 -1.25047 0.31006914136751945 0.35436473299145077 0.19933016230769104
v 1.70669 0.16073 -1.24611 0.31006914136751945 0.35436473299145077 0.19933016230769104
v 1.67427 0.16073 -1.25047 0.24818470712823454 0.28363966528941087 0.1595473117252936
v 1.70615 0.25961 -1.36491 0.24818470712823454 0.28363966528941087 0.1595473117252936
v 1.70669 0.16073 -1.24611 0.24818470712823454 0.28363966528941087 0.1595473117252936
v 0.73351 -0.07 0.47155 0.32110582815099525 0.36697808931542314 0.20642517523992548
v 0.69037 0.1581 0.51914 0.32110582815099525 0.36697808931542314 0.20642517523992548
v 0.71291 -0.07 0.46692 0.32110582815099525 0.36697808931542314 0.20642517523992548
v 0.73351 -0.07 0.47155 0.32110582815099525 0.36697808931542314 0.20642517523992548
v 0.73156 0.1581 0.52839 0.32110582815099525 0.36697808931542314 0.20642517523992548
v 0.69037 0.1581 0.51914 0.32110582815099525 0.36697808931542314 0.20642517523992548
v 0.73156 0.1581 0.52839 0.30791107733228945 0.35189837409404506 0.19794283542790034
v 0.66084 0.3862 0.68434 0.30791107733228945 0.35189837409404506 0.19794283542790034
v 0.69037 0.1581 0.51914 0.30791107733228945 0.35189837409404506 0.19794283542790034
v 0.73156 0.1581 0.52839 0.30791107733228945 0.35189837409404506 0.19794283542790034
v 0.68761 0.3862 0.69035 0.30791107733228945 0.35189837409404506 0.19794283542790034
v 0.66084 0.3862 0.68434 0.30791107733228945 0.35189837409404506 0.19794283542790034
v 0.68761 0.3862 0.69035 0.23223124462579192 0.2654071367151908 0.1492915144022948
v 0.62324 0.58172 0.91435 0.23223124462579192 0.2654071367151908 0.1492915144022948
v 0.66084 0.3862 0.68434 0.23223124462579192 0.2654071367151908 0.1492915144022948
v -1.21741 -0.07 -0.50523 0.289160360297267 0.33046898319687656 0.18588880304824307
v -1.24851 0.0544 -0.46933 0.289160360297267 0.33046898319687656 0.18588880304824307
v -1.24139 -0.07 -0.50135 0.289160360297267 0.33046898319687656 0.18588880304824307
v -1.21741 -0.07 -0.50523 0.289160360297267 0.33046898319687656 0.18588880304824307
v -1.20055 0.0544 -0.47709 0.289160360297267 0.33046898319687656 0.18588880304824307
v -1.24851 0.0544 -0.46933 0.289160360297267 0.33046898319687656 0.18588880304824307
v -1.20055 0.0544 -0.47709 0.2925146923937955 0.33430250559290914 0.18804515939601138
v -1.22551 0.17879 -0.38043 0.2925146923937955 0.33430250559290914 0.18804515939601138
v -1.24851 0.0544 -0.46933 0.2925146923937955 0.33430250559290914 0.18804515939601138
v -1.20055 0.0544 -0.47709 0.2925146923937955 0.33430250559290914 0.18804515939601138
v -1.19433 0.17879 -0.38547 0.2925146923937955 0.33430250559290914 0.18804515939601138
v -1.22551 0.17879 -0.38043 0.2925146923937955 0.33430250559290914 0.18804515939601138
v -1.19433 0.17879 -0.38547 0.2877161423821768 0.32881844843677344 0.18496037724568504
v -1.18965 0.28542 -0.2577 0.2877161423821768 0.32881844843677344 0.18496037724568504
v -1.22551 0.17879 -0.38043 0.2877161423821768 0.32881844843677344 0.18496037724568504
v 0.35273 -0.07 -0.00989 0.2590378674949727 0.29604327713711165 0.1665243433896253
v 0.36418 0.03826 0.03933 0.2590378674949727 0.29604327713711165 0.1665243433896253
v 0.3436 -0.07 0.0173 0.2590378674949727 0.29604327713711165 0.1665243433896253
v 0.35273 -0.07 -0.00989 0.2590378674949727 0.29604327713711165 0.1665243433896253
v 0.38243 0.03826 -0.01504 0.2590378674949727 0.29604327713711165 0.1665243433896253
v 0.36418 0.03826 0.03933 0.2590378674949727 0.29604327713711165 0.1665243433896253
v 0.38243 0.03826 -0.01504 0.272614565264695 0.3115595031596514 0.1752522205273039
v 0.44281 0.14651 0.05514 0.272614565264695 0.3115595031596514 0.1752522205273039
v 0.36418 0.03826 0.03933 0.272614565264695 0.3115595031596514 0.1752522205273039
v 0.38243 0.03826 -0.01504 0.272614565264695 0.3115595031596514 0.1752522205273039
v 0.45467 0.14651 0.0198 0.272614565264695 0.3115595031596514 0.1752522205273039
v 0.44281 0.14651 0.05514 0.272614565264695 0.3115595031596514 0.1752522205273039
v 0.45467 0.14651 0.0198 0.28304101998643777 0.3234754514130717 0.18195494141985283
v 0.55342 0.2393 0.07261 0.28304101998643777 0.3234754514130717 0.18195494141985283
v 0.44281 0.14651 0.05514 0.28304101998643777 0.3234754514130717 0.18195494141985283
v -0.25314 -0.07 0.22383 0.2692429817609519 0.3077062648696593 0.17308477398918334
v -0.21255 0.13181 0.27104 0.2692429817609519 0.3077062648696593 0.17308477398918334
v -0.25833 -0.07 0.24851 0.2692429817609519 0.3077062648696593 0.17308477398918334
v -0.25314 -0.07 0.22383 0.2692429817609519 0.3077062648696593 0.17308477398918334
v -0.20216 0.13181 0.22169 0.2692429817609519 0.3077062648696593 0.17308477398918334
v -0.21255 0.13181 0.27104 0.2692429817609519 0.3077062648696593 0.17308477398918334
v -0.20216 0.13181 0.22169 0.23944244512042265 0.27364850870905444 0.1539272861488431
v -0.06558 0.33362 0.29297 0.23944244512042265 0.27364850870905444 0.1539272861488431
v -0.21255 0.13181 0.27104 0.23944244512042265 0.27364850870905444 0.1539272861488431
v -0.20216 0.13181 0.22169 0.23944244512042265 0.27364850870905444 0.1539272861488431
v -0.05883 0.33362 0.26089 0.23944244512042265 0.27364850870905444 0.1539272861488431
v -0.06558 0.33362 0.29297 0.23944244512042265 0.27364850870905444 0.1539272861488431
v -0.05883 0.33362 0.26089 0.2689129794556528 0.30732911937788887 0.17287262965006248
v 0.13922 0.5066 0.31935 0.2689129794556528 0.30732911937788887 0.17287262965006248
v -0.06558 0.33362 0.29297 0.2689129794556528 0.30732911937788887 0.17287262965006248
v -1.42175 -0.07 0.16019 0.28214071660395906 0.3224465332616675 0.18137617495968794
v -1.40408 0.1745 0.0931 0.28214071660395906 0.3224465332616675 0.18137617495968794
v -1.39926 -0.07 0.15393 0.28214071660395906 0.3224465332616675 0.18137617495968794
v -1.42175 -0.07 0.16019 0.28214071660395906 0.3224465332616675 0.18137617495968794
v -1.44906 0.1745 0.10562 0.28214071660395906 0.3224465332616675 0.18137617495968794
v -1.40408 0.1745 0.0931 0.28214071660395906 0.3224465332616675 0.18137617495968794
v -1.44906 0.1745 0.10562 0.23861980851936915 0.2727083525935647 0.15339844833388014
v -1.46015 0.419 -0.07784 0.23861980851936915 0.2727083525935647 0.15339844833388014
v -1.40408 0.1745 0.0931 0.23861980851936915 0.2727083525935647 0.15339844833388014
v -1.44906 0.1745 0.10562 0.23861980851936915 0.2727083525935647 0.15339844833388014
v -1.48938 0.419 -0.0697 0.23861980851936915 0.2727083525935647 0.15339844833388014
v -1.46015 0.419 -0.07784 0.23861980851936915 0.2727083525935647 0.15339844833388014
v -1.48938 0.419 -0.0697 0.232727325802427 0.26597408663134514 0.14961042373013161
v -1.54164 0.62857 -0.31402 0.232727325802427 0.26597408663134514 0.14961042373013161
v -1.46015 0.419 -0.07784 0.232727325802427 0.26597408663134514 0.14961042373013161
v 1.35756 -0.07 -0.6853 0.27374900483000436 0.312856005520005 0.17598150310500277
v 1.37202 0.1771 -0.61969 0.27374900483000436 0.312856005520005 0.17598150310500277
v 1.34228 -0.07 -0.67331 0.27374900483000436 0.312856005520005 0.17598150310500277
v 1.35756 -0.07 -0.6853 0.27374900483000436 0.312856005520005 0.17598150310500277
v 1.40257 0.1771 -0.64366 0.27374900483000436 0.312856005520005 0.17598150310500277
v 1.37202 0.1771 -0.61969 0.27374900483000436 0.312856005520005 0.17598150310500277
v 1.40257 0.1771 -0.64366 0.2438963890239541 0.2787387303130904 0.15679053580111332
v 1.48948 0.4242 -0.481 0.2438963890239541 0.2787387303130904 0.15679053580111332
v 1.37202 0.1771 -0.61969 0.2438963890239541 0.2787387303130904 0.15679053580111332
v 1.40257 0.1771 -0.64366 0.2438963890239541 0.2787387303130904 0.15679053580111332
v 1.50933 0.4242 -0.49658 0.2438963890239541 0.2787387303130904 0.15679053580111332
v 1.48948 0.4242 -0.481 0.2438963890239541 0.2787387303130904 0.15679053580111332
v 1.50933 0.4242 -0.49658 0.26880894449176196 0.30721022227629935 0.17280575003041837
v 1.65499 0.636 -0.2905 0.26880894449176196 0.30721022227629935 0.17280575003041837
v 1.48948 0.4242 -0.481 0.26880894449176196 0.30721022227629935 0.17280575003041837
v 0.04273 -0.07 0.65062 0.23638589205568036 0.27015530520649184 0.15196235917865164
v 0.00736 0.03216 0.6591 0.23638589205568036 0.27015530520649184 0.15196235917865164
v 0.0275 -0.07 0.64183 0.23638589205568036 0.27015530520649184 0.15196235917865164
v 0.04273 -0.07 0.65062 0.23638589205568036 0.27015530520649184 0.15196235917865164
v 0.03782 0.03216 0.6767 0.23638589205568036 0.27015530520649184 0.15196235917865164
v 0.00736 0.03216 0.6591 0.23638589205568036 0.27015530520649184 0.15196235917865164
v 0.03782 0.03216 0.6767 0.2560350119743362 0.2926114422563842 0.1645939362692161
v -0.02487 0.13433 0.7272 0.2560350119743362 0.2926114422563842 0.1645939362692161
v 0.00736 0.03216 0.6591 0.2560350119743362 0.2926114422563842 0.1645939362692161
v 0.03782 0.03216 0.6767 0.2560350119743362 0.2926114422563842 0.1645939362692161
v -0.00507 0.13433 0.73864 0.2560350119743362 0.2926114422563842 0.1645939362692161
v -0.02487 0.13433 0.7272 0.2560350119743362 0.2926114422563842 0.1645939362692161
v -0.00507 0.13433 0.73864 0.2564098520307206 0.2930398308922521 0.16483490487689179
v -0.0671 0.2219 0.82315 0.2564098520307206 0.2930398308922521 0.16483490487689179
v -0.02487 0.13433 0.7272 0.2564098520307206 0.2930398308922521 0.16483490487689179
v 0.41717 -0.07 -1.32568 0.2661949524552149 0.30422280280595987 0.17112532657835242
v 0.47781 0.13405 -1.3566 0.2661949524552149 0.30422280280595987 0.17112532657835242
v 0.44607 -0.07 -1.31503 0.2661949524552149 0.30422280280595987 0.17112532657835242
v 0.41717 -0.07 -1.32568 0.2661949524552149 0.30422280280595987 0.17112532657835242
v 0.42001 0.13405 -1.37791 0.2661949524552149 0.30422280280595987 0.17112532657835242
v 0.47781 0.13405 -1.3566 0.2661949524552149 0.30422280280595987 0.17112532657835242
v 0.42001 0.13405 -1.37791 0.29479775536711966 0.3369117204195653 0.18951284273600547
v 0.51958 0.33811 -1.50105 0.29479775536711966 0.3369117204195653 0.18951284273600547
v 0.47781 0.13405 -1.3566 0.29479775536711966 0.3369117204195653 0.18951284273600547
v 0.42001 0.13405 -1.37791 0.29479775536711966 0.3369117204195653 0.18951284273600547
v 0.48201 0.33811 -1.5149 0.29479775536711966 0.3369117204195653 0.18951284273600547
v 0.51958 0.33811 -1.50105 0.29479775536711966 0.3369117204195653 0.18951284273600547
v 0.48201 0.33811 -1.5149 0.2606082323316861 0.29783797980764126 0.1675338636417982
v 0.57279 0.51301 -1.70326 0.2606082323316861 0.29783797980764126 0.1675338636417982
v 0.51958 0.33811 -1.50105 0.2606082323316861 0.29783797980764126 0.1675338636417982
v -1.51083 -0.07 1.61913 0.2644046434079131 0.3021767353233292 0.16997441361937268
v -1.57493 0.13099 1.60741 0.2644046434079131 0.3021767353233292 0.16997441361937268
v -1.52529 -0.07 1.59463 0.2644046434079131 0.3021767353233292 0.16997441361937268
v -1.51083 -0.07 1.61913 0.2644046434079131 0.3021767353233292 0.16997441361937268
v -1.54601 0.13099 1.6564 0.2644046434079131 0.3021767353233292 0.16997441361937268
v -1.57493 0.13099 1.60741 0.2644046434079131 0.3021767353233292 0.16997441361937268
v -1.54601 0.13099 1.6564 0.28041132765866006 0.3204700887527543 0.1802644249234243
v -1.69709 0.33199 1.69107 0.28041132765866006 0.3204700887527543 0.1802644249234243
v -1.57493 0.13099 1.60741 0.28041132765866006 0.3204700887527543 0.1802644249234243
v -1.54601 0.13099 1.6564 0.28041132765866006 0.3204700887527543 0.1802644249234243
v -1.67829 0.33199 1.72292 0.28041132765866006 0.3204700887527543 0.1802644249234243
v -1.69709 0.33199 1.69107 0.28041132765866006 0.3204700887527543 0.1802644249234243
v -1.67829 0.33199 1.72292 0.2374729762190138 0.27139768710744433 0.15266119899793743
v -1.86425 0.50427 1.8112 0.2374729762190138 0.27139768710744433 0.15266119899793743
v -1.69709 0.33199 1.69107 0.2374729762190138 0.27139768710744433 0.15266119899793743
v -0.18743 -0.07 0.43057 0.22886073518700814 0.2615551259280093 0.14712475833450522
v -0.25402 0.15807 0.42058 0.22886073518700814 0.2615551259280093 0.14712475833450522
v -0.19817 -0.07 0.40794 0.22886073518700814 0.2615551259280093 0.14712475833450522
v -0.18743 -0.07 0.43057 0.22886073518700814 0.2615551259280093 0.14712475833450522
v -0.23254 0.15807 0.46584 0.22886073518700814 0.2615551259280093 0.14712475833450522
v -0.25402 0.15807 0.42058 0.22886073518700814 0.2615551259280093 0.14712475833450522
v -0.23254 0.15807 0.46584 0.24359882192742688 0.27839865363134497 0.15659924266763153
v -0.4017 0.38614 0.50037 0.24359882192742688 0.27839865363134497 0.15659924266763153
v -0.25402 0.15807 0.42058 0.24359882192742688 0.27839865363134497 0.15659924266763153
v -0.23254 0.15807 0.46584 0.24359882192742688 0.27839865363134497 0.15659924266763153
v -0.38774 0.38614 0.52978 0.24359882192742688 0.27839865363134497 0.15659924266763153
v -0.4017 0.38614 0.50037 0.24359882192742688 0.27839865363134497 0.15659924266763153
v -0.38774 0.38614 0.52978 0.24779942132759328 0.2831993386601066 0.15929962799630995
v -0.60489 0.58163 0.61481 0.24779942132759328 0.2831993386601066 0.15929962799630995
v -0.4017 0.38614 0.50037 0.24779942132759328 0.2831993386601066 0.15929962799630995
f 1 2 3
f 4 5 6
f 7 8 9
f 10 11 12
f 13 14 15
f 16 17 18
f 19 20 21
f 22 23 24
f 25 26 27
f 28 29 30
f 31 32 33
f 34 35 36
f 37 38 39
f 40 41 42
f 43 44 45
f 46 47 48
f 49 50 51
f 52 53 54
f 55 56 57
f 58 59 60
f 61 62 63
f 64 65 66
f 67 68 69
f 70 71 72
f 73 74 75
f 76 77 78
f 79 80 81
f 82 83 84
f 85 86 87
f 88 89 90
f 91 92 93
f 94 95 96
f 97 98 99
f 100 101 102
f 103 104 105
f 106 107 108
f 109 110 111
f 112 113 114
f 115 116 117
f 118 119 120
f 121 122 123
f 124 125 126
f 127 128 129
f 130 131 132
f 133 134 135
f 136 137 138
f 139 140 141
f 142 143 144
f 145 146 147
f 148 149 150
f 151 152 153
f 154 155 156
f 157 158 159
f 160 161 162
f 163 164 165
f 166 167 168
f 169 170 171
f 172 173 174
f 175 176 177
f 178 179 180
