# R3 authored topology; reference 05-forest.png;06-river-wetland.png
v 0.76373 -0.3 0.0 0.2897382943142353 0.27042240802661965 0.3187121237456589
v 0.88339 0 0.20682 0.2897382943142353 0.27042240802661965 0.3187121237456589
v 0.79876 0 0.0 0.2897382943142353 0.27042240802661965 0.3187121237456589
v 0.76373 -0.3 0.0 0.2897382943142353 0.27042240802661965 0.3187121237456589
v 0.73198 -0.3 0.18492 0.2897382943142353 0.27042240802661965 0.3187121237456589
v 0.88339 0 0.20682 0.2897382943142353 0.27042240802661965 0.3187121237456589
v 0.73198 -0.3 0.18492 0.3118603696886435 0.29106967837606734 0.3430464066575079
v 0.58117 0 0.39236 0.3118603696886435 0.29106967837606734 0.3430464066575079
v 0.88339 0 0.20682 0.3118603696886435 0.29106967837606734 0.3430464066575079
v 0.73198 -0.3 0.18492 0.3118603696886435 0.29106967837606734 0.3430464066575079
v 0.49346 -0.3 0.35081 0.3118603696886435 0.29106967837606734 0.3430464066575079
v 0.58117 0 0.39236 0.3118603696886435 0.29106967837606734 0.3430464066575079
v 0.49346 -0.3 0.35081 0.29504811642356893 0.27537824199533106 0.32455292806592584
v 0.54387 0 0.69265 0.29504811642356893 0.27537824199533106 0.32455292806592584
v 0.58117 0 0.39236 0.29504811642356893 0.27537824199533106 0.32455292806592584
v 0.49346 -0.3 0.35081 0.29504811642356893 0.27537824199533106 0.32455292806592584
v 0.48125 -0.3 0.61928 0.29504811642356893 0.27537824199533106 0.32455292806592584
v 0.54387 0 0.69265 0.29504811642356893 0.27537824199533106 0.32455292806592584
v 0.48125 -0.3 0.61928 0.3109588215940903 0.2902282334878176 0.34205470375349933
v 0.15249 0 0.6157 0.3109588215940903 0.2902282334878176 0.34205470375349933
v 0.54387 0 0.69265 0.3109588215940903 0.2902282334878176 0.34205470375349933
v 0.48125 -0.3 0.61928 0.3109588215940903 0.2902282334878176 0.34205470375349933
v 0.14751 -0.3 0.55049 0.3109588215940903 0.2902282334878176 0.34205470375349933
v 0.15249 0 0.6157 0.3109588215940903 0.2902282334878176 0.34205470375349933
v 0.14751 -0.3 0.55049 0.3069880692804419 0.28652219799507916 0.33768687620848614
v -0.08876 0 0.63848 0.3069880692804419 0.28652219799507916 0.33768687620848614
v 0.15249 0 0.6157 0.3069880692804419 0.28652219799507916 0.33768687620848614
v 0.14751 -0.3 0.55049 0.3069880692804419 0.28652219799507916 0.33768687620848614
v -0.07755 -0.3 0.57086 0.3069880692804419 0.28652219799507916 0.33768687620848614
v -0.08876 0 0.63848 0.3069880692804419 0.28652219799507916 0.33768687620848614
v -0.07755 -0.3 0.57086 0.2764133167899415 0.25798576233727877 0.3040546484689357
v -0.26306 0 0.75764 0.2764133167899415 0.25798576233727877 0.3040546484689357
v -0.08876 0 0.63848 0.2764133167899415 0.25798576233727877 0.3040546484689357
v -0.07755 -0.3 0.57086 0.2764133167899415 0.25798576233727877 0.3040546484689357
v -0.25268 -0.3 0.67739 0.2764133167899415 0.25798576233727877 0.3040546484689357
v -0.26306 0 0.75764 0.2764133167899415 0.25798576233727877 0.3040546484689357
v -0.25268 -0.3 0.67739 0.30194598549696705 0.2818162531305026 0.33214058404666374
v -0.63602 0 0.46595 0.30194598549696705 0.2818162531305026 0.33214058404666374
v -0.26306 0 0.75764 0.30194598549696705 0.2818162531305026 0.33214058404666374
v -0.25268 -0.3 0.67739 0.30194598549696705 0.2818162531305026 0.33214058404666374
v -0.56834 -0.3 0.4166 0.30194598549696705 0.2818162531305026 0.33214058404666374
v -0.63602 0 0.46595 0.30194598549696705 0.2818162531305026 0.33214058404666374
v -0.56834 -0.3 0.4166 0.30054157328495673 0.28050546839929297 0.33059573061345243
v -0.64137 0 0.30582 0.30054157328495673 0.28050546839929297 0.33059573061345243
v -0.63602 0 0.46595 0.30054157328495673 0.28050546839929297 0.33059573061345243
v -0.56834 -0.3 0.4166 0.30054157328495673 0.28050546839929297 0.33059573061345243
v -0.59584 -0.3 0.27343 0.30054157328495673 0.28050546839929297 0.33059573061345243
v -0.64137 0 0.30582 0.30054157328495673 0.28050546839929297 0.33059573061345243
v -0.59584 -0.3 0.27343 0.29533093189471665 0.27564220310173554 0.3248640250841883
v -0.87344 0 0.13616 0.29533093189471665 0.27564220310173554 0.3248640250841883
v -0.64137 0 0.30582 0.29533093189471665 0.27564220310173554 0.3248640250841883
v -0.59584 -0.3 0.27343 0.29533093189471665 0.27564220310173554 0.3248640250841883
v -0.71775 -0.3 0.12174 0.29533093189471665 0.27564220310173554 0.3248640250841883
v -0.87344 0 0.13616 0.29533093189471665 0.27564220310173554 0.3248640250841883
v -0.71775 -0.3 0.12174 0.28560570683829156 0.2665653263824055 0.31416627752212073
v -0.89149 0 -0.10395 0.28560570683829156 0.2665653263824055 0.31416627752212073
v -0.87344 0 0.13616 0.28560570683829156 0.2665653263824055 0.31416627752212073
v -0.71775 -0.3 0.12174 0.28560570683829156 0.2665653263824055 0.31416627752212073
v -0.76731 -0.3 -0.09294 0.28560570683829156 0.2665653263824055 0.31416627752212073
v -0.89149 0 -0.10395 0.28560570683829156 0.2665653263824055 0.31416627752212073
v -0.76731 -0.3 -0.09294 0.2990746247488731 0.2791363164322816 0.32898208722376043
v -0.66526 0 -0.30672 0.2990746247488731 0.2791363164322816 0.32898208722376043
v -0.89149 0 -0.10395 0.2990746247488731 0.2791363164322816 0.32898208722376043
v -0.76731 -0.3 -0.09294 0.2990746247488731 0.2791363164322816 0.32898208722376043
v -0.57401 -0.3 -0.27424 0.2990746247488731 0.2791363164322816 0.32898208722376043
v -0.66526 0 -0.30672 0.2990746247488731 0.2791363164322816 0.32898208722376043
v -0.57401 -0.3 -0.27424 0.28001587824945157 0.2613481530328215 0.30801746607439673
v -0.69172 0 -0.60852 0.28001587824945157 0.2613481530328215 0.30801746607439673
v -0.66526 0 -0.30672 0.28001587824945157 0.2613481530328215 0.30801746607439673
v -0.57401 -0.3 -0.27424 0.28001587824945157 0.2613481530328215 0.30801746607439673
v -0.58115 -0.3 -0.54407 0.28001587824945157 0.2613481530328215 0.30801746607439673
v -0.69172 0 -0.60852 0.28001587824945157 0.2613481530328215 0.30801746607439673
v -0.58115 -0.3 -0.54407 0.2916515490240878 0.27220811242248194 0.3208167039264966
v -0.26417 0 -0.57672 0.2916515490240878 0.27220811242248194 0.3208167039264966
v -0.69172 0 -0.60852 0.2916515490240878 0.27220811242248194 0.3208167039264966
v -0.58115 -0.3 -0.54407 0.2916515490240878 0.27220811242248194 0.3208167039264966
v -0.22557 -0.3 -0.51564 0.2916515490240878 0.27220811242248194 0.3208167039264966
v -0.26417 0 -0.57672 0.2916515490240878 0.27220811242248194 0.3208167039264966
v -0.22557 -0.3 -0.51564 0.29233405342785146 0.27284511653266136 0.3215674587706366
v -0.08899 0 -0.64415 0.29233405342785146 0.27284511653266136 0.3215674587706366
v -0.26417 0 -0.57672 0.29233405342785146 0.27284511653266136 0.3215674587706366
v -0.22557 -0.3 -0.51564 0.29233405342785146 0.27284511653266136 0.3215674587706366
v -0.07747 -0.3 -0.57593 0.29233405342785146 0.27284511653266136 0.3215674587706366
v -0.08899 0 -0.64415 0.29233405342785146 0.27284511653266136 0.3215674587706366
v -0.07747 -0.3 -0.57593 0.3103373733907589 0.28964821516470834 0.3413711107298348
v 0.16028 0 -0.80164 0.3103373733907589 0.28964821516470834 0.3413711107298348
v -0.08899 0 -0.64415 0.3103373733907589 0.28964821516470834 0.3413711107298348
v -0.07747 -0.3 -0.57593 0.3103373733907589 0.28964821516470834 0.3413711107298348
v 0.14651 -0.3 -0.71673 0.3103373733907589 0.28964821516470834 0.3413711107298348
v 0.16028 0 -0.80164 0.3103373733907589 0.28964821516470834 0.3413711107298348
v 0.14651 -0.3 -0.71673 0.30753070585361497 0.28702865879670736 0.3382837764389765
v 0.5407 0 -0.52575 0.30753070585361497 0.28702865879670736 0.3382837764389765
v 0.16028 0 -0.80164 0.30753070585361497 0.28702865879670736 0.3382837764389765
v 0.14651 -0.3 -0.71673 0.30753070585361497 0.28702865879670736 0.3382837764389765
v 0.46923 -0.3 -0.47007 0.30753070585361497 0.28702865879670736 0.3382837764389765
v 0.5407 0 -0.52575 0.30753070585361497 0.28702865879670736 0.3382837764389765
v 0.46923 -0.3 -0.47007 0.28548200582703925 0.2664498721052367 0.3140302064097432
v 0.61681 0 -0.39819 0.28548200582703925 0.2664498721052367 0.3140302064097432
v 0.5407 0 -0.52575 0.28548200582703925 0.2664498721052367 0.3140302064097432
v 0.46923 -0.3 -0.47007 0.28548200582703925 0.2664498721052367 0.3140302064097432
v 0.53663 -0.3 -0.35601 0.28548200582703925 0.2664498721052367 0.3140302064097432
v 0.61681 0 -0.39819 0.28548200582703925 0.2664498721052367 0.3140302064097432
v 0.53663 -0.3 -0.35601 0.29402110006981075 0.27441969339849004 0.3234232100767918
v 0.83088 0 -0.26844 0.29402110006981075 0.27441969339849004 0.3234232100767918
v 0.61681 0 -0.39819 0.29402110006981075 0.27441969339849004 0.3234232100767918
v 0.53663 -0.3 -0.35601 0.29402110006981075 0.27441969339849004 0.3234232100767918
v 0.75702 -0.3 -0.24001 0.29402110006981075 0.27441969339849004 0.3234232100767918
v 0.83088 0 -0.26844 0.29402110006981075 0.27441969339849004 0.3234232100767918
v 0.75702 -0.3 -0.24001 0.2824314676990847 0.26360270318581247 0.31067461446899325
v 0.79876 0 0.0 0.2824314676990847 0.26360270318581247 0.31067461446899325
v 0.83088 0 -0.26844 0.2824314676990847 0.26360270318581247 0.31067461446899325
v 0.75702 -0.3 -0.24001 0.2824314676990847 0.26360270318581247 0.31067461446899325
v 0.76373 -0.3 0.0 0.2824314676990847 0.26360270318581247 0.31067461446899325
v 0.79876 0 0.0 0.2824314676990847 0.26360270318581247 0.31067461446899325
v 0.79876 0 0.0 0.30885460221641353 0.288264295401986 0.3397400624380549
v 0.88808 0.25 0.21247 0.30885460221641353 0.288264295401986 0.3397400624380549
v 0.89755 0.25 0.0 0.30885460221641353 0.288264295401986 0.3397400624380549
v 0.79876 0 0.0 0.30885460221641353 0.288264295401986 0.3397400624380549
v 0.88339 0 0.20682 0.30885460221641353 0.288264295401986 0.3397400624380549
v 0.88808 0.25 0.21247 0.30885460221641353 0.288264295401986 0.3397400624380549
v 0.88339 0 0.20682 0.3073386685141236 0.2868494239465154 0.338072535365536
v 0.5975 0.25 0.40309 0.3073386685141236 0.2868494239465154 0.338072535365536
v 0.88808 0.25 0.21247 0.3073386685141236 0.2868494239465154 0.338072535365536
v 0.88339 0 0.20682 0.3073386685141236 0.2868494239465154 0.338072535365536
v 0.58117 0 0.39236 0.3073386685141236 0.2868494239465154 0.338072535365536
v 0.5975 0.25 0.40309 0.3073386685141236 0.2868494239465154 0.338072535365536
v 0.58117 0 0.39236 0.2867440124921508 0.2676277449926741 0.3154184137413659
v 0.54424 0.25 0.71158 0.2867440124921508 0.2676277449926741 0.3154184137413659
v 0.5975 0.25 0.40309 0.2867440124921508 0.2676277449926741 0.3154184137413659
v 0.58117 0 0.39236 0.2867440124921508 0.2676277449926741 0.3154184137413659
v 0.54387 0 0.69265 0.2867440124921508 0.2676277449926741 0.3154184137413659
v 0.54424 0.25 0.71158 0.2867440124921508 0.2676277449926741 0.3154184137413659
v 0.54387 0 0.69265 0.2990021818151762 0.2790687030274978 0.32890239999669385
v 0.15826 0.25 0.63253 0.2990021818151762 0.2790687030274978 0.32890239999669385
v 0.54424 0.25 0.71158 0.2990021818151762 0.2790687030274978 0.32890239999669385
v 0.54387 0 0.69265 0.2990021818151762 0.2790687030274978 0.32890239999669385
v 0.15249 0 0.6157 0.2990021818151762 0.2790687030274978 0.32890239999669385
v 0.15826 0.25 0.63253 0.2990021818151762 0.2790687030274978 0.32890239999669385
v 0.15249 0 0.6157 0.2979229276117742 0.2780613991043226 0.32771522037295164
v -0.08623 0.25 0.65593 0.2979229276117742 0.2780613991043226 0.32771522037295164
v 0.15826 0.25 0.63253 0.2979229276117742 0.2780613991043226 0.32771522037295164
v 0.15249 0 0.6157 0.2979229276117742 0.2780613991043226 0.32771522037295164
v -0.08876 0 0.63848 0.2979229276117742 0.2780613991043226 0.32771522037295164
v -0.08623 0.25 0.65593 0.2979229276117742 0.2780613991043226 0.32771522037295164
v -0.08876 0 0.63848 0.2815022136677868 0.26273539942326773 0.3096524350345656
v -0.26097 0.25 0.77834 0.2815022136677868 0.26273539942326773 0.3096524350345656
v -0.08623 0.25 0.65593 0.2815022136677868 0.26273539942326773 0.3096524350345656
v -0.08876 0 0.63848 0.2815022136677868 0.26273539942326773 0.3096524350345656
v -0.26306 0 0.75764 0.2815022136677868 0.26273539942326773 0.3096524350345656
v -0.26097 0.25 0.77834 0.2815022136677868 0.26273539942326773 0.3096524350345656
v -0.26306 0 0.75764 0.3034503888027054 0.2832203628825251 0.333795427682976
v -0.66194 0.25 0.47869 0.3034503888027054 0.2832203628825251 0.333795427682976
v -0.26097 0.25 0.77834 0.3034503888027054 0.2832203628825251 0.333795427682976
v -0.26306 0 0.75764 0.3034503888027054 0.2832203628825251 0.333795427682976
v -0.63602 0 0.46595 0.3034503888027054 0.2832203628825251 0.333795427682976
v -0.66194 0.25 0.47869 0.3034503888027054 0.2832203628825251 0.333795427682976
v -0.63602 0 0.46595 0.2954176450843065 0.2757231354120194 0.32495940959273717
v -0.65924 0.25 0.31418 0.2954176450843065 0.2757231354120194 0.32495940959273717
v -0.66194 0.25 0.47869 0.2954176450843065 0.2757231354120194 0.32495940959273717
v -0.63602 0 0.46595 0.2954176450843065 0.2757231354120194 0.32495940959273717
v -0.64137 0 0.30582 0.2954176450843065 0.2757231354120194 0.32495940959273717
v -0.65924 0.25 0.31418 0.2954176450843065 0.2757231354120194 0.32495940959273717
v -0.64137 0 0.30582 0.30403055323070005 0.28376184968198676 0.3344336085537701
v -0.84675 0.25 0.13988 0.30403055323070005 0.28376184968198676 0.3344336085537701
v -0.65924 0.25 0.31418 0.30403055323070005 0.28376184968198676 0.3344336085537701
v -0.64137 0 0.30582 0.30403055323070005 0.28376184968198676 0.3344336085537701
v -0.87344 0 0.13616 0.30403055323070005 0.28376184968198676 0.3344336085537701
v -0.84675 0.25 0.13988 0.30403055323070005 0.28376184968198676 0.3344336085537701
v -0.87344 0 0.13616 0.2950927321990264 0.275419883385758 0.32460200541892903
v -0.91869 0.25 -0.10679 0.2950927321990264 0.275419883385758 0.32460200541892903
v -0.84675 0.25 0.13988 0.2950927321990264 0.275419883385758 0.32460200541892903
v -0.87344 0 0.13616 0.2950927321990264 0.275419883385758 0.32460200541892903
v -0.89149 0 -0.10395 0.2950927321990264 0.275419883385758 0.32460200541892903
v -0.91869 0.25 -0.10679 0.2950927321990264 0.275419883385758 0.32460200541892903
v -0.89149 0 -0.10395 0.27602058826060594 0.25761921570989893 0.3036226470866666
v -0.64843 0.25 -0.31511 0.27602058826060594 0.25761921570989893 0.3036226470866666
v -0.91869 0.25 -0.10679 0.27602058826060594 0.25761921570989893 0.3036226470866666
v -0.89149 0 -0.10395 0.27602058826060594 0.25761921570989893 0.3036226470866666
v -0.66526 0 -0.30672 0.27602058826060594 0.25761921570989893 0.3036226470866666
v -0.64843 0.25 -0.31511 0.27602058826060594 0.25761921570989893 0.3036226470866666
v -0.66526 0 -0.30672 0.28766961805216823 0.26849164351535704 0.31643657985738505
v -0.68871 0.25 -0.62515 0.28766961805216823 0.26849164351535704 0.31643657985738505
v -0.64843 0.25 -0.31511 0.28766961805216823 0.26849164351535704 0.31643657985738505
v -0.66526 0 -0.30672 0.28766961805216823 0.26849164351535704 0.31643657985738505
v -0.69172 0 -0.60852 0.28766961805216823 0.26849164351535704 0.31643657985738505
v -0.68871 0.25 -0.62515 0.28766961805216823 0.26849164351535704 0.31643657985738505
v -0.69172 0 -0.60852 0.27670116272588996 0.258254418544164 0.304371278998479
v -0.25957 0.25 -0.59248 0.27670116272588996 0.258254418544164 0.304371278998479
v -0.68871 0.25 -0.62515 0.27670116272588996 0.258254418544164 0.304371278998479
v -0.69172 0 -0.60852 0.27670116272588996 0.258254418544164 0.304371278998479
v -0.26417 0 -0.57672 0.27670116272588996 0.258254418544164 0.304371278998479
v -0.25957 0.25 -0.59248 0.27670116272588996 0.258254418544164 0.304371278998479
v -0.26417 0 -0.57672 0.3094475501855262 0.28881771350649116 0.34039230520407887
v -0.08617 0.25 -0.66176 0.3094475501855262 0.28881771350649116 0.34039230520407887
v -0.25957 0.25 -0.59248 0.3094475501855262 0.28881771350649116 0.34039230520407887
v -0.26417 0 -0.57672 0.3094475501855262 0.28881771350649116 0.34039230520407887
v -0.08899 0 -0.64415 0.3094475501855262 0.28881771350649116 0.34039230520407887
v -0.08617 0.25 -0.66176 0.3094475501855262 0.28881771350649116 0.34039230520407887
v -0.08899 0 -0.64415 0.30763398760163463 0.287125055094859 0.3383973863617981
v 0.17699 0.25 -0.82355 0.30763398760163463 0.287125055094859 0.3383973863617981
v -0.08617 0.25 -0.66176 0.30763398760163463 0.287125055094859 0.3383973863617981
v -0.08899 0 -0.64415 0.30763398760163463 0.287125055094859 0.3383973863617981
v 0.16028 0 -0.80164 0.30763398760163463 0.287125055094859 0.3383973863617981
v 0.17699 0.25 -0.82355 0.30763398760163463 0.287125055094859 0.3383973863617981
v 0.16028 0 -0.80164 0.3059399590570025 0.2855439617865357 0.3365339549627028
v 0.56021 0.25 -0.54012 0.3059399590570025 0.2855439617865357 0.3365339549627028
v 0.17699 0.25 -0.82355 0.3059399590570025 0.2855439617865357 0.3365339549627028
v 0.16028 0 -0.80164 0.3059399590570025 0.2855439617865357 0.3365339549627028
v 0.5407 0 -0.52575 0.3059399590570025 0.2855439617865357 0.3365339549627028
v 0.56021 0.25 -0.54012 0.3059399590570025 0.2855439617865357 0.3365339549627028
v 0.5407 0 -0.52575 0.28707050851449584 0.2679324746135295 0.3157775593659454
v 0.61802 0.25 -0.40907 0.28707050851449584 0.2679324746135295 0.3157775593659454
v 0.56021 0.25 -0.54012 0.28707050851449584 0.2679324746135295 0.3157775593659454
v 0.5407 0 -0.52575 0.28707050851449584 0.2679324746135295 0.3157775593659454
v 0.61681 0 -0.39819 0.28707050851449584 0.2679324746135295 0.3157775593659454
v 0.61802 0.25 -0.40907 0.28707050851449584 0.2679324746135295 0.3157775593659454
v 0.61681 0 -0.39819 0.2780853059937907 0.25954628559420473 0.3058938365931698
v 0.81551 0.25 -0.27578 0.2780853059937907 0.25954628559420473 0.3058938365931698
v 0.61802 0.25 -0.40907 0.2780853059937907 0.25954628559420473 0.3058938365931698
v 0.61681 0 -0.39819 0.2780853059937907 0.25954628559420473 0.3058938365931698
v 0.83088 0 -0.26844 0.2780853059937907 0.25954628559420473 0.3058938365931698
v 0.81551 0.25 -0.27578 0.2780853059937907 0.25954628559420473 0.3058938365931698
v 0.83088 0 -0.26844 0.3076083455713455 0.2871011225332558 0.33836918012848005
v 0.89755 0.25 0.0 0.3076083455713455 0.2871011225332558 0.33836918012848005
v 0.81551 0.25 -0.27578 0.3076083455713455 0.2871011225332558 0.33836918012848005
v 0.83088 0 -0.26844 0.3076083455713455 0.2871011225332558 0.33836918012848005
v 0.79876 0 0.0 0.3076083455713455 0.2871011225332558 0.33836918012848005
v 0.89755 0.25 0.0 0.3076083455713455 0.2871011225332558 0.33836918012848005
v 0.89755 0.25 0.0 0.3100901800307278 0.28941750136201266 0.3410991980338006
v 0.83016 0.6 0.20682 0.3100901800307278 0.28941750136201266 0.3410991980338006
v 0.86206 0.6 0.0 0.3100901800307278 0.28941750136201266 0.3410991980338006
v 0.89755 0.25 0.0 0.3100901800307278 0.28941750136201266 0.3410991980338006
v 0.88808 0.25 0.21247 0.3100901800307278 0.28941750136201266 0.3410991980338006
v 0.83016 0.6 0.20682 0.3100901800307278 0.28941750136201266 0.3410991980338006
v 0.88808 0.25 0.21247 0.27908352427444366 0.26047795598948076 0.30699187670188804
v 0.55913 0.6 0.39236 0.27908352427444366 0.26047795598948076 0.30699187670188804
v 0.83016 0.6 0.20682 0.27908352427444366 0.26047795598948076 0.30699187670188804
v 0.88808 0.25 0.21247 0.27908352427444366 0.26047795598948076 0.30699187670188804
v 0.5975 0.25 0.40309 0.27908352427444366 0.26047795598948076 0.30699187670188804
v 0.55913 0.6 0.39236 0.27908352427444366 0.26047795598948076 0.30699187670188804
v 0.5975 0.25 0.40309 0.2934956566793981 0.2739292795674383 0.3228452223473379
v 0.57498 0.6 0.69265 0.2934956566793981 0.2739292795674383 0.3228452223473379
v 0.55913 0.6 0.39236 0.2934956566793981 0.2739292795674383 0.3228452223473379
v 0.5975 0.25 0.40309 0.2934956566793981 0.2739292795674383 0.3228452223473379
v 0.54424 0.25 0.71158 0.2934956566793981 0.2739292795674383 0.3228452223473379
v 0.57498 0.6 0.69265 0.2934956566793981 0.2739292795674383 0.3228452223473379
v 0.54424 0.25 0.71158 0.2784916506648618 0.25992554062053774 0.306340815731348
v 0.16291 0.6 0.6157 0.2784916506648618 0.25992554062053774 0.306340815731348
v 0.57498 0.6 0.69265 0.2784916506648618 0.25992554062053774 0.306340815731348
v 0.54424 0.25 0.71158 0.2784916506648618 0.25992554062053774 0.306340815731348
v 0.15826 0.25 0.63253 0.2784916506648618 0.25992554062053774 0.306340815731348
v 0.16291 0.6 0.6157 0.2784916506648618 0.25992554062053774 0.306340815731348
v 0.15826 0.25 0.63253 0.30338167794926035 0.283156232752643 0.3337198457441864
v -0.08587 0.6 0.63848 0.30338167794926035 0.283156232752643 0.3337198457441864
v 0.16291 0.6 0.6157 0.30338167794926035 0.283156232752643 0.3337198457441864
v 0.15826 0.25 0.63253 0.30338167794926035 0.283156232752643 0.3337198457441864
v -0.08623 0.25 0.65593 0.30338167794926035 0.283156232752643 0.3337198457441864
v -0.08587 0.6 0.63848 0.30338167794926035 0.283156232752643 0.3337198457441864
v -0.08623 0.25 0.65593 0.30357003945505157 0.2833320368247148 0.33392704340055673
v -0.27531 0.6 0.75764 0.30357003945505157 0.2833320368247148 0.33392704340055673
v -0.08587 0.6 0.63848 0.30357003945505157 0.2833320368247148 0.33392704340055673
v -0.08623 0.25 0.65593 0.30357003945505157 0.2833320368247148 0.33392704340055673
v -0.26097 0.25 0.77834 0.30357003945505157 0.2833320368247148 0.33392704340055673
v -0.27531 0.6 0.75764 0.30357003945505157 0.2833320368247148 0.33392704340055673
v -0.26097 0.25 0.77834 0.28062209272199146 0.2619139532071921 0.3086843019941906
v -0.68053 0.6 0.46595 0.28062209272199146 0.2619139532071921 0.3086843019941906
v -0.27531 0.6 0.75764 0.28062209272199146 0.2619139532071921 0.3086843019941906
v -0.26097 0.25 0.77834 0.28062209272199146 0.2619139532071921 0.3086843019941906
v -0.66194 0.25 0.47869 0.28062209272199146 0.2619139532071921 0.3086843019941906
v -0.68053 0.6 0.46595 0.28062209272199146 0.2619139532071921 0.3086843019941906
v -0.66194 0.25 0.47869 0.29311016561155434 0.2735694879041174 0.32242118217270976
v -0.69371 0.6 0.30582 0.29311016561155434 0.2735694879041174 0.32242118217270976
v -0.68053 0.6 0.46595 0.29311016561155434 0.2735694879041174 0.32242118217270976
v -0.66194 0.25 0.47869 0.29311016561155434 0.2735694879041174 0.32242118217270976
v -0.65924 0.25 0.31418 0.29311016561155434 0.2735694879041174 0.32242118217270976
v -0.69371 0.6 0.30582 0.29311016561155434 0.2735694879041174 0.32242118217270976
v -0.65924 0.25 0.31418 0.29579292936581797 0.27607340074143016 0.3253722223023998
v -0.82 0.6 0.13616 0.29579292936581797 0.27607340074143016 0.3253722223023998
v -0.69371 0.6 0.30582 0.29579292936581797 0.27607340074143016 0.3253722223023998
v -0.65924 0.25 0.31418 0.29579292936581797 0.27607340074143016 0.3253722223023998
v -0.84675 0.25 0.13988 0.29579292936581797 0.27607340074143016 0.3253722223023998
v -0.82 0.6 0.13616 0.29579292936581797 0.27607340074143016 0.3253722223023998
v -0.84675 0.25 0.13988 0.28554203864184213 0.266505902732386 0.31409624250602636
v -0.8421 0.6 -0.10395 0.28554203864184213 0.266505902732386 0.31409624250602636
v -0.82 0.6 0.13616 0.28554203864184213 0.266505902732386 0.31409624250602636
v -0.84675 0.25 0.13988 0.28554203864184213 0.266505902732386 0.31409624250602636
v -0.91869 0.25 -0.10679 0.28554203864184213 0.266505902732386 0.31409624250602636
v -0.8421 0.6 -0.10395 0.28554203864184213 0.266505902732386 0.31409624250602636
v -0.91869 0.25 -0.10679 0.30740758947906927 0.28691375018046467 0.3381483484269762
v -0.62738 0.6 -0.30672 0.30740758947906927 0.28691375018046467 0.3381483484269762
v -0.8421 0.6 -0.10395 0.30740758947906927 0.28691375018046467 0.3381483484269762
v -0.91869 0.25 -0.10679 0.30740758947906927 0.28691375018046467 0.3381483484269762
v -0.64843 0.25 -0.31511 0.30740758947906927 0.28691375018046467 0.3381483484269762
v -0.62738 0.6 -0.30672 0.30740758947906927 0.28691375018046467 0.3381483484269762
v -0.64843 0.25 -0.31511 0.2912329658472319 0.2718174347907498 0.32035626243195514
v -0.66431 0.6 -0.60852 0.2912329658472319 0.2718174347907498 0.32035626243195514
v -0.62738 0.6 -0.30672 0.2912329658472319 0.2718174347907498 0.32035626243195514
v -0.64843 0.25 -0.31511 0.2912329658472319 0.2718174347907498 0.32035626243195514
v -0.68871 0.25 -0.62515 0.2912329658472319 0.2718174347907498 0.32035626243195514
v -0.66431 0.6 -0.60852 0.2912329658472319 0.2718174347907498 0.32035626243195514
v -0.68871 0.25 -0.62515 0.28362473539591493 0.264716419702854 0.31198720893550647
v -0.25272 0.6 -0.57672 0.28362473539591493 0.264716419702854 0.31198720893550647
v -0.66431 0.6 -0.60852 0.28362473539591493 0.264716419702854 0.31198720893550647
v -0.68871 0.25 -0.62515 0.28362473539591493 0.264716419702854 0.31198720893550647
v -0.25957 0.25 -0.59248 0.28362473539591493 0.264716419702854 0.31198720893550647
v -0.25272 0.6 -0.57672 0.28362473539591493 0.264716419702854 0.31198720893550647
v -0.25957 0.25 -0.59248 0.29541465919606047 0.2757203485829898 0.32495612511566657
v -0.08877 0.6 -0.64415 0.29541465919606047 0.2757203485829898 0.32495612511566657
v -0.25272 0.6 -0.57672 0.29541465919606047 0.2757203485829898 0.32495612511566657
v -0.25957 0.25 -0.59248 0.29541465919606047 0.2757203485829898 0.32495612511566657
v -0.08617 0.25 -0.66176 0.29541465919606047 0.2757203485829898 0.32495612511566657
v -0.08877 0.6 -0.64415 0.29541465919606047 0.2757203485829898 0.32495612511566657
v -0.08617 0.25 -0.66176 0.3022775184872391 0.28212568392142323 0.33250527033596305
v 0.17099 0.6 -0.80164 0.3022775184872391 0.28212568392142323 0.33250527033596305
v -0.08877 0.6 -0.64415 0.3022775184872391 0.28212568392142323 0.33250527033596305
v -0.08617 0.25 -0.66176 0.3022775184872391 0.28212568392142323 0.33250527033596305
v 0.17699 0.25 -0.82355 0.3022775184872391 0.28212568392142323 0.33250527033596305
v 0.17099 0.6 -0.80164 0.3022775184872391 0.28212568392142323 0.33250527033596305
v 0.17699 0.25 -0.82355 0.283241438282029 0.2643586757298938 0.311565582110232
v 0.52933 0.6 -0.52575 0.283241438282029 0.2643586757298938 0.311565582110232
v 0.17099 0.6 -0.80164 0.283241438282029 0.2643586757298938 0.311565582110232
v 0.17699 0.25 -0.82355 0.283241438282029 0.2643586757298938 0.311565582110232
v 0.56021 0.25 -0.54012 0.283241438282029 0.2643586757298938 0.311565582110232
v 0.52933 0.6 -0.52575 0.283241438282029 0.2643586757298938 0.311565582110232
v 0.56021 0.25 -0.54012 0.2872217864868322 0.2680736673877101 0.3159439651355155
v 0.60478 0.6 -0.39819 0.2872217864868322 0.2680736673877101 0.3159439651355155
v 0.52933 0.6 -0.52575 0.2872217864868322 0.2680736673877101 0.3159439651355155
v 0.56021 0.25 -0.54012 0.2872217864868322 0.2680736673877101 0.3159439651355155
v 0.61802 0.25 -0.40907 0.2872217864868322 0.2680736673877101 0.3159439651355155
v 0.60478 0.6 -0.39819 0.2872217864868322 0.2680736673877101 0.3159439651355155
v 0.61802 0.25 -0.40907 0.3118253768397922 0.29103701838380613 0.3430079145237715
v 0.81242 0.6 -0.26844 0.3118253768397922 0.29103701838380613 0.3430079145237715
v 0.60478 0.6 -0.39819 0.3118253768397922 0.29103701838380613 0.3430079145237715
v 0.61802 0.25 -0.40907 0.3118253768397922 0.29103701838380613 0.3430079145237715
v 0.81551 0.25 -0.27578 0.3118253768397922 0.29103701838380613 0.3430079145237715
v 0.81242 0.6 -0.26844 0.3118253768397922 0.29103701838380613 0.3430079145237715
v 0.81551 0.25 -0.27578 0.2993956100750203 0.27943590273668567 0.32933517108252236
v 0.86206 0.6 0.0 0.2993956100750203 0.27943590273668567 0.32933517108252236
v 0.81242 0.6 -0.26844 0.2993956100750203 0.27943590273668567 0.32933517108252236
v 0.81551 0.25 -0.27578 0.2993956100750203 0.27943590273668567 0.32933517108252236
v 0.89755 0.25 0.0 0.2993956100750203 0.27943590273668567 0.32933517108252236
v 0.86206 0.6 0.0 0.2993956100750203 0.27943590273668567 0.32933517108252236
v 0.86206 0.6 0.0 0.2217464182959008 0.2069633237428408 0.24392106012549092
v 0.76412 0.83 0.18492 0.2217464182959008 0.2069633237428408 0.24392106012549092
v 0.78528 0.83 0.0 0.2217464182959008 0.2069633237428408 0.24392106012549092
v 0.86206 0.6 0.0 0.2217464182959008 0.2069633237428408 0.24392106012549092
v 0.83016 0.6 0.20682 0.2217464182959008 0.2069633237428408 0.24392106012549092
v 0.76412 0.83 0.18492 0.2217464182959008 0.2069633237428408 0.24392106012549092
v 0.83016 0.6 0.20682 0.2239208750107338 0.2089928166766849 0.24631296251180718
v 0.49283 0.83 0.35081 0.2239208750107338 0.2089928166766849 0.24631296251180718
v 0.76412 0.83 0.18492 0.2239208750107338 0.2089928166766849 0.24631296251180718
v 0.83016 0.6 0.20682 0.2239208750107338 0.2089928166766849 0.24631296251180718
v 0.55913 0.6 0.39236 0.2239208750107338 0.2089928166766849 0.24631296251180718
v 0.49283 0.83 0.35081 0.2239208750107338 0.2089928166766849 0.24631296251180718
v 0.55913 0.6 0.39236 0.21307067479895575 0.19886596314569208 0.23437774227885136
v 0.48225 0.83 0.61928 0.21307067479895575 0.19886596314569208 0.23437774227885136
v 0.49283 0.83 0.35081 0.21307067479895575 0.19886596314569208 0.23437774227885136
v 0.55913 0.6 0.39236 0.21307067479895575 0.19886596314569208 0.23437774227885136
v 0.57498 0.6 0.69265 0.21307067479895575 0.19886596314569208 0.23437774227885136
v 0.48225 0.83 0.61928 0.21307067479895575 0.19886596314569208 0.23437774227885136
v 0.57498 0.6 0.69265 0.21590771914118342 0.2015138711984379 0.23749849105530177
v 0.14414 0.83 0.55049 0.21590771914118342 0.2015138711984379 0.23749849105530177
v 0.48225 0.83 0.61928 0.21590771914118342 0.2015138711984379 0.23749849105530177
v 0.57498 0.6 0.69265 0.21590771914118342 0.2015138711984379 0.23749849105530177
v 0.16291 0.6 0.6157 0.21590771914118342 0.2015138711984379 0.23749849105530177
v 0.14414 0.83 0.55049 0.21590771914118342 0.2015138711984379 0.23749849105530177
v 0.16291 0.6 0.6157 0.21901002098035438 0.20440935291499746 0.24091102307838982
v -0.07487 0.83 0.57086 0.21901002098035438 0.20440935291499746 0.24091102307838982
v 0.14414 0.83 0.55049 0.21901002098035438 0.20440935291499746 0.24091102307838982
v 0.16291 0.6 0.6157 0.21901002098035438 0.20440935291499746 0.24091102307838982
v -0.08587 0.6 0.63848 0.21901002098035438 0.20440935291499746 0.24091102307838982
v -0.07487 0.83 0.57086 0.21901002098035438 0.20440935291499746 0.24091102307838982
v -0.08587 0.6 0.63848 0.2258561265369899 0.21079905143452393 0.2484417391906889
v -0.243 0.83 0.67739 0.2258561265369899 0.21079905143452393 0.2484417391906889
v -0.07487 0.83 0.57086 0.2258561265369899 0.21079905143452393 0.2484417391906889
v -0.08587 0.6 0.63848 0.2258561265369899 0.21079905143452393 0.2484417391906889
v -0.27531 0.6 0.75764 0.2258561265369899 0.21079905143452393 0.2484417391906889
v -0.243 0.83 0.67739 0.2258561265369899 0.21079905143452393 0.2484417391906889
v -0.27531 0.6 0.75764 0.21605593908384232 0.2016522098115862 0.2376615329922266
v -0.61136 0.83 0.4166 0.21605593908384232 0.2016522098115862 0.2376615329922266
v -0.243 0.83 0.67739 0.21605593908384232 0.2016522098115862 0.2376615329922266
v -0.27531 0.6 0.75764 0.21605593908384232 0.2016522098115862 0.2376615329922266
v -0.68053 0.6 0.46595 0.21605593908384232 0.2016522098115862 0.2376615329922266
v -0.61136 0.83 0.4166 0.21605593908384232 0.2016522098115862 0.2376615329922266
v -0.68053 0.6 0.46595 0.2157851476385947 0.20139947112935508 0.23736366240245418
v -0.59429 0.83 0.27343 0.2157851476385947 0.20139947112935508 0.23736366240245418
v -0.61136 0.83 0.4166 0.2157851476385947 0.20139947112935508 0.23736366240245418
v -0.68053 0.6 0.46595 0.2157851476385947 0.20139947112935508 0.23736366240245418
v -0.69371 0.6 0.30582 0.2157851476385947 0.20139947112935508 0.23736366240245418
v -0.59429 0.83 0.27343 0.2157851476385947 0.20139947112935508 0.23736366240245418
v -0.69371 0.6 0.30582 0.21170237083320714 0.1975888794443267 0.2328726079165279
v -0.73239 0.83 0.12174 0.21170237083320714 0.1975888794443267 0.2328726079165279
v -0.59429 0.83 0.27343 0.21170237083320714 0.1975888794443267 0.2328726079165279
v -0.69371 0.6 0.30582 0.21170237083320714 0.1975888794443267 0.2328726079165279
v -0.82 0.6 0.13616 0.21170237083320714 0.1975888794443267 0.2328726079165279
v -0.73239 0.83 0.12174 0.21170237083320714 0.1975888794443267 0.2328726079165279
v -0.82 0.6 0.13616 0.2270269769109099 0.21189184511684928 0.24972967460200093
v -0.82749 0.83 -0.09294 0.2270269769109099 0.21189184511684928 0.24972967460200093
v -0.73239 0.83 0.12174 0.2270269769109099 0.21189184511684928 0.24972967460200093
v -0.82 0.6 0.13616 0.2270269769109099 0.21189184511684928 0.24972967460200093
v -0.8421 0.6 -0.10395 0.2270269769109099 0.21189184511684928 0.24972967460200093
v -0.82749 0.83 -0.09294 0.2270269769109099 0.21189184511684928 0.24972967460200093
v -0.8421 0.6 -0.10395 0.21602384720507317 0.20162225739140163 0.2376262319255805
v -0.57429 0.83 -0.27424 0.21602384720507317 0.20162225739140163 0.2376262319255805
v -0.82749 0.83 -0.09294 0.21602384720507317 0.20162225739140163 0.2376262319255805
v -0.8421 0.6 -0.10395 0.21602384720507317 0.20162225739140163 0.2376262319255805
v -0.62738 0.6 -0.30672 0.21602384720507317 0.20162225739140163 0.2376262319255805
v -0.57429 0.83 -0.27424 0.21602384720507317 0.20162225739140163 0.2376262319255805
v -0.62738 0.6 -0.30672 0.23453229155584765 0.2188968054521245 0.25798552071143244
v -0.58456 0.83 -0.54407 0.23453229155584765 0.2188968054521245 0.25798552071143244
v -0.57429 0.83 -0.27424 0.23453229155584765 0.2188968054521245 0.25798552071143244
v -0.62738 0.6 -0.30672 0.23453229155584765 0.2188968054521245 0.25798552071143244
v -0.66431 0.6 -0.60852 0.23453229155584765 0.2188968054521245 0.25798552071143244
v -0.58456 0.83 -0.54407 0.23453229155584765 0.2188968054521245 0.25798552071143244
v -0.66431 0.6 -0.60852 0.23327962455094253 0.21772764958087973 0.2566075870060368
v -0.2208 0.83 -0.51564 0.23327962455094253 0.21772764958087973 0.2566075870060368
v -0.58456 0.83 -0.54407 0.23327962455094253 0.21772764958087973 0.2566075870060368
v -0.66431 0.6 -0.60852 0.23327962455094253 0.21772764958087973 0.2566075870060368
v -0.25272 0.6 -0.57672 0.23327962455094253 0.21772764958087973 0.2566075870060368
v -0.2208 0.83 -0.51564 0.23327962455094253 0.21772764958087973 0.2566075870060368
v -0.25272 0.6 -0.57672 0.21169865709295357 0.1975854132867567 0.23286852280224893
v -0.07398 0.83 -0.57593 0.21169865709295357 0.1975854132867567 0.23286852280224893
v -0.2208 0.83 -0.51564 0.21169865709295357 0.1975854132867567 0.23286852280224893
v -0.25272 0.6 -0.57672 0.21169865709295357 0.1975854132867567 0.23286852280224893
v -0.08877 0.6 -0.64415 0.21169865709295357 0.1975854132867567 0.23286852280224893
v -0.07398 0.83 -0.57593 0.21169865709295357 0.1975854132867567 0.23286852280224893
v -0.08877 0.6 -0.64415 0.2162718067963357 0.20185368634324669 0.2378989874759693
v 0.14809 0.83 -0.71673 0.2162718067963357 0.20185368634324669 0.2378989874759693
v -0.07398 0.83 -0.57593 0.2162718067963357 0.20185368634324669 0.2378989874759693
v -0.08877 0.6 -0.64415 0.2162718067963357 0.20185368634324669 0.2378989874759693
v 0.17099 0.6 -0.80164 0.2162718067963357 0.20185368634324669 0.2378989874759693
v 0.14809 0.83 -0.71673 0.2162718067963357 0.20185368634324669 0.2378989874759693
v 0.17099 0.6 -0.80164 0.22806323201418624 0.21285901654657385 0.2508695552156049
v 0.49372 0.83 -0.47007 0.22806323201418624 0.21285901654657385 0.2508695552156049
v 0.14809 0.83 -0.71673 0.22806323201418624 0.21285901654657385 0.2508695552156049
v 0.17099 0.6 -0.80164 0.22806323201418624 0.21285901654657385 0.2508695552156049
v 0.52933 0.6 -0.52575 0.22806323201418624 0.21285901654657385 0.2508695552156049
v 0.49372 0.83 -0.47007 0.22806323201418624 0.21285901654657385 0.2508695552156049
v 0.52933 0.6 -0.52575 0.21562151904965518 0.20124675111301155 0.23718367095462073
v 0.5263 0.83 -0.35601 0.21562151904965518 0.20124675111301155 0.23718367095462073
v 0.49372 0.83 -0.47007 0.21562151904965518 0.20124675111301155 0.23718367095462073
v 0.52933 0.6 -0.52575 0.21562151904965518 0.20124675111301155 0.23718367095462073
v 0.60478 0.6 -0.39819 0.21562151904965518 0.20124675111301155 0.23718367095462073
v 0.5263 0.83 -0.35601 0.21562151904965518 0.20124675111301155 0.23718367095462073
v 0.60478 0.6 -0.39819 0.2133800521811167 0.19915471536904228 0.23471805739922838
v 0.70176 0.83 -0.24001 0.2133800521811167 0.19915471536904228 0.23471805739922838
v 0.5263 0.83 -0.35601 0.2133800521811167 0.19915471536904228 0.23471805739922838
v 0.60478 0.6 -0.39819 0.2133800521811167 0.19915471536904228 0.23471805739922838
v 0.81242 0.6 -0.26844 0.2133800521811167 0.19915471536904228 0.23471805739922838
v 0.70176 0.83 -0.24001 0.2133800521811167 0.19915471536904228 0.23471805739922838
v 0.81242 0.6 -0.26844 0.23535566962228716 0.21966529164746806 0.2588912365845159
v 0.78528 0.83 0.0 0.23535566962228716 0.21966529164746806 0.2588912365845159
v 0.70176 0.83 -0.24001 0.23535566962228716 0.21966529164746806 0.2588912365845159
v 0.81242 0.6 -0.26844 0.23535566962228716 0.21966529164746806 0.2588912365845159
v 0.86206 0.6 0.0 0.23535566962228716 0.21966529164746806 0.2588912365845159
v 0.78528 0.83 0.0 0.23535566962228716 0.21966529164746806 0.2588912365845159
v 0 0.95 0 0.32 0.3 0.35
v 0.76412 0.83 0.18492 0.32 0.3 0.35
v 0.78528 0.83 0.0 0.32 0.3 0.35
v 0 0.95 0 0.32 0.3 0.35
v 0.49283 0.83 0.35081 0.32 0.3 0.35
v 0.76412 0.83 0.18492 0.32 0.3 0.35
v 0 0.95 0 0.32 0.3 0.35
v 0.48225 0.83 0.61928 0.32 0.3 0.35
v 0.49283 0.83 0.35081 0.32 0.3 0.35
v 0 0.95 0 0.32 0.3 0.35
v 0.14414 0.83 0.55049 0.32 0.3 0.35
v 0.48225 0.83 0.61928 0.32 0.3 0.35
v 0 0.95 0 0.32 0.3 0.35
v -0.07487 0.83 0.57086 0.32 0.3 0.35
v 0.14414 0.83 0.55049 0.32 0.3 0.35
v 0 0.95 0 0.32 0.3 0.35
v -0.243 0.83 0.67739 0.32 0.3 0.35
v -0.07487 0.83 0.57086 0.32 0.3 0.35
v 0 0.95 0 0.32 0.3 0.35
v -0.61136 0.83 0.4166 0.32 0.3 0.35
v -0.243 0.83 0.67739 0.32 0.3 0.35
v 0 0.95 0 0.32 0.3 0.35
v -0.59429 0.83 0.27343 0.32 0.3 0.35
v -0.61136 0.83 0.4166 0.32 0.3 0.35
v 0 0.95 0 0.32 0.3 0.35
v -0.73239 0.83 0.12174 0.32 0.3 0.35
v -0.59429 0.83 0.27343 0.32 0.3 0.35
v 0 0.95 0 0.32 0.3 0.35
v -0.82749 0.83 -0.09294 0.32 0.3 0.35
v -0.73239 0.83 0.12174 0.32 0.3 0.35
v 0 0.95 0 0.32 0.3 0.35
v -0.57429 0.83 -0.27424 0.32 0.3 0.35
v -0.82749 0.83 -0.09294 0.32 0.3 0.35
v 0 0.95 0 0.32 0.3 0.35
v -0.58456 0.83 -0.54407 0.32 0.3 0.35
v -0.57429 0.83 -0.27424 0.32 0.3 0.35
v 0 0.95 0 0.32 0.3 0.35
v -0.2208 0.83 -0.51564 0.32 0.3 0.35
v -0.58456 0.83 -0.54407 0.32 0.3 0.35
v 0 0.95 0 0.32 0.3 0.35
v -0.07398 0.83 -0.57593 0.32 0.3 0.35
v -0.2208 0.83 -0.51564 0.32 0.3 0.35
v 0 0.95 0 0.32 0.3 0.35
v 0.14809 0.83 -0.71673 0.32 0.3 0.35
v -0.07398 0.83 -0.57593 0.32 0.3 0.35
v 0 0.95 0 0.32 0.3 0.35
v 0.49372 0.83 -0.47007 0.32 0.3 0.35
v 0.14809 0.83 -0.71673 0.32 0.3 0.35
v 0 0.95 0 0.32 0.3 0.35
v 0.5263 0.83 -0.35601 0.32 0.3 0.35
v 0.49372 0.83 -0.47007 0.32 0.3 0.35
v 0 0.95 0 0.32 0.3 0.35
v 0.70176 0.83 -0.24001 0.32 0.3 0.35
v 0.5263 0.83 -0.35601 0.32 0.3 0.35
v 0 0.95 0 0.32 0.3 0.35
v 0.78528 0.83 0.0 0.32 0.3 0.35
v 0.70176 0.83 -0.24001 0.32 0.3 0.35
v 0 -0.45 0 0.22 0.2 0.26
v 0.76373 -0.3 0.0 0.22 0.2 0.26
v 0.73198 -0.3 0.18492 0.22 0.2 0.26
v 0 -0.45 0 0.22 0.2 0.26
v 0.73198 -0.3 0.18492 0.22 0.2 0.26
v 0.49346 -0.3 0.35081 0.22 0.2 0.26
v 0 -0.45 0 0.22 0.2 0.26
v 0.49346 -0.3 0.35081 0.22 0.2 0.26
v 0.48125 -0.3 0.61928 0.22 0.2 0.26
v 0 -0.45 0 0.22 0.2 0.26
v 0.48125 -0.3 0.61928 0.22 0.2 0.26
v 0.14751 -0.3 0.55049 0.22 0.2 0.26
v 0 -0.45 0 0.22 0.2 0.26
v 0.14751 -0.3 0.55049 0.22 0.2 0.26
v -0.07755 -0.3 0.57086 0.22 0.2 0.26
v 0 -0.45 0 0.22 0.2 0.26
v -0.07755 -0.3 0.57086 0.22 0.2 0.26
v -0.25268 -0.3 0.67739 0.22 0.2 0.26
v 0 -0.45 0 0.22 0.2 0.26
v -0.25268 -0.3 0.67739 0.22 0.2 0.26
v -0.56834 -0.3 0.4166 0.22 0.2 0.26
v 0 -0.45 0 0.22 0.2 0.26
v -0.56834 -0.3 0.4166 0.22 0.2 0.26
v -0.59584 -0.3 0.27343 0.22 0.2 0.26
v 0 -0.45 0 0.22 0.2 0.26
v -0.59584 -0.3 0.27343 0.22 0.2 0.26
v -0.71775 -0.3 0.12174 0.22 0.2 0.26
v 0 -0.45 0 0.22 0.2 0.26
v -0.71775 -0.3 0.12174 0.22 0.2 0.26
v -0.76731 -0.3 -0.09294 0.22 0.2 0.26
v 0 -0.45 0 0.22 0.2 0.26
v -0.76731 -0.3 -0.09294 0.22 0.2 0.26
v -0.57401 -0.3 -0.27424 0.22 0.2 0.26
v 0 -0.45 0 0.22 0.2 0.26
v -0.57401 -0.3 -0.27424 0.22 0.2 0.26
v -0.58115 -0.3 -0.54407 0.22 0.2 0.26
v 0 -0.45 0 0.22 0.2 0.26
v -0.58115 -0.3 -0.54407 0.22 0.2 0.26
v -0.22557 -0.3 -0.51564 0.22 0.2 0.26
v 0 -0.45 0 0.22 0.2 0.26
v -0.22557 -0.3 -0.51564 0.22 0.2 0.26
v -0.07747 -0.3 -0.57593 0.22 0.2 0.26
v 0 -0.45 0 0.22 0.2 0.26
v -0.07747 -0.3 -0.57593 0.22 0.2 0.26
v 0.14651 -0.3 -0.71673 0.22 0.2 0.26
v 0 -0.45 0 0.22 0.2 0.26
v 0.14651 -0.3 -0.71673 0.22 0.2 0.26
v 0.46923 -0.3 -0.47007 0.22 0.2 0.26
v 0 -0.45 0 0.22 0.2 0.26
v 0.46923 -0.3 -0.47007 0.22 0.2 0.26
v 0.53663 -0.3 -0.35601 0.22 0.2 0.26
v 0 -0.45 0 0.22 0.2 0.26
v 0.53663 -0.3 -0.35601 0.22 0.2 0.26
v 0.75702 -0.3 -0.24001 0.22 0.2 0.26
v 0 -0.45 0 0.22 0.2 0.26
v 0.75702 -0.3 -0.24001 0.22 0.2 0.26
v 0.76373 -0.3 0.0 0.22 0.2 0.26
f 1 2 3
f 4 5 6
f 7 8 9
f 10 11 12
f 13 14 15
f 16 17 18
f 19 20 21
f 22 23 24
f 25 26 27
f 28 29 30
f 31 32 33
f 34 35 36
f 37 38 39
f 40 41 42
f 43 44 45
f 46 47 48
f 49 50 51
f 52 53 54
f 55 56 57
f 58 59 60
f 61 62 63
f 64 65 66
f 67 68 69
f 70 71 72
f 73 74 75
f 76 77 78
f 79 80 81
f 82 83 84
f 85 86 87
f 88 89 90
f 91 92 93
f 94 95 96
f 97 98 99
f 100 101 102
f 103 104 105
f 106 107 108
f 109 110 111
f 112 113 114
f 115 116 117
f 118 119 120
f 121 122 123
f 124 125 126
f 127 128 129
f 130 131 132
f 133 134 135
f 136 137 138
f 139 140 141
f 142 143 144
f 145 146 147
f 148 149 150
f 151 152 153
f 154 155 156
f 157 158 159
f 160 161 162
f 163 164 165
f 166 167 168
f 169 170 171
f 172 173 174
f 175 176 177
f 178 179 180
f 181 182 183
f 184 185 186
f 187 188 189
f 190 191 192
f 193 194 195
f 196 197 198
f 199 200 201
f 202 203 204
f 205 206 207
f 208 209 210
f 211 212 213
f 214 215 216
f 217 218 219
f 220 221 222
f 223 224 225
f 226 227 228
f 229 230 231
f 232 233 234
f 235 236 237
f 238 239 240
f 241 242 243
f 244 245 246
f 247 248 249
f 250 251 252
f 253 254 255
f 256 257 258
f 259 260 261
f 262 263 264
f 265 266 267
f 268 269 270
f 271 272 273
f 274 275 276
f 277 278 279
f 280 281 282
f 283 284 285
f 286 287 288
f 289 290 291
f 292 293 294
f 295 296 297
f 298 299 300
f 301 302 303
f 304 305 306
f 307 308 309
f 310 311 312
f 313 314 315
f 316 317 318
f 319 320 321
f 322 323 324
f 325 326 327
f 328 329 330
f 331 332 333
f 334 335 336
f 337 338 339
f 340 341 342
f 343 344 345
f 346 347 348
f 349 350 351
f 352 353 354
f 355 356 357
f 358 359 360
f 361 362 363
f 364 365 366
f 367 368 369
f 370 371 372
f 373 374 375
f 376 377 378
f 379 380 381
f 382 383 384
f 385 386 387
f 388 389 390
f 391 392 393
f 394 395 396
f 397 398 399
f 400 401 402
f 403 404 405
f 406 407 408
f 409 410 411
f 412 413 414
f 415 416 417
f 418 419 420
f 421 422 423
f 424 425 426
f 427 428 429
f 430 431 432
f 433 434 435
f 436 437 438
f 439 440 441
f 442 443 444
f 445 446 447
f 448 449 450
f 451 452 453
f 454 455 456
f 457 458 459
f 460 461 462
f 463 464 465
f 466 467 468
f 469 470 471
f 472 473 474
f 475 476 477
f 478 479 480
f 481 482 483
f 484 485 486
f 487 488 489
f 490 491 492
f 493 494 495
f 496 497 498
f 499 500 501
f 502 503 504
f 505 506 507
f 508 509 510
f 511 512 513
f 514 515 516
f 517 518 519
f 520 521 522
f 523 524 525
f 526 527 528
f 529 530 531
f 532 533 534
f 535 536 537
f 538 539 540
f 541 542 543
f 544 545 546
f 547 548 549
f 550 551 552
f 553 554 555
f 556 557 558
f 559 560 561
f 562 563 564
f 565 566 567
f 568 569 570
