# R3 authored topology; reference 05-forest.png;06-river-wetland.png
v 0.76373 -0.3 0.0 0.31162284062291745 0.29084798458138966 0.3427851246852092
v 0.76281 0 0.31848 0.31162284062291745 0.29084798458138966 0.3427851246852092
v 0.80051 0 0.0 0.31162284062291745 0.29084798458138966 0.3427851246852092
v 0.76373 -0.3 0.0 0.31162284062291745 0.29084798458138966 0.3427851246852092
v 0.67023 -0.3 0.28475 0.31162284062291745 0.29084798458138966 0.3427851246852092
v 0.76281 0 0.31848 0.31162284062291745 0.29084798458138966 0.3427851246852092
v 0.67023 -0.3 0.28475 0.29903999135474735 0.2791039919310976 0.3289439904902221
v 0.36611 0 0.55322 0.29903999135474735 0.2791039919310976 0.3289439904902221
v 0.76281 0 0.31848 0.29903999135474735 0.2791039919310976 0.3289439904902221
v 0.67023 -0.3 0.28475 0.29903999135474735 0.2791039919310976 0.3289439904902221
v 0.31265 -0.3 0.49463 0.29903999135474735 0.2791039919310976 0.3289439904902221
v 0.36611 0 0.55322 0.29903999135474735 0.2791039919310976 0.3289439904902221
v 0.31265 -0.3 0.49463 0.2960501907758873 0.27631351139082816 0.325655209853476
v 0.0 0 0.82737 0.2960501907758873 0.27631351139082816 0.325655209853476
v 0.36611 0 0.55322 0.2960501907758873 0.27631351139082816 0.325655209853476
v 0.31265 -0.3 0.49463 0.2960501907758873 0.27631351139082816 0.325655209853476
v 0.0 -0.3 0.73974 0.2960501907758873 0.27631351139082816 0.325655209853476
v 0.0 0 0.82737 0.2960501907758873 0.27631351139082816 0.325655209853476
v 0.0 -0.3 0.73974 0.3006461130356355 0.2806030388332598 0.33071072433919907
v -0.31344 0 0.55004 0.3006461130356355 0.2806030388332598 0.33071072433919907
v 0.0 0 0.82737 0.3006461130356355 0.2806030388332598 0.33071072433919907
v 0.0 -0.3 0.73974 0.3006461130356355 0.2806030388332598 0.33071072433919907
v -0.30045 -0.3 0.49178 0.3006461130356355 0.2806030388332598 0.33071072433919907
v -0.31344 0 0.55004 0.3006461130356355 0.2806030388332598 0.33071072433919907
v -0.30045 -0.3 0.49178 0.3063426691268331 0.2859198245183776 0.33697693603951645
v -0.90297 0 0.32034 0.3063426691268331 0.2859198245183776 0.33697693603951645
v -0.31344 0 0.55004 0.3063426691268331 0.2859198245183776 0.33697693603951645
v -0.30045 -0.3 0.49178 0.3063426691268331 0.2859198245183776 0.33697693603951645
v -0.81326 -0.3 0.28641 0.3063426691268331 0.2859198245183776 0.33697693603951645
v -0.90297 0 0.32034 0.3063426691268331 0.2859198245183776 0.33697693603951645
v -0.81326 -0.3 0.28641 0.3039359968156648 0.28367359702795386 0.3343295964972313
v -0.69631 0 0.0 0.3039359968156648 0.28367359702795386 0.3343295964972313
v -0.90297 0 0.32034 0.3039359968156648 0.28367359702795386 0.3343295964972313
v -0.81326 -0.3 0.28641 0.3039359968156648 0.28367359702795386 0.3343295964972313
v -0.62904 -0.3 0.0 0.3039359968156648 0.28367359702795386 0.3343295964972313
v -0.69631 0 0.0 0.3039359968156648 0.28367359702795386 0.3343295964972313
v -0.62904 -0.3 0.0 0.28424573059070773 0.26529601521799395 0.31267030364977855
v -0.80672 0 -0.31666 0.28424573059070773 0.26529601521799395 0.31267030364977855
v -0.69631 0 0.0 0.28424573059070773 0.26529601521799395 0.31267030364977855
v -0.62904 -0.3 0.0 0.28424573059070773 0.26529601521799395 0.31267030364977855
v -0.72673 -0.3 -0.28312 0.28424573059070773 0.26529601521799395 0.31267030364977855
v -0.80672 0 -0.31666 0.28424573059070773 0.26529601521799395 0.31267030364977855
v -0.72673 -0.3 -0.28312 0.27715560878054535 0.2586785681951757 0.3048711696585999
v -0.39569 0 -0.55647 0.27715560878054535 0.2586785681951757 0.3048711696585999
v -0.80672 0 -0.31666 0.27715560878054535 0.2586785681951757 0.3048711696585999
v -0.72673 -0.3 -0.28312 0.27715560878054535 0.2586785681951757 0.3048711696585999
v -0.33875 -0.3 -0.49753 0.27715560878054535 0.2586785681951757 0.3048711696585999
v -0.39569 0 -0.55647 0.27715560878054535 0.2586785681951757 0.3048711696585999
v -0.33875 -0.3 -0.49753 0.28735630973012694 0.26819922241478517 0.3160919407031397
v -0.0 0 -0.82723 0.28735630973012694 0.26819922241478517 0.3160919407031397
v -0.39569 0 -0.55647 0.28735630973012694 0.26819922241478517 0.3160919407031397
v -0.33875 -0.3 -0.49753 0.28735630973012694 0.26819922241478517 0.3160919407031397
v -0.0 -0.3 -0.73961 0.28735630973012694 0.26819922241478517 0.3160919407031397
v -0.0 0 -0.82723 0.28735630973012694 0.26819922241478517 0.3160919407031397
v -0.0 -0.3 -0.73961 0.2856386715351253 0.2665960934327836 0.31420253868863784
v 0.44037 0 -0.54693 0.2856386715351253 0.2665960934327836 0.31420253868863784
v -0.0 0 -0.82723 0.2856386715351253 0.2665960934327836 0.31420253868863784
v -0.0 -0.3 -0.73961 0.2856386715351253 0.2665960934327836 0.31420253868863784
v 0.38896 -0.3 -0.489 0.2856386715351253 0.2665960934327836 0.31420253868863784
v 0.44037 0 -0.54693 0.2856386715351253 0.2665960934327836 0.31420253868863784
v 0.38896 -0.3 -0.489 0.28359538236910775 0.2646890235445006 0.31195492060601854
v 0.60565 0 -0.32222 0.28359538236910775 0.2646890235445006 0.31195492060601854
v 0.44037 0 -0.54693 0.28359538236910775 0.2646890235445006 0.31195492060601854
v 0.38896 -0.3 -0.489 0.28359538236910775 0.2646890235445006 0.31195492060601854
v 0.56523 -0.3 -0.28809 0.28359538236910775 0.2646890235445006 0.31195492060601854
v 0.60565 0 -0.32222 0.28359538236910775 0.2646890235445006 0.31195492060601854
v 0.56523 -0.3 -0.28809 0.30994474971606195 0.28928176640165787 0.3409392246876682
v 0.80051 0 0.0 0.30994474971606195 0.28928176640165787 0.3409392246876682
v 0.60565 0 -0.32222 0.30994474971606195 0.28928176640165787 0.3409392246876682
v 0.56523 -0.3 -0.28809 0.30994474971606195 0.28928176640165787 0.3409392246876682
v 0.76373 -0.3 0.0 0.30994474971606195 0.28928176640165787 0.3409392246876682
v 0.80051 0 0.0 0.30994474971606195 0.28928176640165787 0.3409392246876682
v 0.80051 0 0.0 0.3075492345530161 0.2870459522494817 0.33830415800831776
v 0.7944 0.25 0.32719 0.3075492345530161 0.2870459522494817 0.33830415800831776
v 0.90615 0.25 0.0 0.3075492345530161 0.2870459522494817 0.33830415800831776
v 0.80051 0 0.0 0.3075492345530161 0.2870459522494817 0.33830415800831776
v 0.76281 0 0.31848 0.3075492345530161 0.2870459522494817 0.33830415800831776
v 0.7944 0.25 0.32719 0.3075492345530161 0.2870459522494817 0.33830415800831776
v 0.76281 0 0.31848 0.2873284037087452 0.2681731767948289 0.3160612440796198
v 0.35105 0.25 0.56834 0.2873284037087452 0.2681731767948289 0.3160612440796198
v 0.7944 0.25 0.32719 0.2873284037087452 0.2681731767948289 0.3160612440796198
v 0.76281 0 0.31848 0.2873284037087452 0.2681731767948289 0.3160612440796198
v 0.36611 0 0.55322 0.2873284037087452 0.2681731767948289 0.3160612440796198
v 0.35105 0.25 0.56834 0.2873284037087452 0.2681731767948289 0.3160612440796198
v 0.36611 0 0.55322 0.2995957919506157 0.279622739153908 0.3295553711456773
v 0.0 0.25 0.84998 0.2995957919506157 0.279622739153908 0.3295553711456773
v 0.35105 0.25 0.56834 0.2995957919506157 0.279622739153908 0.3295553711456773
v 0.36611 0 0.55322 0.2995957919506157 0.279622739153908 0.3295553711456773
v 0.0 0 0.82737 0.2995957919506157 0.279622739153908 0.3295553711456773
v 0.0 0.25 0.84998 0.2995957919506157 0.279622739153908 0.3295553711456773
v 0.0 0 0.82737 0.29024274843818393 0.27089323187563835 0.31926702328200235
v -0.35022 0.25 0.56508 0.29024274843818393 0.27089323187563835 0.31926702328200235
v 0.0 0.25 0.84998 0.29024274843818393 0.27089323187563835 0.31926702328200235
v 0.0 0 0.82737 0.29024274843818393 0.27089323187563835 0.31926702328200235
v -0.31344 0 0.55004 0.29024274843818393 0.27089323187563835 0.31926702328200235
v -0.35022 0.25 0.56508 0.29024274843818393 0.27089323187563835 0.31926702328200235
v -0.31344 0 0.55004 0.30892371323065954 0.2883287990152823 0.33981608455372553
v -0.92877 0.25 0.32909 0.30892371323065954 0.2883287990152823 0.33981608455372553
v -0.35022 0.25 0.56508 0.30892371323065954 0.2883287990152823 0.33981608455372553
v -0.31344 0 0.55004 0.30892371323065954 0.2883287990152823 0.33981608455372553
v -0.90297 0 0.32034 0.30892371323065954 0.2883287990152823 0.33981608455372553
v -0.92877 0.25 0.32909 0.30892371323065954 0.2883287990152823 0.33981608455372553
v -0.90297 0 0.32034 0.29251866669314636 0.27301742224693665 0.32177053336246103
v -0.71513 0.25 0.0 0.29251866669314636 0.27301742224693665 0.32177053336246103
v -0.92877 0.25 0.32909 0.29251866669314636 0.27301742224693665 0.32177053336246103
v -0.90297 0 0.32034 0.29251866669314636 0.27301742224693665 0.32177053336246103
v -0.69631 0 0.0 0.29251866669314636 0.27301742224693665 0.32177053336246103
v -0.71513 0.25 0.0 0.29251866669314636 0.27301742224693665 0.32177053336246103
v -0.69631 0 0.0 0.28553568599392987 0.2664999735943346 0.3140892545933229
v -0.88514 0.25 -0.32532 0.28553568599392987 0.2664999735943346 0.3140892545933229
v -0.71513 0.25 0.0 0.28553568599392987 0.2664999735943346 0.3140892545933229
v -0.69631 0 0.0 0.28553568599392987 0.2664999735943346 0.3140892545933229
v -0.80672 0 -0.31666 0.28553568599392987 0.2664999735943346 0.3140892545933229
v -0.88514 0.25 -0.32532 0.28553568599392987 0.2664999735943346 0.3140892545933229
v -0.80672 0 -0.31666 0.2848785902769834 0.26588668425851786 0.31336644930468177
v -0.39437 0.25 -0.57167 0.2848785902769834 0.26588668425851786 0.31336644930468177
v -0.88514 0.25 -0.32532 0.2848785902769834 0.26588668425851786 0.31336644930468177
v -0.80672 0 -0.31666 0.2848785902769834 0.26588668425851786 0.31336644930468177
v -0.39569 0 -0.55647 0.2848785902769834 0.26588668425851786 0.31336644930468177
v -0.39437 0.25 -0.57167 0.2848785902769834 0.26588668425851786 0.31336644930468177
v -0.39569 0 -0.55647 0.2962092528298734 0.2764619693078819 0.3258301781128608
v -0.0 0.25 -0.84983 0.2962092528298734 0.2764619693078819 0.3258301781128608
v -0.39437 0.25 -0.57167 0.2962092528298734 0.2764619693078819 0.3258301781128608
v -0.39569 0 -0.55647 0.2962092528298734 0.2764619693078819 0.3258301781128608
v -0.0 0 -0.82723 0.2962092528298734 0.2764619693078819 0.3258301781128608
v -0.0 0.25 -0.84983 0.2962092528298734 0.2764619693078819 0.3258301781128608
v -0.0 0 -0.82723 0.28545869790682565 0.2664281180463707 0.3140045676975083
v 0.45412 0.25 -0.56187 0.28545869790682565 0.2664281180463707 0.3140045676975083
v -0.0 0.25 -0.84983 0.28545869790682565 0.2664281180463707 0.3140045676975083
v -0.0 0 -0.82723 0.28545869790682565 0.2664281180463707 0.3140045676975083
v 0.44037 0 -0.54693 0.28545869790682565 0.2664281180463707 0.3140045676975083
v 0.45412 0.25 -0.56187 0.28545869790682565 0.2664281180463707 0.3140045676975083
v 0.44037 0 -0.54693 0.2970450956480475 0.277242089271511 0.32674960521285223
v 0.6531 0.25 -0.33103 0.2970450956480475 0.277242089271511 0.32674960521285223
v 0.45412 0.25 -0.56187 0.2970450956480475 0.277242089271511 0.32674960521285223
v 0.44037 0 -0.54693 0.2970450956480475 0.277242089271511 0.32674960521285223
v 0.60565 0 -0.32222 0.2970450956480475 0.277242089271511 0.32674960521285223
v 0.6531 0.25 -0.33103 0.2970450956480475 0.277242089271511 0.32674960521285223
v 0.60565 0 -0.32222 0.3083216238096892 0.28776684888904325 0.3391537861906581
v 0.90615 0.25 0.0 0.3083216238096892 0.28776684888904325 0.3391537861906581
v 0.6531 0.25 -0.33103 0.3083216238096892 0.28776684888904325 0.3391537861906581
v 0.60565 0 -0.32222 0.3083216238096892 0.28776684888904325 0.3391537861906581
v 0.80051 0 0.0 0.3083216238096892 0.28776684888904325 0.3391537861906581
v 0.90615 0.25 0.0 0.3083216238096892 0.28776684888904325 0.3391537861906581
v 0.90615 0.25 0.0 0.2903784181850543 0.27101985697271735 0.31941626000355977
v 0.79466 0.6 0.31848 0.2903784181850543 0.27101985697271735 0.31941626000355977
v 0.87085 0.6 0.0 0.2903784181850543 0.27101985697271735 0.31941626000355977
v 0.90615 0.25 0.0 0.2903784181850543 0.27101985697271735 0.31941626000355977
v 0.7944 0.25 0.32719 0.2903784181850543 0.27101985697271735 0.31941626000355977
v 0.79466 0.6 0.31848 0.2903784181850543 0.27101985697271735 0.31941626000355977
v 0.7944 0.25 0.32719 0.2838955473296622 0.26496917750768473 0.31228510206262844
v 0.37539 0.6 0.55322 0.2838955473296622 0.26496917750768473 0.31228510206262844
v 0.79466 0.6 0.31848 0.2838955473296622 0.26496917750768473 0.31228510206262844
v 0.7944 0.25 0.32719 0.2838955473296622 0.26496917750768473 0.31228510206262844
v 0.35105 0.25 0.56834 0.2838955473296622 0.26496917750768473 0.31228510206262844
v 0.37539 0.6 0.55322 0.2838955473296622 0.26496917750768473 0.31228510206262844
v 0.35105 0.25 0.56834 0.311911353833824 0.29111726357823575 0.34310248921720643
v 0.0 0.6 0.82737 0.311911353833824 0.29111726357823575 0.34310248921720643
v 0.37539 0.6 0.55322 0.311911353833824 0.29111726357823575 0.34310248921720643
v 0.35105 0.25 0.56834 0.311911353833824 0.29111726357823575 0.34310248921720643
v 0.0 0.25 0.84998 0.311911353833824 0.29111726357823575 0.34310248921720643
v 0.0 0.6 0.82737 0.311911353833824 0.29111726357823575 0.34310248921720643
v 0.0 0.25 0.84998 0.2943429465723527 0.27472008346752924 0.323777241229588
v -0.33464 0.6 0.55004 0.2943429465723527 0.27472008346752924 0.323777241229588
v 0.0 0.6 0.82737 0.2943429465723527 0.27472008346752924 0.323777241229588
v 0.0 0.25 0.84998 0.2943429465723527 0.27472008346752924 0.323777241229588
v -0.35022 0.25 0.56508 0.2943429465723527 0.27472008346752924 0.323777241229588
v -0.33464 0.6 0.55004 0.2943429465723527 0.27472008346752924 0.323777241229588
v -0.35022 0.25 0.56508 0.2792727388382566 0.26065455624903955 0.3072000127220823
v -0.86174 0.6 0.32034 0.2792727388382566 0.26065455624903955 0.3072000127220823
v -0.33464 0.6 0.55004 0.2792727388382566 0.26065455624903955 0.3072000127220823
v -0.35022 0.25 0.56508 0.2792727388382566 0.26065455624903955 0.3072000127220823
v -0.92877 0.25 0.32909 0.2792727388382566 0.26065455624903955 0.3072000127220823
v -0.86174 0.6 0.32034 0.2792727388382566 0.26065455624903955 0.3072000127220823
v -0.92877 0.25 0.32909 0.27769618951529046 0.2591831102142711 0.30546580846681953
v -0.64536 0.6 0.0 0.27769618951529046 0.2591831102142711 0.30546580846681953
v -0.86174 0.6 0.32034 0.27769618951529046 0.2591831102142711 0.30546580846681953
v -0.92877 0.25 0.32909 0.27769618951529046 0.2591831102142711 0.30546580846681953
v -0.71513 0.25 0.0 0.27769618951529046 0.2591831102142711 0.30546580846681953
v -0.64536 0.6 0.0 0.27769618951529046 0.2591831102142711 0.30546580846681953
v -0.71513 0.25 0.0 0.27994736869262377 0.2612842107797822 0.30794210556188617
v -0.82818 0.6 -0.31666 0.27994736869262377 0.2612842107797822 0.30794210556188617
v -0.64536 0.6 0.0 0.27994736869262377 0.2612842107797822 0.30794210556188617
v -0.71513 0.25 0.0 0.27994736869262377 0.2612842107797822 0.30794210556188617
v -0.88514 0.25 -0.32532 0.27994736869262377 0.2612842107797822 0.30794210556188617
v -0.82818 0.6 -0.31666 0.27994736869262377 0.2612842107797822 0.30794210556188617
v -0.88514 0.25 -0.32532 0.29858805750131123 0.2786821870012239 0.3284468632514424
v -0.36389 0.6 -0.55647 0.29858805750131123 0.2786821870012239 0.3284468632514424
v -0.82818 0.6 -0.31666 0.29858805750131123 0.2786821870012239 0.3284468632514424
v -0.88514 0.25 -0.32532 0.29858805750131123 0.2786821870012239 0.3284468632514424
v -0.39437 0.25 -0.57167 0.29858805750131123 0.2786821870012239 0.3284468632514424
v -0.36389 0.6 -0.55647 0.29858805750131123 0.2786821870012239 0.3284468632514424
v -0.39437 0.25 -0.57167 0.3045148571170667 0.2842138666425956 0.3349663428287734
v -0.0 0.6 -0.82723 0.3045148571170667 0.2842138666425956 0.3349663428287734
v -0.36389 0.6 -0.55647 0.3045148571170667 0.2842138666425956 0.3349663428287734
v -0.39437 0.25 -0.57167 0.3045148571170667 0.2842138666425956 0.3349663428287734
v -0.0 0.25 -0.84983 0.3045148571170667 0.2842138666425956 0.3349663428287734
v -0.0 0.6 -0.82723 0.3045148571170667 0.2842138666425956 0.3349663428287734
v -0.0 0.25 -0.84983 0.2911977588047886 0.2717845748844694 0.3203175346852675
v 0.42989 0.6 -0.54693 0.2911977588047886 0.2717845748844694 0.3203175346852675
v -0.0 0.6 -0.82723 0.2911977588047886 0.2717845748844694 0.3203175346852675
v -0.0 0.25 -0.84983 0.2911977588047886 0.2717845748844694 0.3203175346852675
v 0.45412 0.25 -0.56187 0.2911977588047886 0.2717845748844694 0.3203175346852675
v 0.42989 0.6 -0.54693 0.2911977588047886 0.2717845748844694 0.3203175346852675
v 0.45412 0.25 -0.56187 0.27828699742147045 0.2597345309267058 0.30611569716361753
v 0.61494 0.6 -0.32222 0.27828699742147045 0.2597345309267058 0.30611569716361753
v 0.42989 0.6 -0.54693 0.27828699742147045 0.2597345309267058 0.30611569716361753
v 0.45412 0.25 -0.56187 0.27828699742147045 0.2597345309267058 0.30611569716361753
v 0.6531 0.25 -0.33103 0.27828699742147045 0.2597345309267058 0.30611569716361753
v 0.61494 0.6 -0.32222 0.27828699742147045 0.2597345309267058 0.30611569716361753
v 0.6531 0.25 -0.33103 0.2897382943142353 0.27042240802661965 0.3187121237456589
v 0.87085 0.6 0.0 0.2897382943142353 0.27042240802661965 0.3187121237456589
v 0.61494 0.6 -0.32222 0.2897382943142353 0.27042240802661965 0.3187121237456589
v 0.6531 0.25 -0.33103 0.2897382943142353 0.27042240802661965 0.3187121237456589
v 0.90615 0.25 0.0 0.2897382943142353 0.27042240802661965 0.3187121237456589
v 0.87085 0.6 0.0 0.2897382943142353 0.27042240802661965 0.3187121237456589
v 0.87085 0.6 0.0 0.23701388096336906 0.22121295556581116 0.260715269059706
v 0.69328 0.83 0.28475 0.23701388096336906 0.22121295556581116 0.260715269059706
v 0.76343 0.83 0.0 0.23701388096336906 0.22121295556581116 0.260715269059706
v 0.87085 0.6 0.0 0.23701388096336906 0.22121295556581116 0.260715269059706
v 0.79466 0.6 0.31848 0.23701388096336906 0.22121295556581116 0.260715269059706
v 0.69328 0.83 0.28475 0.23701388096336906 0.22121295556581116 0.260715269059706
v 0.79466 0.6 0.31848 0.2242365684819124 0.2092874639164516 0.24666022533010365
v 0.31638 0.83 0.49463 0.2242365684819124 0.2092874639164516 0.24666022533010365
v 0.69328 0.83 0.28475 0.2242365684819124 0.2092874639164516 0.24666022533010365
v 0.79466 0.6 0.31848 0.2242365684819124 0.2092874639164516 0.24666022533010365
v 0.37539 0.6 0.55322 0.2242365684819124 0.2092874639164516 0.24666022533010365
v 0.31638 0.83 0.49463 0.2242365684819124 0.2092874639164516 0.24666022533010365
v 0.37539 0.6 0.55322 0.23632870441150858 0.2205734574507414 0.25996157485265947
v 0.0 0.83 0.73974 0.23632870441150858 0.2205734574507414 0.25996157485265947
v 0.31638 0.83 0.49463 0.23632870441150858 0.2205734574507414 0.25996157485265947
v 0.37539 0.6 0.55322 0.23632870441150858 0.2205734574507414 0.25996157485265947
v 0.0 0.6 0.82737 0.23632870441150858 0.2205734574507414 0.25996157485265947
v 0.0 0.83 0.73974 0.23632870441150858 0.2205734574507414 0.25996157485265947
v 0.0 0.6 0.82737 0.23331093265313585 0.21775687047626016 0.2566420259184495
v -0.28206 0.83 0.49178 0.23331093265313585 0.21775687047626016 0.2566420259184495
v 0.0 0.83 0.73974 0.23331093265313585 0.21775687047626016 0.2566420259184495
v 0.0 0.6 0.82737 0.23331093265313585 0.21775687047626016 0.2566420259184495
v -0.33464 0.6 0.55004 0.23331093265313585 0.21775687047626016 0.2566420259184495
v -0.28206 0.83 0.49178 0.23331093265313585 0.21775687047626016 0.2566420259184495
v -0.33464 0.6 0.55004 0.21007412076035556 0.19606917937633186 0.23108153283639113
v -0.83089 0.83 0.28641 0.21007412076035556 0.19606917937633186 0.23108153283639113
v -0.28206 0.83 0.49178 0.21007412076035556 0.19606917937633186 0.23108153283639113
v -0.33464 0.6 0.55004 0.21007412076035556 0.19606917937633186 0.23108153283639113
v -0.86174 0.6 0.32034 0.21007412076035556 0.19606917937633186 0.23108153283639113
v -0.83089 0.83 0.28641 0.21007412076035556 0.19606917937633186 0.23108153283639113
v -0.86174 0.6 0.32034 0.22947894897769494 0.21418035237918198 0.25242684387546444
v -0.60991 0.83 0.0 0.22947894897769494 0.21418035237918198 0.25242684387546444
v -0.83089 0.83 0.28641 0.22947894897769494 0.21418035237918198 0.25242684387546444
v -0.86174 0.6 0.32034 0.22947894897769494 0.21418035237918198 0.25242684387546444
v -0.64536 0.6 0.0 0.22947894897769494 0.21418035237918198 0.25242684387546444
v -0.60991 0.83 0.0 0.22947894897769494 0.21418035237918198 0.25242684387546444
v -0.64536 0.6 0.0 0.2284115956965671 0.21318415598346266 0.2512527552662238
v -0.76215 0.83 -0.28312 0.2284115956965671 0.21318415598346266 0.2512527552662238
v -0.60991 0.83 0.0 0.2284115956965671 0.21318415598346266 0.2512527552662238
v -0.64536 0.6 0.0 0.2284115956965671 0.21318415598346266 0.2512527552662238
v -0.82818 0.6 -0.31666 0.2284115956965671 0.21318415598346266 0.2512527552662238
v -0.76215 0.83 -0.28312 0.2284115956965671 0.21318415598346266 0.2512527552662238
v -0.82818 0.6 -0.31666 0.22445150823998467 0.20948807435731903 0.24689665906398314
v -0.32892 0.83 -0.49753 0.22445150823998467 0.20948807435731903 0.24689665906398314
v -0.76215 0.83 -0.28312 0.22445150823998467 0.20948807435731903 0.24689665906398314
v -0.82818 0.6 -0.31666 0.22445150823998467 0.20948807435731903 0.24689665906398314
v -0.36389 0.6 -0.55647 0.22445150823998467 0.20948807435731903 0.24689665906398314
v -0.32892 0.83 -0.49753 0.22445150823998467 0.20948807435731903 0.24689665906398314
v -0.36389 0.6 -0.55647 0.21706033719710158 0.20258964805062815 0.23876637091681174
v -0.0 0.83 -0.73961 0.21706033719710158 0.20258964805062815 0.23876637091681174
v -0.32892 0.83 -0.49753 0.21706033719710158 0.20258964805062815 0.23876637091681174
v -0.36389 0.6 -0.55647 0.21706033719710158 0.20258964805062815 0.23876637091681174
v -0.0 0.6 -0.82723 0.21706033719710158 0.20258964805062815 0.23876637091681174
v -0.0 0.83 -0.73961 0.21706033719710158 0.20258964805062815 0.23876637091681174
v -0.0 0.6 -0.82723 0.22729671480914354 0.212143600488534 0.2500263862900579
v 0.3868 0.83 -0.489 0.22729671480914354 0.212143600488534 0.2500263862900579
v -0.0 0.83 -0.73961 0.22729671480914354 0.212143600488534 0.2500263862900579
v -0.0 0.6 -0.82723 0.22729671480914354 0.212143600488534 0.2500263862900579
v 0.42989 0.6 -0.54693 0.22729671480914354 0.212143600488534 0.2500263862900579
v 0.3868 0.83 -0.489 0.22729671480914354 0.212143600488534 0.2500263862900579
v 0.42989 0.6 -0.54693 0.21281206746958317 0.1986245963049443 0.2340932742165415
v 0.55669 0.83 -0.28809 0.21281206746958317 0.1986245963049443 0.2340932742165415
v 0.3868 0.83 -0.489 0.21281206746958317 0.1986245963049443 0.2340932742165415
v 0.42989 0.6 -0.54693 0.21281206746958317 0.1986245963049443 0.2340932742165415
v 0.61494 0.6 -0.32222 0.21281206746958317 0.1986245963049443 0.2340932742165415
v 0.55669 0.83 -0.28809 0.21281206746958317 0.1986245963049443 0.2340932742165415
v 0.61494 0.6 -0.32222 0.22165517725830672 0.2068781654410863 0.24382069498413741
v 0.76343 0.83 0.0 0.22165517725830672 0.2068781654410863 0.24382069498413741
v 0.55669 0.83 -0.28809 0.22165517725830672 0.2068781654410863 0.24382069498413741
v 0.61494 0.6 -0.32222 0.22165517725830672 0.2068781654410863 0.24382069498413741
v 0.87085 0.6 0.0 0.22165517725830672 0.2068781654410863 0.24382069498413741
v 0.76343 0.83 0.0 0.22165517725830672 0.2068781654410863 0.24382069498413741
v 0 0.95 0 0.32 0.3 0.35
v 0.69328 0.83 0.28475 0.32 0.3 0.35
v 0.76343 0.83 0.0 0.32 0.3 0.35
v 0 0.95 0 0.32 0.3 0.35
v 0.31638 0.83 0.49463 0.32 0.3 0.35
v 0.69328 0.83 0.28475 0.32 0.3 0.35
v 0 0.95 0 0.32 0.3 0.35
v 0.0 0.83 0.73974 0.32 0.3 0.35
v 0.31638 0.83 0.49463 0.32 0.3 0.35
v 0 0.95 0 0.32 0.3 0.35
v -0.28206 0.83 0.49178 0.32 0.3 0.35
v 0.0 0.83 0.73974 0.32 0.3 0.35
v 0 0.95 0 0.32 0.3 0.35
v -0.83089 0.83 0.28641 0.32 0.3 0.35
v -0.28206 0.83 0.49178 0.32 0.3 0.35
v 0 0.95 0 0.32 0.3 0.35
v -0.60991 0.83 0.0 0.32 0.3 0.35
v -0.83089 0.83 0.28641 0.32 0.3 0.35
v 0 0.95 0 0.32 0.3 0.35
v -0.76215 0.83 -0.28312 0.32 0.3 0.35
v -0.60991 0.83 0.0 0.32 0.3 0.35
v 0 0.95 0 0.32 0.3 0.35
v -0.32892 0.83 -0.49753 0.32 0.3 0.35
v -0.76215 0.83 -0.28312 0.32 0.3 0.35
v 0 0.95 0 0.32 0.3 0.35
v -0.0 0.83 -0.73961 0.32 0.3 0.35
v -0.32892 0.83 -0.49753 0.32 0.3 0.35
v 0 0.95 0 0.32 0.3 0.35
v 0.3868 0.83 -0.489 0.32 0.3 0.35
v -0.0 0.83 -0.73961 0.32 0.3 0.35
v 0 0.95 0 0.32 0.3 0.35
v 0.55669 0.83 -0.28809 0.32 0.3 0.35
v 0.3868 0.83 -0.489 0.32 0.3 0.35
v 0 0.95 0 0.32 0.3 0.35
v 0.76343 0.83 0.0 0.32 0.3 0.35
v 0.55669 0.83 -0.28809 0.32 0.3 0.35
v 0 -0.45 0 0.22 0.2 0.26
v 0.76373 -0.3 0.0 0.22 0.2 0.26
v 0.67023 -0.3 0.28475 0.22 0.2 0.26
v 0 -0.45 0 0.22 0.2 0.26
v 0.67023 -0.3 0.28475 0.22 0.2 0.26
v 0.31265 -0.3 0.49463 0.22 0.2 0.26
v 0 -0.45 0 0.22 0.2 0.26
v 0.31265 -0.3 0.49463 0.22 0.2 0.26
v 0.0 -0.3 0.73974 0.22 0.2 0.26
v 0 -0.45 0 0.22 0.2 0.26
v 0.0 -0.3 0.73974 0.22 0.2 0.26
v -0.30045 -0.3 0.49178 0.22 0.2 0.26
v 0 -0.45 0 0.22 0.2 0.26
v -0.30045 -0.3 0.49178 0.22 0.2 0.26
v -0.81326 -0.3 0.28641 0.22 0.2 0.26
v 0 -0.45 0 0.22 0.2 0.26
v -0.81326 -0.3 0.28641 0.22 0.2 0.26
v -0.62904 -0.3 0.0 0.22 0.2 0.26
v 0 -0.45 0 0.22 0.2 0.26
v -0.62904 -0.3 0.0 0.22 0.2 0.26
v -0.72673 -0.3 -0.28312 0.22 0.2 0.26
v 0 -0.45 0 0.22 0.2 0.26
v -0.72673 -0.3 -0.28312 0.22 0.2 0.26
v -0.33875 -0.3 -0.49753 0.22 0.2 0.26
v 0 -0.45 0 0.22 0.2 0.26
v -0.33875 -0.3 -0.49753 0.22 0.2 0.26
v -0.0 -0.3 -0.73961 0.22 0.2 0.26
v 0 -0.45 0 0.22 0.2 0.26
v -0.0 -0.3 -0.73961 0.22 0.2 0.26
v 0.38896 -0.3 -0.489 0.22 0.2 0.26
v 0 -0.45 0 0.22 0.2 0.26
v 0.38896 -0.3 -0.489 0.22 0.2 0.26
v 0.56523 -0.3 -0.28809 0.22 0.2 0.26
v 0 -0.45 0 0.22 0.2 0.26
v 0.56523 -0.3 -0.28809 0.22 0.2 0.26
v 0.76373 -0.3 0.0 0.22 0.2 0.26
f 1 2 3
f 4 5 6
f 7 8 9
f 10 11 12
f 13 14 15
f 16 17 18
f 19 20 21
f 22 23 24
f 25 26 27
f 28 29 30
f 31 32 33
f 34 35 36
f 37 38 39
f 40 41 42
f 43 44 45
f 46 47 48
f 49 50 51
f 52 53 54
f 55 56 57
f 58 59 60
f 61 62 63
f 64 65 66
f 67 68 69
f 70 71 72
f 73 74 75
f 76 77 78
f 79 80 81
f 82 83 84
f 85 86 87
f 88 89 90
f 91 92 93
f 94 95 96
f 97 98 99
f 100 101 102
f 103 104 105
f 106 107 108
f 109 110 111
f 112 113 114
f 115 116 117
f 118 119 120
f 121 122 123
f 124 125 126
f 127 128 129
f 130 131 132
f 133 134 135
f 136 137 138
f 139 140 141
f 142 143 144
f 145 146 147
f 148 149 150
f 151 152 153
f 154 155 156
f 157 158 159
f 160 161 162
f 163 164 165
f 166 167 168
f 169 170 171
f 172 173 174
f 175 176 177
f 178 179 180
f 181 182 183
f 184 185 186
f 187 188 189
f 190 191 192
f 193 194 195
f 196 197 198
f 199 200 201
f 202 203 204
f 205 206 207
f 208 209 210
f 211 212 213
f 214 215 216
f 217 218 219
f 220 221 222
f 223 224 225
f 226 227 228
f 229 230 231
f 232 233 234
f 235 236 237
f 238 239 240
f 241 242 243
f 244 245 246
f 247 248 249
f 250 251 252
f 253 254 255
f 256 257 258
f 259 260 261
f 262 263 264
f 265 266 267
f 268 269 270
f 271 272 273
f 274 275 276
f 277 278 279
f 280 281 282
f 283 284 285
f 286 287 288
f 289 290 291
f 292 293 294
f 295 296 297
f 298 299 300
f 301 302 303
f 304 305 306
f 307 308 309
f 310 311 312
f 313 314 315
f 316 317 318
f 319 320 321
f 322 323 324
f 325 326 327
f 328 329 330
f 331 332 333
f 334 335 336
f 337 338 339
f 340 341 342
f 343 344 345
f 346 347 348
f 349 350 351
f 352 353 354
f 355 356 357
f 358 359 360
