# R3 authored topology; reference 05-forest.png;06-river-wetland.png
v 0.76373 -0.3 0.0 0.3013645861037373 0.28127361369682147 0.331501044714111
v 0.61236 0 0.4504 0.3013645861037373 0.28127361369682147 0.331501044714111
v 0.83515 0 0.0 0.3013645861037373 0.28127361369682147 0.331501044714111
v 0.76373 -0.3 0.0 0.3013645861037373 0.28127361369682147 0.331501044714111
v 0.54724 -0.3 0.40269 0.3013645861037373 0.28127361369682147 0.331501044714111
v 0.61236 0 0.4504 0.3013645861037373 0.28127361369682147 0.331501044714111
v 0.54724 -0.3 0.40269 0.2776496778116039 0.2591396992908303 0.30541464559276427
v 0.0 0 0.63881 0.2776496778116039 0.2591396992908303 0.30541464559276427
v 0.61236 0 0.4504 0.2776496778116039 0.2591396992908303 0.30541464559276427
v 0.54724 -0.3 0.40269 0.2776496778116039 0.2591396992908303 0.30541464559276427
v 0.0 -0.3 0.57115 0.2776496778116039 0.2591396992908303 0.30541464559276427
v 0.0 0 0.63881 0.2776496778116039 0.2591396992908303 0.30541464559276427
v 0.0 -0.3 0.57115 0.2842043379234557 0.265257382061892 0.3126247717158013
v -0.71335 0 0.58504 0.2842043379234557 0.265257382061892 0.3126247717158013
v 0.0 0 0.63881 0.2842043379234557 0.265257382061892 0.3126247717158013
v 0.0 -0.3 0.57115 0.2842043379234557 0.265257382061892 0.3126247717158013
v -0.62217 -0.3 0.52307 0.2842043379234557 0.265257382061892 0.3126247717158013
v -0.71335 0 0.58504 0.2842043379234557 0.265257382061892 0.3126247717158013
v -0.62217 -0.3 0.52307 0.2864179666896759 0.26732343557703087 0.3150597633586435
v -0.60989 0 0.0 0.2864179666896759 0.26732343557703087 0.3150597633586435
v -0.71335 0 0.58504 0.2864179666896759 0.26732343557703087 0.3150597633586435
v -0.62217 -0.3 0.52307 0.2864179666896759 0.26732343557703087 0.3150597633586435
v -0.60089 -0.3 0.0 0.2864179666896759 0.26732343557703087 0.3150597633586435
v -0.60989 0 0.0 0.2864179666896759 0.26732343557703087 0.3150597633586435
v -0.60089 -0.3 0.0 0.2788725111692506 0.2602810104246339 0.3067597622861757
v -0.71309 0 -0.45302 0.2788725111692506 0.2602810104246339 0.3067597622861757
v -0.60989 0 0.0 0.2788725111692506 0.2602810104246339 0.3067597622861757
v -0.60089 -0.3 0.0 0.2788725111692506 0.2602810104246339 0.3067597622861757
v -0.66402 -0.3 -0.40504 0.2788725111692506 0.2602810104246339 0.3067597622861757
v -0.71309 0 -0.45302 0.2788725111692506 0.2602810104246339 0.3067597622861757
v -0.66402 -0.3 -0.40504 0.28438047190899707 0.26542177378173065 0.31281851909989683
v -0.0 0 -0.82732 0.28438047190899707 0.26542177378173065 0.31281851909989683
v -0.71309 0 -0.45302 0.28438047190899707 0.26542177378173065 0.31281851909989683
v -0.66402 -0.3 -0.40504 0.28438047190899707 0.26542177378173065 0.31281851909989683
v -0.0 -0.3 -0.73969 0.28438047190899707 0.26542177378173065 0.31281851909989683
v -0.0 0 -0.82732 0.28438047190899707 0.26542177378173065 0.31281851909989683
v -0.0 -0.3 -0.73969 0.27963605145875026 0.26099364802816694 0.3075996566046253
v 0.69204 0 -0.44783 0.27963605145875026 0.26099364802816694 0.3075996566046253
v -0.0 0 -0.82732 0.27963605145875026 0.26099364802816694 0.3075996566046253
v -0.0 -0.3 -0.73969 0.27963605145875026 0.26099364802816694 0.3075996566046253
v 0.59337 -0.3 -0.4004 0.27963605145875026 0.26099364802816694 0.3075996566046253
v 0.69204 0 -0.44783 0.27963605145875026 0.26099364802816694 0.3075996566046253
v 0.59337 -0.3 -0.4004 0.28600704971196333 0.26693991306449916 0.31460775468315966
v 0.83515 0 0.0 0.28600704971196333 0.26693991306449916 0.31460775468315966
v 0.69204 0 -0.44783 0.28600704971196333 0.26693991306449916 0.31460775468315966
v 0.59337 -0.3 -0.4004 0.28600704971196333 0.26693991306449916 0.31460775468315966
v 0.76373 -0.3 0.0 0.28600704971196333 0.26693991306449916 0.31460775468315966
v 0.83515 0 0.0 0.28600704971196333 0.26693991306449916 0.31460775468315966
v 0.83515 0 0.0 0.29888463999351844 0.2789589973272839 0.3287731039928703
v 0.6647 0.25 0.46271 0.29888463999351844 0.2789589973272839 0.3287731039928703
v 0.83984 0.25 0.0 0.29888463999351844 0.2789589973272839 0.3287731039928703
v 0.83515 0 0.0 0.29888463999351844 0.2789589973272839 0.3287731039928703
v 0.61236 0 0.4504 0.29888463999351844 0.2789589973272839 0.3287731039928703
v 0.6647 0.25 0.46271 0.29888463999351844 0.2789589973272839 0.3287731039928703
v 0.61236 0 0.4504 0.28913395844292306 0.26985836121339485 0.31804735428721537
v 0.0 0.25 0.65627 0.28913395844292306 0.26985836121339485 0.31804735428721537
v 0.6647 0.25 0.46271 0.28913395844292306 0.26985836121339485 0.31804735428721537
v 0.61236 0 0.4504 0.28913395844292306 0.26985836121339485 0.31804735428721537
v 0.0 0 0.63881 0.28913395844292306 0.26985836121339485 0.31804735428721537
v 0.0 0.25 0.65627 0.28913395844292306 0.26985836121339485 0.31804735428721537
v 0.0 0 0.63881 0.28932651481620775 0.2700380804951273 0.3182591662978286
v -0.7011 0.25 0.60103 0.28932651481620775 0.2700380804951273 0.3182591662978286
v 0.0 0.25 0.65627 0.28932651481620775 0.2700380804951273 0.3182591662978286
v 0.0 0 0.63881 0.28932651481620775 0.2700380804951273 0.3182591662978286
v -0.71335 0 0.58504 0.28932651481620775 0.2700380804951273 0.3182591662978286
v -0.7011 0.25 0.60103 0.28932651481620775 0.2700380804951273 0.3182591662978286
v -0.71335 0 0.58504 0.28354225310777353 0.264639436233922 0.31189647841855095
v -0.69669 0.25 0.0 0.28354225310777353 0.264639436233922 0.31189647841855095
v -0.7011 0.25 0.60103 0.28354225310777353 0.264639436233922 0.31189647841855095
v -0.71335 0 0.58504 0.28354225310777353 0.264639436233922 0.31189647841855095
v -0.60989 0 0.0 0.28354225310777353 0.264639436233922 0.31189647841855095
v -0.69669 0.25 0.0 0.28354225310777353 0.264639436233922 0.31189647841855095
v -0.60989 0 0.0 0.28561120159376807 0.26657045482085023 0.3141723217531449
v -0.76435 0.25 -0.4654 0.28561120159376807 0.26657045482085023 0.3141723217531449
v -0.69669 0.25 0.0 0.28561120159376807 0.26657045482085023 0.3141723217531449
v -0.60989 0 0.0 0.28561120159376807 0.26657045482085023 0.3141723217531449
v -0.71309 0 -0.45302 0.28561120159376807 0.26657045482085023 0.3141723217531449
v -0.76435 0.25 -0.4654 0.28561120159376807 0.26657045482085023 0.3141723217531449
v -0.71309 0 -0.45302 0.3097195651576498 0.28907159414713984 0.3406915216734148
v -0.0 0.25 -0.84993 0.3097195651576498 0.28907159414713984 0.3406915216734148
v -0.76435 0.25 -0.4654 0.3097195651576498 0.28907159414713984 0.3406915216734148
v -0.71309 0 -0.45302 0.3097195651576498 0.28907159414713984 0.3406915216734148
v -0.0 0 -0.82732 0.3097195651576498 0.28907159414713984 0.3406915216734148
v -0.0 0.25 -0.84993 0.3097195651576498 0.28907159414713984 0.3406915216734148
v -0.0 0 -0.82732 0.29932927386887737 0.27937398894428556 0.3292622012557651
v 0.68617 0.25 -0.46007 0.29932927386887737 0.27937398894428556 0.3292622012557651
v -0.0 0.25 -0.84993 0.29932927386887737 0.27937398894428556 0.3292622012557651
v -0.0 0 -0.82732 0.29932927386887737 0.27937398894428556 0.3292622012557651
v 0.69204 0 -0.44783 0.29932927386887737 0.27937398894428556 0.3292622012557651
v 0.68617 0.25 -0.46007 0.29932927386887737 0.27937398894428556 0.3292622012557651
v 0.69204 0 -0.44783 0.29792871620401157 0.2780668017904108 0.32772158782441274
v 0.83984 0.25 0.0 0.29792871620401157 0.2780668017904108 0.32772158782441274
v 0.68617 0.25 -0.46007 0.29792871620401157 0.2780668017904108 0.32772158782441274
v 0.69204 0 -0.44783 0.29792871620401157 0.2780668017904108 0.32772158782441274
v 0.83515 0 0.0 0.29792871620401157 0.2780668017904108 0.32772158782441274
v 0.83984 0.25 0.0 0.29792871620401157 0.2780668017904108 0.32772158782441274
v 0.83984 0.25 0.0 0.2821609913351315 0.2633502585794561 0.3103770904686447
v 0.63137 0.6 0.4504 0.2821609913351315 0.2633502585794561 0.3103770904686447
v 0.88204 0.6 0.0 0.2821609913351315 0.2633502585794561 0.3103770904686447
v 0.83984 0.25 0.0 0.2821609913351315 0.2633502585794561 0.3103770904686447
v 0.6647 0.25 0.46271 0.2821609913351315 0.2633502585794561 0.3103770904686447
v 0.63137 0.6 0.4504 0.2821609913351315 0.2633502585794561 0.3103770904686447
v 0.6647 0.25 0.46271 0.3022485647262126 0.2820986604111318 0.3324734211988339
v 0.0 0.6 0.63881 0.3022485647262126 0.2820986604111318 0.3324734211988339
v 0.63137 0.6 0.4504 0.3022485647262126 0.2820986604111318 0.3324734211988339
v 0.6647 0.25 0.46271 0.3022485647262126 0.2820986604111318 0.3324734211988339
v 0.0 0.25 0.65627 0.3022485647262126 0.2820986604111318 0.3324734211988339
v 0.0 0.6 0.63881 0.3022485647262126 0.2820986604111318 0.3324734211988339
v 0.0 0.25 0.65627 0.2818824897754294 0.2630903237904008 0.31007073875297236
v -0.68804 0.6 0.58504 0.2818824897754294 0.2630903237904008 0.31007073875297236
v 0.0 0.6 0.63881 0.2818824897754294 0.2630903237904008 0.31007073875297236
v 0.0 0.25 0.65627 0.2818824897754294 0.2630903237904008 0.31007073875297236
v -0.7011 0.25 0.60103 0.2818824897754294 0.2630903237904008 0.31007073875297236
v -0.68804 0.6 0.58504 0.2818824897754294 0.2630903237904008 0.31007073875297236
v -0.7011 0.25 0.60103 0.2896603959032753 0.270349702843057 0.31862643549360287
v -0.68181 0.6 0.0 0.2896603959032753 0.270349702843057 0.31862643549360287
v -0.68804 0.6 0.58504 0.2896603959032753 0.270349702843057 0.31862643549360287
v -0.7011 0.25 0.60103 0.2896603959032753 0.270349702843057 0.31862643549360287
v -0.69669 0.25 0.0 0.2896603959032753 0.270349702843057 0.31862643549360287
v -0.68181 0.6 0.0 0.2896603959032753 0.270349702843057 0.31862643549360287
v -0.69669 0.25 0.0 0.31162284062291745 0.29084798458138966 0.3427851246852092
v -0.73817 0.6 -0.45302 0.31162284062291745 0.29084798458138966 0.3427851246852092
v -0.68181 0.6 0.0 0.31162284062291745 0.29084798458138966 0.3427851246852092
v -0.69669 0.25 0.0 0.31162284062291745 0.29084798458138966 0.3427851246852092
v -0.76435 0.25 -0.4654 0.31162284062291745 0.29084798458138966 0.3427851246852092
v -0.73817 0.6 -0.45302 0.31162284062291745 0.29084798458138966 0.3427851246852092
v -0.76435 0.25 -0.4654 0.29903999135474735 0.2791039919310976 0.3289439904902221
v -0.0 0.6 -0.82732 0.29903999135474735 0.2791039919310976 0.3289439904902221
v -0.73817 0.6 -0.45302 0.29903999135474735 0.2791039919310976 0.3289439904902221
v -0.76435 0.25 -0.4654 0.29903999135474735 0.2791039919310976 0.3289439904902221
v -0.0 0.25 -0.84993 0.29903999135474735 0.2791039919310976 0.3289439904902221
v -0.0 0.6 -0.82732 0.29903999135474735 0.2791039919310976 0.3289439904902221
v -0.0 0.25 -0.84993 0.2960501907758873 0.27631351139082816 0.325655209853476
v 0.70349 0.6 -0.44783 0.2960501907758873 0.27631351139082816 0.325655209853476
v -0.0 0.6 -0.82732 0.2960501907758873 0.27631351139082816 0.325655209853476
v -0.0 0.25 -0.84993 0.2960501907758873 0.27631351139082816 0.325655209853476
v 0.68617 0.25 -0.46007 0.2960501907758873 0.27631351139082816 0.325655209853476
v 0.70349 0.6 -0.44783 0.2960501907758873 0.27631351139082816 0.325655209853476
v 0.68617 0.25 -0.46007 0.3006461130356355 0.2806030388332598 0.33071072433919907
v 0.88204 0.6 0.0 0.3006461130356355 0.2806030388332598 0.33071072433919907
v 0.70349 0.6 -0.44783 0.3006461130356355 0.2806030388332598 0.33071072433919907
v 0.68617 0.25 -0.46007 0.3006461130356355 0.2806030388332598 0.33071072433919907
v 0.83984 0.25 0.0 0.3006461130356355 0.2806030388332598 0.33071072433919907
v 0.88204 0.6 0.0 0.3006461130356355 0.2806030388332598 0.33071072433919907
v 0.88204 0.6 0.0 0.23282042853639318 0.21729906663396698 0.2561024713900325
v 0.59975 0.83 0.40269 0.23282042853639318 0.21729906663396698 0.2561024713900325
v 0.75564 0.83 0.0 0.23282042853639318 0.21729906663396698 0.2561024713900325
v 0.88204 0.6 0.0 0.23282042853639318 0.21729906663396698 0.2561024713900325
v 0.63137 0.6 0.4504 0.23282042853639318 0.21729906663396698 0.2561024713900325
v 0.59975 0.83 0.40269 0.23282042853639318 0.21729906663396698 0.2561024713900325
v 0.63137 0.6 0.4504 0.23099135757990524 0.21559193374124494 0.2540904933378958
v 0.0 0.83 0.57115 0.23099135757990524 0.21559193374124494 0.2540904933378958
v 0.59975 0.83 0.40269 0.23099135757990524 0.21559193374124494 0.2540904933378958
v 0.63137 0.6 0.4504 0.23099135757990524 0.21559193374124494 0.2540904933378958
v 0.0 0.6 0.63881 0.23099135757990524 0.21559193374124494 0.2540904933378958
v 0.0 0.83 0.57115 0.23099135757990524 0.21559193374124494 0.2540904933378958
v 0.0 0.6 0.63881 0.2160267552489379 0.2016249715656754 0.23762943077383172
v -0.64038 0.83 0.52307 0.2160267552489379 0.2016249715656754 0.23762943077383172
v 0.0 0.83 0.57115 0.2160267552489379 0.2016249715656754 0.23762943077383172
v 0.0 0.6 0.63881 0.2160267552489379 0.2016249715656754 0.23762943077383172
v -0.68804 0.6 0.58504 0.2160267552489379 0.2016249715656754 0.23762943077383172
v -0.64038 0.83 0.52307 0.2160267552489379 0.2016249715656754 0.23762943077383172
v -0.68804 0.6 0.58504 0.21063826267321448 0.19659571182833355 0.23170208894053596
v -0.60817 0.83 0.0 0.21063826267321448 0.19659571182833355 0.23170208894053596
v -0.64038 0.83 0.52307 0.21063826267321448 0.19659571182833355 0.23170208894053596
v -0.68804 0.6 0.58504 0.21063826267321448 0.19659571182833355 0.23170208894053596
v -0.68181 0.6 0.0 0.21063826267321448 0.19659571182833355 0.23170208894053596
v -0.60817 0.83 0.0 0.21063826267321448 0.19659571182833355 0.23170208894053596
v -0.68181 0.6 0.0 0.21839079539489648 0.20383140903523672 0.24022987493438613
v -0.6608 0.83 -0.40504 0.21839079539489648 0.20383140903523672 0.24022987493438613
v -0.60817 0.83 0.0 0.21839079539489648 0.20383140903523672 0.24022987493438613
v -0.68181 0.6 0.0 0.21839079539489648 0.20383140903523672 0.24022987493438613
v -0.73817 0.6 -0.45302 0.21839079539489648 0.20383140903523672 0.24022987493438613
v -0.6608 0.83 -0.40504 0.21839079539489648 0.20383140903523672 0.24022987493438613
v -0.73817 0.6 -0.45302 0.21708539036669525 0.2026130310089156 0.23879392940336477
v -0.0 0.83 -0.73969 0.21708539036669525 0.2026130310089156 0.23879392940336477
v -0.6608 0.83 -0.40504 0.21708539036669525 0.2026130310089156 0.23879392940336477
v -0.73817 0.6 -0.45302 0.21708539036669525 0.2026130310089156 0.23879392940336477
v -0.0 0.6 -0.82732 0.21708539036669525 0.2026130310089156 0.23879392940336477
v -0.0 0.83 -0.73969 0.21708539036669525 0.2026130310089156 0.23879392940336477
v -0.0 0.6 -0.82732 0.2155324906005219 0.20116365789382046 0.23708573966057409
v 0.62053 0.83 -0.4004 0.2155324906005219 0.20116365789382046 0.23708573966057409
v -0.0 0.83 -0.73969 0.2155324906005219 0.20116365789382046 0.23708573966057409
v -0.0 0.6 -0.82732 0.2155324906005219 0.20116365789382046 0.23708573966057409
v 0.70349 0.6 -0.44783 0.2155324906005219 0.20116365789382046 0.23708573966057409
v 0.62053 0.83 -0.4004 0.2155324906005219 0.20116365789382046 0.23708573966057409
v 0.70349 0.6 -0.44783 0.2355580097842071 0.21985414246525997 0.25911381076262785
v 0.75564 0.83 0.0 0.2355580097842071 0.21985414246525997 0.25911381076262785
v 0.62053 0.83 -0.4004 0.2355580097842071 0.21985414246525997 0.25911381076262785
v 0.70349 0.6 -0.44783 0.2355580097842071 0.21985414246525997 0.25911381076262785
v 0.88204 0.6 0.0 0.2355580097842071 0.21985414246525997 0.25911381076262785
v 0.75564 0.83 0.0 0.2355580097842071 0.21985414246525997 0.25911381076262785
v 0 0.95 0 0.32 0.3 0.35
v 0.59975 0.83 0.40269 0.32 0.3 0.35
v 0.75564 0.83 0.0 0.32 0.3 0.35
v 0 0.95 0 0.32 0.3 0.35
v 0.0 0.83 0.57115 0.32 0.3 0.35
v 0.59975 0.83 0.40269 0.32 0.3 0.35
v 0 0.95 0 0.32 0.3 0.35
v -0.64038 0.83 0.52307 0.32 0.3 0.35
v 0.0 0.83 0.57115 0.32 0.3 0.35
v 0 0.95 0 0.32 0.3 0.35
v -0.60817 0.83 0.0 0.32 0.3 0.35
v -0.64038 0.83 0.52307 0.32 0.3 0.35
v 0 0.95 0 0.32 0.3 0.35
v -0.6608 0.83 -0.40504 0.32 0.3 0.35
v -0.60817 0.83 0.0 0.32 0.3 0.35
v 0 0.95 0 0.32 0.3 0.35
v -0.0 0.83 -0.73969 0.32 0.3 0.35
v -0.6608 0.83 -0.40504 0.32 0.3 0.35
v 0 0.95 0 0.32 0.3 0.35
v 0.62053 0.83 -0.4004 0.32 0.3 0.35
v -0.0 0.83 -0.73969 0.32 0.3 0.35
v 0 0.95 0 0.32 0.3 0.35
v 0.75564 0.83 0.0 0.32 0.3 0.35
v 0.62053 0.83 -0.4004 0.32 0.3 0.35
v 0 -0.45 0 0.22 0.2 0.26
v 0.76373 -0.3 0.0 0.22 0.2 0.26
v 0.54724 -0.3 0.40269 0.22 0.2 0.26
v 0 -0.45 0 0.22 0.2 0.26
v 0.54724 -0.3 0.40269 0.22 0.2 0.26
v 0.0 -0.3 0.57115 0.22 0.2 0.26
v 0 -0.45 0 0.22 0.2 0.26
v 0.0 -0.3 0.57115 0.22 0.2 0.26
v -0.62217 -0.3 0.52307 0.22 0.2 0.26
v 0 -0.45 0 0.22 0.2 0.26
v -0.62217 -0.3 0.52307 0.22 0.2 0.26
v -0.60089 -0.3 0.0 0.22 0.2 0.26
v 0 -0.45 0 0.22 0.2 0.26
v -0.60089 -0.3 0.0 0.22 0.2 0.26
v -0.66402 -0.3 -0.40504 0.22 0.2 0.26
v 0 -0.45 0 0.22 0.2 0.26
v -0.66402 -0.3 -0.40504 0.22 0.2 0.26
v -0.0 -0.3 -0.73969 0.22 0.2 0.26
v 0 -0.45 0 0.22 0.2 0.26
v -0.0 -0.3 -0.73969 0.22 0.2 0.26
v 0.59337 -0.3 -0.4004 0.22 0.2 0.26
v 0 -0.45 0 0.22 0.2 0.26
v 0.59337 -0.3 -0.4004 0.22 0.2 0.26
v 0.76373 -0.3 0.0 0.22 0.2 0.26
f 1 2 3
f 4 5 6
f 7 8 9
f 10 11 12
f 13 14 15
f 16 17 18
f 19 20 21
f 22 23 24
f 25 26 27
f 28 29 30
f 31 32 33
f 34 35 36
f 37 38 39
f 40 41 42
f 43 44 45
f 46 47 48
f 49 50 51
f 52 53 54
f 55 56 57
f 58 59 60
f 61 62 63
f 64 65 66
f 67 68 69
f 70 71 72
f 73 74 75
f 76 77 78
f 79 80 81
f 82 83 84
f 85 86 87
f 88 89 90
f 91 92 93
f 94 95 96
f 97 98 99
f 100 101 102
f 103 104 105
f 106 107 108
f 109 110 111
f 112 113 114
f 115 116 117
f 118 119 120
f 121 122 123
f 124 125 126
f 127 128 129
f 130 131 132
f 133 134 135
f 136 137 138
f 139 140 141
f 142 143 144
f 145 146 147
f 148 149 150
f 151 152 153
f 154 155 156
f 157 158 159
f 160 161 162
f 163 164 165
f 166 167 168
f 169 170 171
f 172 173 174
f 175 176 177
f 178 179 180
f 181 182 183
f 184 185 186
f 187 188 189
f 190 191 192
f 193 194 195
f 196 197 198
f 199 200 201
f 202 203 204
f 205 206 207
f 208 209 210
f 211 212 213
f 214 215 216
f 217 218 219
f 220 221 222
f 223 224 225
f 226 227 228
f 229 230 231
f 232 233 234
f 235 236 237
f 238 239 240
