# R3 authored topology; reference 06-river-wetland.png
v -0.02268 -0.1 0.26044 0.2688 0.2856 0.1344
v -0.0475 0.91257 0.23951 0.2688 0.2856 0.1344
v -0.02644 0.90858 0.26044 0.2688 0.2856 0.1344
v -0.02268 -0.1 0.26044 0.2688 0.2856 0.1344
v -0.04768 -0.1 0.23544 0.2688 0.2856 0.1344
v -0.0475 0.91257 0.23951 0.2688 0.2856 0.1344
v -0.04768 -0.1 0.23544 0.31113327669410845 0.3305791064874903 0.15556663834705423
v -0.06779 0.913 0.26044 0.31113327669410845 0.3305791064874903 0.15556663834705423
v -0.0475 0.91257 0.23951 0.31113327669410845 0.3305791064874903 0.15556663834705423
v -0.04768 -0.1 0.23544 0.31113327669410845 0.3305791064874903 0.15556663834705423
v -0.07207 -0.1 0.26044 0.31113327669410845 0.3305791064874903 0.15556663834705423
v -0.06779 0.913 0.26044 0.31113327669410845 0.3305791064874903 0.15556663834705423
v -0.07207 -0.1 0.26044 0.2981248008655005 0.3167576009195943 0.14906240043275026
v -0.04787 0.90913 0.28137 0.2981248008655005 0.3167576009195943 0.14906240043275026
v -0.06779 0.913 0.26044 0.2981248008655005 0.3167576009195943 0.14906240043275026
v -0.07207 -0.1 0.26044 0.2981248008655005 0.3167576009195943 0.14906240043275026
v -0.04768 -0.1 0.28544 0.2981248008655005 0.3167576009195943 0.14906240043275026
v -0.04787 0.90913 0.28137 0.2981248008655005 0.3167576009195943 0.14906240043275026
v -0.04768 -0.1 0.28544 0.2727973386564482 0.2898471723224762 0.1363986693282241
v -0.02644 0.90858 0.26044 0.2727973386564482 0.2898471723224762 0.1363986693282241
v -0.04787 0.90913 0.28137 0.2727973386564482 0.2898471723224762 0.1363986693282241
v -0.04768 -0.1 0.28544 0.2727973386564482 0.2898471723224762 0.1363986693282241
v -0.02268 -0.1 0.26044 0.2727973386564482 0.2898471723224762 0.1363986693282241
v -0.02644 0.90858 0.26044 0.2727973386564482 0.2898471723224762 0.1363986693282241
v -0.02644 0.90858 0.26044 0.3050533590156069 0.3241191939540823 0.15252667950780344
v 0.13272 1.58627 0.39259 0.3050533590156069 0.3241191939540823 0.15252667950780344
v 0.1403 1.58262 0.40044 0.3050533590156069 0.3241191939540823 0.15252667950780344
v -0.02644 0.90858 0.26044 0.3050533590156069 0.3241191939540823 0.15252667950780344
v -0.0475 0.91257 0.23951 0.3050533590156069 0.3241191939540823 0.15252667950780344
v 0.13272 1.58627 0.39259 0.3050533590156069 0.3241191939540823 0.15252667950780344
v -0.0475 0.91257 0.23951 0.2698196406617506 0.2866833682031101 0.1349098203308753
v 0.12493 1.58673 0.40044 0.2698196406617506 0.2866833682031101 0.1349098203308753
v 0.13272 1.58627 0.39259 0.2698196406617506 0.2866833682031101 0.1349098203308753
v -0.0475 0.91257 0.23951 0.2698196406617506 0.2866833682031101 0.1349098203308753
v -0.06779 0.913 0.26044 0.2698196406617506 0.2866833682031101 0.1349098203308753
v 0.12493 1.58673 0.40044 0.2698196406617506 0.2866833682031101 0.1349098203308753
v -0.06779 0.913 0.26044 0.3158802311443572 0.3356227455908795 0.1579401155721786
v 0.13191 1.58323 0.40828 0.3158802311443572 0.3356227455908795 0.1579401155721786
v 0.12493 1.58673 0.40044 0.3158802311443572 0.3356227455908795 0.1579401155721786
v -0.06779 0.913 0.26044 0.3158802311443572 0.3356227455908795 0.1579401155721786
v -0.04787 0.90913 0.28137 0.3158802311443572 0.3356227455908795 0.1579401155721786
v 0.13191 1.58323 0.40828 0.3158802311443572 0.3356227455908795 0.1579401155721786
v -0.04787 0.90913 0.28137 0.29089952721387946 0.3090807476647469 0.14544976360693973
v 0.1403 1.58262 0.40044 0.29089952721387946 0.3090807476647469 0.14544976360693973
v 0.13191 1.58323 0.40828 0.29089952721387946 0.3090807476647469 0.14544976360693973
v -0.04787 0.90913 0.28137 0.29089952721387946 0.3090807476647469 0.14544976360693973
v -0.02644 0.90858 0.26044 0.29089952721387946 0.3090807476647469 0.14544976360693973
v 0.1403 1.58262 0.40044 0.29089952721387946 0.3090807476647469 0.14544976360693973
v 0.19732 1.58475 0.40044 0.2688 0.21 0.1344
v 0.14126 1.88475 0.37191 0.2688 0.21 0.1344
v 0.16284 1.88475 0.40044 0.2688 0.21 0.1344
v 0.19732 1.58475 0.40044 0.2688 0.21 0.1344
v 0.15154 1.58475 0.33862 0.2688 0.21 0.1344
v 0.14126 1.88475 0.37191 0.2688 0.21 0.1344
v 0.15154 1.58475 0.33862 0.31113327669410845 0.24307287241727224 0.15556663834705423
v 0.10895 1.88475 0.3828 0.31113327669410845 0.24307287241727224 0.15556663834705423
v 0.14126 1.88475 0.37191 0.31113327669410845 0.24307287241727224 0.15556663834705423
v 0.15154 1.58475 0.33862 0.31113327669410845 0.24307287241727224 0.15556663834705423
v 0.08102 1.58475 0.36223 0.31113327669410845 0.24307287241727224 0.15556663834705423
v 0.10895 1.88475 0.3828 0.31113327669410845 0.24307287241727224 0.15556663834705423
v 0.08102 1.58475 0.36223 0.2981248008655005 0.23291000067617226 0.14906240043275026
v 0.10771 1.88475 0.41807 0.2981248008655005 0.23291000067617226 0.14906240043275026
v 0.10895 1.88475 0.3828 0.2981248008655005 0.23291000067617226 0.14906240043275026
v 0.08102 1.58475 0.36223 0.2981248008655005 0.23291000067617226 0.14906240043275026
v 0.07819 1.58475 0.43864 0.2981248008655005 0.23291000067617226 0.14906240043275026
v 0.10771 1.88475 0.41807 0.2981248008655005 0.23291000067617226 0.14906240043275026
v 0.07819 1.58475 0.43864 0.2727973386564482 0.21312292082535014 0.1363986693282241
v 0.142 1.88475 0.42897 0.2727973386564482 0.21312292082535014 0.1363986693282241
v 0.10771 1.88475 0.41807 0.2727973386564482 0.21312292082535014 0.1363986693282241
v 0.07819 1.58475 0.43864 0.2727973386564482 0.21312292082535014 0.1363986693282241
v 0.15323 1.58475 0.46226 0.2727973386564482 0.21312292082535014 0.1363986693282241
v 0.142 1.88475 0.42897 0.2727973386564482 0.21312292082535014 0.1363986693282241
v 0.15323 1.58475 0.46226 0.31891608269627864 0.24915318960646768 0.15945804134813932
v 0.16284 1.88475 0.40044 0.31891608269627864 0.24915318960646768 0.15945804134813932
v 0.142 1.88475 0.42897 0.31891608269627864 0.24915318960646768 0.15945804134813932
v 0.15323 1.58475 0.46226 0.31891608269627864 0.24915318960646768 0.15945804134813932
v 0.19732 1.58475 0.40044 0.31891608269627864 0.24915318960646768 0.15945804134813932
v 0.16284 1.88475 0.40044 0.31891608269627864 0.24915318960646768 0.15945804134813932
v -0.04768 0.23695 0.26044 0.28 0.35 0.15
v 0.33632 0.27763 0.26044 0.28 0.35 0.15
v 0.33632 0.24613 0.32544 0.28 0.35 0.15
v -0.04768 0.23695 0.26044 0.23800000000000002 0.2975 0.1275
v 0.33632 0.18113 0.19544 0.23800000000000002 0.2975 0.1275
v 0.33632 0.27763 0.26044 0.23800000000000002 0.2975 0.1275
v 0.33632 0.27763 0.26044 0.28 0.35 0.15
v 0.75232 0.18837 0.26044 0.28 0.35 0.15
v 0.33632 0.24613 0.32544 0.28 0.35 0.15
v 0.33632 0.27763 0.26044 0.23800000000000002 0.2975 0.1275
v 0.33632 0.18113 0.19544 0.23800000000000002 0.2975 0.1275
v 0.75232 0.18837 0.26044 0.23800000000000002 0.2975 0.1275
v -0.04768 0.52336 0.26044 0.28 0.35 0.15
v 0.15979 0.83059 0.58356 0.28 0.35 0.15
v 0.1051 0.74791 0.61868 0.28 0.35 0.15
v -0.04768 0.52336 0.26044 0.23800000000000002 0.2975 0.1275
v 0.21449 0.78528 0.54844 0.23800000000000002 0.2975 0.1275
v 0.15979 0.83059 0.58356 0.23800000000000002 0.2975 0.1275
v 0.15979 0.83059 0.58356 0.28 0.35 0.15
v 0.38456 1.0301 0.93361 0.28 0.35 0.15
v 0.1051 0.74791 0.61868 0.28 0.35 0.15
v 0.15979 0.83059 0.58356 0.23800000000000002 0.2975 0.1275
v 0.21449 0.78528 0.54844 0.23800000000000002 0.2975 0.1275
v 0.38456 1.0301 0.93361 0.23800000000000002 0.2975 0.1275
v -0.04768 0.80977 0.26044 0.28 0.35 0.15
v -0.20748 1.12344 0.60961 0.28 0.35 0.15
v -0.26659 1.04842 0.58256 0.28 0.35 0.15
v -0.04768 0.80977 0.26044 0.23800000000000002 0.2975 0.1275
v -0.14838 1.07047 0.63666 0.23800000000000002 0.2975 0.1275
v -0.20748 1.12344 0.60961 0.23800000000000002 0.2975 0.1275
v -0.20748 1.12344 0.60961 0.28 0.35 0.15
v -0.3806 1.32993 0.98788 0.28 0.35 0.15
v -0.26659 1.04842 0.58256 0.28 0.35 0.15
v -0.20748 1.12344 0.60961 0.23800000000000002 0.2975 0.1275
v -0.14838 1.07047 0.63666 0.23800000000000002 0.2975 0.1275
v -0.3806 1.32993 0.98788 0.23800000000000002 0.2975 0.1275
v 0.86505 -0.1 -0.9663 0.2688 0.2856 0.1344
v 0.84014 1.3323 -0.98726 0.2688 0.2856 0.1344
v 0.86136 1.32947 -0.9663 0.2688 0.2856 0.1344
v 0.86505 -0.1 -0.9663 0.2688 0.2856 0.1344
v 0.84005 -0.1 -0.9913 0.2688 0.2856 0.1344
v 0.84014 1.3323 -0.98726 0.2688 0.2856 0.1344
v 0.84005 -0.1 -0.9913 0.31113327669410845 0.3305791064874903 0.15556663834705423
v 0.81989 1.3326 -0.9663 0.31113327669410845 0.3305791064874903 0.15556663834705423
v 0.84014 1.3323 -0.98726 0.31113327669410845 0.3305791064874903 0.15556663834705423
v 0.84005 -0.1 -0.9913 0.31113327669410845 0.3305791064874903 0.15556663834705423
v 0.81566 -0.1 -0.9663 0.31113327669410845 0.3305791064874903 0.15556663834705423
v 0.81989 1.3326 -0.9663 0.31113327669410845 0.3305791064874903 0.15556663834705423
v 0.81566 -0.1 -0.9663 0.2981248008655005 0.3167576009195943 0.14906240043275026
v 0.83996 1.32986 -0.94533 0.2981248008655005 0.3167576009195943 0.14906240043275026
v 0.81989 1.3326 -0.9663 0.2981248008655005 0.3167576009195943 0.14906240043275026
v 0.81566 -0.1 -0.9663 0.2981248008655005 0.3167576009195943 0.14906240043275026
v 0.84005 -0.1 -0.9413 0.2981248008655005 0.3167576009195943 0.14906240043275026
v 0.83996 1.32986 -0.94533 0.2981248008655005 0.3167576009195943 0.14906240043275026
v 0.84005 -0.1 -0.9413 0.2727973386564482 0.2898471723224762 0.1363986693282241
v 0.86136 1.32947 -0.9663 0.2727973386564482 0.2898471723224762 0.1363986693282241
v 0.83996 1.32986 -0.94533 0.2727973386564482 0.2898471723224762 0.1363986693282241
v 0.84005 -0.1 -0.9413 0.2727973386564482 0.2898471723224762 0.1363986693282241
v 0.86505 -0.1 -0.9663 0.2727973386564482 0.2898471723224762 0.1363986693282241
v 0.86136 1.32947 -0.9663 0.2727973386564482 0.2898471723224762 0.1363986693282241
v 0.86136 1.32947 -0.9663 0.3050533590156069 0.3241191939540823 0.15252667950780344
v 1.02026 2.28625 -0.83421 0.3050533590156069 0.3241191939540823 0.15252667950780344
v 1.02816 2.2836 -0.8263 0.3050533590156069 0.3241191939540823 0.15252667950780344
v 0.86136 1.32947 -0.9663 0.3050533590156069 0.3241191939540823 0.15252667950780344
v 0.84014 1.3323 -0.98726 0.3050533590156069 0.3241191939540823 0.15252667950780344
v 1.02026 2.28625 -0.83421 0.3050533590156069 0.3241191939540823 0.15252667950780344
v 0.84014 1.3323 -0.98726 0.2698196406617506 0.2866833682031101 0.1349098203308753
v 1.01253 2.28655 -0.8263 0.2698196406617506 0.2866833682031101 0.1349098203308753
v 1.02026 2.28625 -0.83421 0.2698196406617506 0.2866833682031101 0.1349098203308753
v 0.84014 1.3323 -0.98726 0.2698196406617506 0.2866833682031101 0.1349098203308753
v 0.81989 1.3326 -0.9663 0.2698196406617506 0.2866833682031101 0.1349098203308753
v 1.01253 2.28655 -0.8263 0.2698196406617506 0.2866833682031101 0.1349098203308753
v 0.81989 1.3326 -0.9663 0.3158802311443572 0.3356227455908795 0.1579401155721786
v 1.01984 2.28401 -0.81838 0.3158802311443572 0.3356227455908795 0.1579401155721786
v 1.01253 2.28655 -0.8263 0.3158802311443572 0.3356227455908795 0.1579401155721786
v 0.81989 1.3326 -0.9663 0.3158802311443572 0.3356227455908795 0.1579401155721786
v 0.83996 1.32986 -0.94533 0.3158802311443572 0.3356227455908795 0.1579401155721786
v 1.01984 2.28401 -0.81838 0.3158802311443572 0.3356227455908795 0.1579401155721786
v 0.83996 1.32986 -0.94533 0.29089952721387946 0.3090807476647469 0.14544976360693973
v 1.02816 2.2836 -0.8263 0.29089952721387946 0.3090807476647469 0.14544976360693973
v 1.01984 2.28401 -0.81838 0.29089952721387946 0.3090807476647469 0.14544976360693973
v 0.83996 1.32986 -0.94533 0.29089952721387946 0.3090807476647469 0.14544976360693973
v 0.86136 1.32947 -0.9663 0.29089952721387946 0.3090807476647469 0.14544976360693973
v 1.02816 2.2836 -0.8263 0.29089952721387946 0.3090807476647469 0.14544976360693973
v 1.08505 2.28513 -0.8263 0.2688 0.21 0.1344
v 1.029 2.58513 -0.85483 0.2688 0.21 0.1344
v 1.05057 2.58513 -0.8263 0.2688 0.21 0.1344
v 1.08505 2.28513 -0.8263 0.2688 0.21 0.1344
v 1.03927 2.28513 -0.88812 0.2688 0.21 0.1344
v 1.029 2.58513 -0.85483 0.2688 0.21 0.1344
v 1.03927 2.28513 -0.88812 0.31113327669410845 0.24307287241727224 0.15556663834705423
v 0.99668 2.58513 -0.84393 0.31113327669410845 0.24307287241727224 0.15556663834705423
v 1.029 2.58513 -0.85483 0.31113327669410845 0.24307287241727224 0.15556663834705423
v 1.03927 2.28513 -0.88812 0.31113327669410845 0.24307287241727224 0.15556663834705423
v 0.96875 2.28513 -0.8645 0.31113327669410845 0.24307287241727224 0.15556663834705423
v 0.99668 2.58513 -0.84393 0.31113327669410845 0.24307287241727224 0.15556663834705423
v 0.96875 2.28513 -0.8645 0.2981248008655005 0.23291000067617226 0.14906240043275026
v 0.99545 2.58513 -0.80866 0.2981248008655005 0.23291000067617226 0.14906240043275026
v 0.99668 2.58513 -0.84393 0.2981248008655005 0.23291000067617226 0.14906240043275026
v 0.96875 2.28513 -0.8645 0.2981248008655005 0.23291000067617226 0.14906240043275026
v 0.96592 2.28513 -0.78809 0.2981248008655005 0.23291000067617226 0.14906240043275026
v 0.99545 2.58513 -0.80866 0.2981248008655005 0.23291000067617226 0.14906240043275026
v 0.96592 2.28513 -0.78809 0.2727973386564482 0.21312292082535014 0.1363986693282241
v 1.02974 2.58513 -0.79777 0.2727973386564482 0.21312292082535014 0.1363986693282241
v 0.99545 2.58513 -0.80866 0.2727973386564482 0.21312292082535014 0.1363986693282241
v 0.96592 2.28513 -0.78809 0.2727973386564482 0.21312292082535014 0.1363986693282241
v 1.04096 2.28513 -0.76448 0.2727973386564482 0.21312292082535014 0.1363986693282241
v 1.02974 2.58513 -0.79777 0.2727973386564482 0.21312292082535014 0.1363986693282241
v 1.04096 2.28513 -0.76448 0.31891608269627864 0.24915318960646768 0.15945804134813932
v 1.05057 2.58513 -0.8263 0.31891608269627864 0.24915318960646768 0.15945804134813932
v 1.02974 2.58513 -0.79777 0.31891608269627864 0.24915318960646768 0.15945804134813932
v 1.04096 2.28513 -0.76448 0.31891608269627864 0.24915318960646768 0.15945804134813932
v 1.08505 2.28513 -0.8263 0.31891608269627864 0.24915318960646768 0.15945804134813932
v 1.05057 2.58513 -0.8263 0.31891608269627864 0.24915318960646768 0.15945804134813932
v 0.84005 0.37703 -0.9663 0.28 0.35 0.15
v 0.5842 0.31047 -0.67995 0.28 0.35 0.15
v 0.53573 0.21397 -0.72325 0.28 0.35 0.15
v 0.84005 0.37703 -0.9663 0.23800000000000002 0.2975 0.1275
v 0.63267 0.27897 -0.63664 0.23800000000000002 0.2975 0.1275
v 0.5842 0.31047 -0.67995 0.23800000000000002 0.2975 0.1275
v 0.5842 0.31047 -0.67995 0.28 0.35 0.15
v 0.30703 0.10504 -0.36973 0.28 0.35 0.15
v 0.53573 0.21397 -0.72325 0.28 0.35 0.15
v 0.5842 0.31047 -0.67995 0.23800000000000002 0.2975 0.1275
v 0.63267 0.27897 -0.63664 0.23800000000000002 0.2975 0.1275
v 0.30703 0.10504 -0.36973 0.23800000000000002 0.2975 0.1275
v 0.84005 0.7825 -0.9663 0.28 0.35 0.15
v 0.46086 1.01298 -1.02687 0.28 0.35 0.15
v 0.47111 0.96752 -1.09106 0.28 0.35 0.15
v 0.84005 0.7825 -0.9663 0.23800000000000002 0.2975 0.1275
v 0.4506 0.93044 -0.96268 0.23800000000000002 0.2975 0.1275
v 0.46086 1.01298 -1.02687 0.23800000000000002 0.2975 0.1275
v 0.46086 1.01298 -1.02687 0.28 0.35 0.15
v 0.05006 1.12933 -1.09249 0.28 0.35 0.15
v 0.47111 0.96752 -1.09106 0.28 0.35 0.15
v 0.46086 1.01298 -1.02687 0.23800000000000002 0.2975 0.1275
v 0.4506 0.93044 -0.96268 0.23800000000000002 0.2975 0.1275
v 0.05006 1.12933 -1.09249 0.23800000000000002 0.2975 0.1275
v 0.84005 1.18797 -0.9663 0.28 0.35 0.15
v 0.68614 1.53745 -1.3181 0.28 0.35 0.15
v 0.74569 1.48463 -1.34416 0.28 0.35 0.15
v 0.84005 1.18797 -0.9663 0.23800000000000002 0.2975 0.1275
v 0.62659 1.46227 -1.29205 0.23800000000000002 0.2975 0.1275
v 0.68614 1.53745 -1.3181 0.23800000000000002 0.2975 0.1275
v 0.68614 1.53745 -1.3181 0.28 0.35 0.15
v 0.51941 1.78272 -1.69923 0.28 0.35 0.15
v 0.74569 1.48463 -1.34416 0.28 0.35 0.15
v 0.68614 1.53745 -1.3181 0.23800000000000002 0.2975 0.1275
v 0.62659 1.46227 -1.29205 0.23800000000000002 0.2975 0.1275
v 0.51941 1.78272 -1.69923 0.23800000000000002 0.2975 0.1275
v 0.43323 -0.1 0.60799 0.2688 0.2856 0.1344
v 0.40834 1.19958 0.58703 0.2688 0.2856 0.1344
v 0.42952 1.19646 0.60799 0.2688 0.2856 0.1344
v 0.43323 -0.1 0.60799 0.2688 0.2856 0.1344
v 0.40823 -0.1 0.58299 0.2688 0.2856 0.1344
v 0.40834 1.19958 0.58703 0.2688 0.2856 0.1344
v 0.40823 -0.1 0.58299 0.31113327669410845 0.3305791064874903 0.15556663834705423
v 0.38808 1.19991 0.60799 0.31113327669410845 0.3305791064874903 0.15556663834705423
v 0.40834 1.19958 0.58703 0.31113327669410845 0.3305791064874903 0.15556663834705423
v 0.40823 -0.1 0.58299 0.31113327669410845 0.3305791064874903 0.15556663834705423
v 0.38384 -0.1 0.60799 0.31113327669410845 0.3305791064874903 0.15556663834705423
v 0.38808 1.19991 0.60799 0.31113327669410845 0.3305791064874903 0.15556663834705423
v 0.38384 -0.1 0.60799 0.2981248008655005 0.3167576009195943 0.14906240043275026
v 0.40812 1.19689 0.62895 0.2981248008655005 0.3167576009195943 0.14906240043275026
v 0.38808 1.19991 0.60799 0.2981248008655005 0.3167576009195943 0.14906240043275026
v 0.38384 -0.1 0.60799 0.2981248008655005 0.3167576009195943 0.14906240043275026
v 0.40823 -0.1 0.63299 0.2981248008655005 0.3167576009195943 0.14906240043275026
v 0.40812 1.19689 0.62895 0.2981248008655005 0.3167576009195943 0.14906240043275026
v 0.40823 -0.1 0.63299 0.2727973386564482 0.2898471723224762 0.1363986693282241
v 0.42952 1.19646 0.60799 0.2727973386564482 0.2898471723224762 0.1363986693282241
v 0.40812 1.19689 0.62895 0.2727973386564482 0.2898471723224762 0.1363986693282241
v 0.40823 -0.1 0.63299 0.2727973386564482 0.2898471723224762 0.1363986693282241
v 0.43323 -0.1 0.60799 0.2727973386564482 0.2898471723224762 0.1363986693282241
v 0.42952 1.19646 0.60799 0.2727973386564482 0.2898471723224762 0.1363986693282241
v 0.42952 1.19646 0.60799 0.3050533590156069 0.3241191939540823 0.15252667950780344
v 0.58848 2.06495 0.74009 0.3050533590156069 0.3241191939540823 0.15252667950780344
v 0.59631 2.06205 0.74799 0.3050533590156069 0.3241191939540823 0.15252667950780344
v 0.42952 1.19646 0.60799 0.3050533590156069 0.3241191939540823 0.15252667950780344
v 0.40834 1.19958 0.58703 0.3050533590156069 0.3241191939540823 0.15252667950780344
v 0.58848 2.06495 0.74009 0.3050533590156069 0.3241191939540823 0.15252667950780344
v 0.40834 1.19958 0.58703 0.2698196406617506 0.2866833682031101 0.1349098203308753
v 0.58074 2.06528 0.74799 0.2698196406617506 0.2866833682031101 0.1349098203308753
v 0.58848 2.06495 0.74009 0.2698196406617506 0.2866833682031101 0.1349098203308753
v 0.40834 1.19958 0.58703 0.2698196406617506 0.2866833682031101 0.1349098203308753
v 0.38808 1.19991 0.60799 0.2698196406617506 0.2866833682031101 0.1349098203308753
v 0.58074 2.06528 0.74799 0.2698196406617506 0.2866833682031101 0.1349098203308753
v 0.38808 1.19991 0.60799 0.3158802311443572 0.3356227455908795 0.1579401155721786
v 0.58797 2.0625 0.75589 0.3158802311443572 0.3356227455908795 0.1579401155721786
v 0.58074 2.06528 0.74799 0.3158802311443572 0.3356227455908795 0.1579401155721786
v 0.38808 1.19991 0.60799 0.3158802311443572 0.3356227455908795 0.1579401155721786
v 0.40812 1.19689 0.62895 0.3158802311443572 0.3356227455908795 0.1579401155721786
v 0.58797 2.0625 0.75589 0.3158802311443572 0.3356227455908795 0.1579401155721786
v 0.40812 1.19689 0.62895 0.29089952721387946 0.3090807476647469 0.14544976360693973
v 0.59631 2.06205 0.74799 0.29089952721387946 0.3090807476647469 0.14544976360693973
v 0.58797 2.0625 0.75589 0.29089952721387946 0.3090807476647469 0.14544976360693973
v 0.40812 1.19689 0.62895 0.29089952721387946 0.3090807476647469 0.14544976360693973
v 0.42952 1.19646 0.60799 0.29089952721387946 0.3090807476647469 0.14544976360693973
v 0.59631 2.06205 0.74799 0.29089952721387946 0.3090807476647469 0.14544976360693973
v 0.65323 2.06373 0.74799 0.2688 0.21 0.1344
v 0.59718 2.36373 0.71946 0.2688 0.21 0.1344
v 0.61875 2.36373 0.74799 0.2688 0.21 0.1344
v 0.65323 2.06373 0.74799 0.2688 0.21 0.1344
v 0.60745 2.06373 0.68617 0.2688 0.21 0.1344
v 0.59718 2.36373 0.71946 0.2688 0.21 0.1344
v 0.60745 2.06373 0.68617 0.31113327669410845 0.24307287241727224 0.15556663834705423
v 0.56486 2.36373 0.73036 0.31113327669410845 0.24307287241727224 0.15556663834705423
v 0.59718 2.36373 0.71946 0.31113327669410845 0.24307287241727224 0.15556663834705423
v 0.60745 2.06373 0.68617 0.31113327669410845 0.24307287241727224 0.15556663834705423
v 0.53693 2.06373 0.70978 0.31113327669410845 0.24307287241727224 0.15556663834705423
v 0.56486 2.36373 0.73036 0.31113327669410845 0.24307287241727224 0.15556663834705423
v 0.53693 2.06373 0.70978 0.2981248008655005 0.23291000067617226 0.14906240043275026
v 0.56363 2.36373 0.76562 0.2981248008655005 0.23291000067617226 0.14906240043275026
v 0.56486 2.36373 0.73036 0.2981248008655005 0.23291000067617226 0.14906240043275026
v 0.53693 2.06373 0.70978 0.2981248008655005 0.23291000067617226 0.14906240043275026
v 0.5341 2.06373 0.7862 0.2981248008655005 0.23291000067617226 0.14906240043275026
v 0.56363 2.36373 0.76562 0.2981248008655005 0.23291000067617226 0.14906240043275026
v 0.5341 2.06373 0.7862 0.2727973386564482 0.21312292082535014 0.1363986693282241
v 0.59792 2.36373 0.77652 0.2727973386564482 0.21312292082535014 0.1363986693282241
v 0.56363 2.36373 0.76562 0.2727973386564482 0.21312292082535014 0.1363986693282241
v 0.5341 2.06373 0.7862 0.2727973386564482 0.21312292082535014 0.1363986693282241
v 0.60914 2.06373 0.80981 0.2727973386564482 0.21312292082535014 0.1363986693282241
v 0.59792 2.36373 0.77652 0.2727973386564482 0.21312292082535014 0.1363986693282241
v 0.60914 2.06373 0.80981 0.31891608269627864 0.24915318960646768 0.15945804134813932
v 0.61875 2.36373 0.74799 0.31891608269627864 0.24915318960646768 0.15945804134813932
v 0.59792 2.36373 0.77652 0.31891608269627864 0.24915318960646768 0.15945804134813932
v 0.60914 2.06373 0.80981 0.31891608269627864 0.24915318960646768 0.15945804134813932
v 0.65323 2.06373 0.74799 0.31891608269627864 0.24915318960646768 0.15945804134813932
v 0.61875 2.36373 0.74799 0.31891608269627864 0.24915318960646768 0.15945804134813932
v 0.40823 0.33275 0.60799 0.28 0.35 0.15
v 0.36516 0.38567 0.22641 0.28 0.35 0.15
v 0.42975 0.35417 0.21912 0.28 0.35 0.15
v 0.40823 0.33275 0.60799 0.23800000000000002 0.2975 0.1275
v 0.30057 0.28917 0.2337 0.23800000000000002 0.2975 0.1275
v 0.36516 0.38567 0.22641 0.23800000000000002 0.2975 0.1275
v 0.36516 0.38567 0.22641 0.28 0.35 0.15
v 0.31851 0.30967 -0.18696 0.28 0.35 0.15
v 0.42975 0.35417 0.21912 0.28 0.35 0.15
v 0.36516 0.38567 0.22641 0.23800000000000002 0.2975 0.1275
v 0.30057 0.28917 0.2337 0.23800000000000002 0.2975 0.1275
v 0.31851 0.30967 -0.18696 0.23800000000000002 0.2975 0.1275
v 0.40823 0.70058 0.60799 0.28 0.35 0.15
v 0.70605 0.50469 0.36558 0.28 0.35 0.15
v 0.74708 0.42229 0.416 0.28 0.35 0.15
v 0.40823 0.70058 0.60799 0.23800000000000002 0.2975 0.1275
v 0.66501 0.45909 0.31517 0.23800000000000002 0.2975 0.1275
v 0.70605 0.50469 0.36558 0.23800000000000002 0.2975 0.1275
v 0.70605 0.50469 0.36558 0.28 0.35 0.15
v 1.02868 0.15914 0.10298 0.28 0.35 0.15
v 0.74708 0.42229 0.416 0.28 0.35 0.15
v 0.70605 0.50469 0.36558 0.23800000000000002 0.2975 0.1275
v 0.66501 0.45909 0.31517 0.23800000000000002 0.2975 0.1275
v 1.02868 0.15914 0.10298 0.23800000000000002 0.2975 0.1275
v 0.40823 1.06841 0.60799 0.28 0.35 0.15
v 0.77312 0.90163 0.72762 0.28 0.35 0.15
v 0.75287 0.82629 0.78939 0.28 0.35 0.15
v 0.40823 1.06841 0.60799 0.23800000000000002 0.2975 0.1275
v 0.79337 0.84897 0.66586 0.23800000000000002 0.2975 0.1275
v 0.77312 0.90163 0.72762 0.23800000000000002 0.2975 0.1275
v 0.77312 0.90163 0.72762 0.28 0.35 0.15
v 1.16841 0.58762 0.85722 0.28 0.35 0.15
v 0.75287 0.82629 0.78939 0.28 0.35 0.15
v 0.77312 0.90163 0.72762 0.23800000000000002 0.2975 0.1275
v 0.79337 0.84897 0.66586 0.23800000000000002 0.2975 0.1275
v 1.16841 0.58762 0.85722 0.23800000000000002 0.2975 0.1275
v -0.57227 -0.1 0.63883 0.2688 0.2856 0.1344
v -0.59713 1.0916 0.61789 0.2688 0.2856 0.1344
v -0.57599 1.08821 0.63883 0.2688 0.2856 0.1344
v -0.57227 -0.1 0.63883 0.2688 0.2856 0.1344
v -0.59727 -0.1 0.61383 0.2688 0.2856 0.1344
v -0.59713 1.0916 0.61789 0.2688 0.2856 0.1344
v -0.59727 -0.1 0.61383 0.31113327669410845 0.3305791064874903 0.15556663834705423
v -0.6174 1.09196 0.63883 0.31113327669410845 0.3305791064874903 0.15556663834705423
v -0.59713 1.0916 0.61789 0.31113327669410845 0.3305791064874903 0.15556663834705423
v -0.59727 -0.1 0.61383 0.31113327669410845 0.3305791064874903 0.15556663834705423
v -0.62165 -0.1 0.63883 0.31113327669410845 0.3305791064874903 0.15556663834705423
v -0.6174 1.09196 0.63883 0.31113327669410845 0.3305791064874903 0.15556663834705423
v -0.62165 -0.1 0.63883 0.2981248008655005 0.3167576009195943 0.14906240043275026
v -0.5974 1.08867 0.65978 0.2981248008655005 0.3167576009195943 0.14906240043275026
v -0.6174 1.09196 0.63883 0.2981248008655005 0.3167576009195943 0.14906240043275026
v -0.62165 -0.1 0.63883 0.2981248008655005 0.3167576009195943 0.14906240043275026
v -0.59727 -0.1 0.66383 0.2981248008655005 0.3167576009195943 0.14906240043275026
v -0.5974 1.08867 0.65978 0.2981248008655005 0.3167576009195943 0.14906240043275026
v -0.59727 -0.1 0.66383 0.2727973386564482 0.2898471723224762 0.1363986693282241
v -0.57599 1.08821 0.63883 0.2727973386564482 0.2898471723224762 0.1363986693282241
v -0.5974 1.08867 0.65978 0.2727973386564482 0.2898471723224762 0.1363986693282241
v -0.59727 -0.1 0.66383 0.2727973386564482 0.2898471723224762 0.1363986693282241
v -0.57227 -0.1 0.63883 0.2727973386564482 0.2898471723224762 0.1363986693282241
v -0.57599 1.08821 0.63883 0.2727973386564482 0.2898471723224762 0.1363986693282241
v -0.57599 1.08821 0.63883 0.3050533590156069 0.3241191939540823 0.15252667950780344
v -0.41697 1.88489 0.77095 0.3050533590156069 0.3241191939540823 0.15252667950780344
v -0.40921 1.88174 0.77883 0.3050533590156069 0.3241191939540823 0.15252667950780344
v -0.57599 1.08821 0.63883 0.3050533590156069 0.3241191939540823 0.15252667950780344
v -0.59713 1.0916 0.61789 0.3050533590156069 0.3241191939540823 0.15252667950780344
v -0.41697 1.88489 0.77095 0.3050533590156069 0.3241191939540823 0.15252667950780344
v -0.59713 1.0916 0.61789 0.2698196406617506 0.2866833682031101 0.1349098203308753
v -0.42472 1.88525 0.77883 0.2698196406617506 0.2866833682031101 0.1349098203308753
v -0.41697 1.88489 0.77095 0.2698196406617506 0.2866833682031101 0.1349098203308753
v -0.59713 1.0916 0.61789 0.2698196406617506 0.2866833682031101 0.1349098203308753
v -0.6174 1.09196 0.63883 0.2698196406617506 0.2866833682031101 0.1349098203308753
v -0.42472 1.88525 0.77883 0.2698196406617506 0.2866833682031101 0.1349098203308753
v -0.6174 1.09196 0.63883 0.3158802311443572 0.3356227455908795 0.1579401155721786
v -0.41757 1.88224 0.78672 0.3158802311443572 0.3356227455908795 0.1579401155721786
v -0.42472 1.88525 0.77883 0.3158802311443572 0.3356227455908795 0.1579401155721786
v -0.6174 1.09196 0.63883 0.3158802311443572 0.3356227455908795 0.1579401155721786
v -0.5974 1.08867 0.65978 0.3158802311443572 0.3356227455908795 0.1579401155721786
v -0.41757 1.88224 0.78672 0.3158802311443572 0.3356227455908795 0.1579401155721786
v -0.5974 1.08867 0.65978 0.29089952721387946 0.3090807476647469 0.14544976360693973
v -0.40921 1.88174 0.77883 0.29089952721387946 0.3090807476647469 0.14544976360693973
v -0.41757 1.88224 0.78672 0.29089952721387946 0.3090807476647469 0.14544976360693973
v -0.5974 1.08867 0.65978 0.29089952721387946 0.3090807476647469 0.14544976360693973
v -0.57599 1.08821 0.63883 0.29089952721387946 0.3090807476647469 0.14544976360693973
v -0.40921 1.88174 0.77883 0.29089952721387946 0.3090807476647469 0.14544976360693973
v -0.35227 1.88356 0.77883 0.2688 0.21 0.1344
v -0.40832 2.18356 0.7503 0.2688 0.21 0.1344
v -0.38674 2.18356 0.77883 0.2688 0.21 0.1344
v -0.35227 1.88356 0.77883 0.2688 0.21 0.1344
v -0.39805 1.88356 0.71702 0.2688 0.21 0.1344
v -0.40832 2.18356 0.7503 0.2688 0.21 0.1344
v -0.39805 1.88356 0.71702 0.31113327669410845 0.24307287241727224 0.15556663834705423
v -0.44063 2.18356 0.7612 0.31113327669410845 0.24307287241727224 0.15556663834705423
v -0.40832 2.18356 0.7503 0.31113327669410845 0.24307287241727224 0.15556663834705423
v -0.39805 1.88356 0.71702 0.31113327669410845 0.24307287241727224 0.15556663834705423
v -0.46856 1.88356 0.74063 0.31113327669410845 0.24307287241727224 0.15556663834705423
v -0.44063 2.18356 0.7612 0.31113327669410845 0.24307287241727224 0.15556663834705423
v -0.46856 1.88356 0.74063 0.2981248008655005 0.23291000067617226 0.14906240043275026
v -0.44187 2.18356 0.79647 0.2981248008655005 0.23291000067617226 0.14906240043275026
v -0.44063 2.18356 0.7612 0.2981248008655005 0.23291000067617226 0.14906240043275026
v -0.46856 1.88356 0.74063 0.2981248008655005 0.23291000067617226 0.14906240043275026
v -0.47139 1.88356 0.81704 0.2981248008655005 0.23291000067617226 0.14906240043275026
v -0.44187 2.18356 0.79647 0.2981248008655005 0.23291000067617226 0.14906240043275026
v -0.47139 1.88356 0.81704 0.2727973386564482 0.21312292082535014 0.1363986693282241
v -0.40758 2.18356 0.80737 0.2727973386564482 0.21312292082535014 0.1363986693282241
v -0.44187 2.18356 0.79647 0.2727973386564482 0.21312292082535014 0.1363986693282241
v -0.47139 1.88356 0.81704 0.2727973386564482 0.21312292082535014 0.1363986693282241
v -0.39635 1.88356 0.84065 0.2727973386564482 0.21312292082535014 0.1363986693282241
v -0.40758 2.18356 0.80737 0.2727973386564482 0.21312292082535014 0.1363986693282241
v -0.39635 1.88356 0.84065 0.31891608269627864 0.24915318960646768 0.15945804134813932
v -0.38674 2.18356 0.77883 0.31891608269627864 0.24915318960646768 0.15945804134813932
v -0.40758 2.18356 0.80737 0.31891608269627864 0.24915318960646768 0.15945804134813932
v -0.39635 1.88356 0.84065 0.31891608269627864 0.24915318960646768 0.15945804134813932
v -0.35227 1.88356 0.77883 0.31891608269627864 0.24915318960646768 0.15945804134813932
v -0.38674 2.18356 0.77883 0.31891608269627864 0.24915318960646768 0.15945804134813932
v -0.59727 0.29671 0.63883 0.28 0.35 0.15
v -0.28403 0.24122 0.86096 0.28 0.35 0.15
v -0.32163 0.14472 0.91398 0.28 0.35 0.15
v -0.59727 0.29671 0.63883 0.23800000000000002 0.2975 0.1275
v -0.24643 0.20972 0.80793 0.23800000000000002 0.2975 0.1275
v -0.28403 0.24122 0.86096 0.23800000000000002 0.2975 0.1275
v -0.28403 0.24122 0.86096 0.28 0.35 0.15
v 0.05531 0.04777 1.10159 0.28 0.35 0.15
v -0.32163 0.14472 0.91398 0.28 0.35 0.15
v -0.28403 0.24122 0.86096 0.23800000000000002 0.2975 0.1275
v -0.24643 0.20972 0.80793 0.23800000000000002 0.2975 0.1275
v 0.05531 0.04777 1.10159 0.23800000000000002 0.2975 0.1275
v -0.59727 0.63392 0.63883 0.28 0.35 0.15
v -0.61493 0.87426 1.02243 0.28 0.35 0.15
v -0.67986 0.82853 1.01944 0.28 0.35 0.15
v -0.59727 0.63392 0.63883 0.23800000000000002 0.2975 0.1275
v -0.55 0.792 1.02542 0.23800000000000002 0.2975 0.1275
v -0.61493 0.87426 1.02243 0.23800000000000002 0.2975 0.1275
v -0.61493 0.87426 1.02243 0.28 0.35 0.15
v -0.63407 1.0013 1.43799 0.28 0.35 0.15
v -0.67986 0.82853 1.01944 0.28 0.35 0.15
v -0.61493 0.87426 1.02243 0.23800000000000002 0.2975 0.1275
v -0.55 0.792 1.02542 0.23800000000000002 0.2975 0.1275
v -0.63407 1.0013 1.43799 0.23800000000000002 0.2975 0.1275
v -0.59727 0.97112 0.63883 0.28 0.35 0.15
v -0.92959 1.31873 0.83123 0.28 0.35 0.15
v -0.96216 1.26623 0.77497 0.28 0.35 0.15
v -0.59727 0.97112 0.63883 0.23800000000000002 0.2975 0.1275
v -0.89703 1.24323 0.88748 0.23800000000000002 0.2975 0.1275
v -0.92959 1.31873 0.83123 0.23800000000000002 0.2975 0.1275
v -0.92959 1.31873 0.83123 0.28 0.35 0.15
v -1.28961 1.56196 1.03965 0.28 0.35 0.15
v -0.96216 1.26623 0.77497 0.28 0.35 0.15
v -0.92959 1.31873 0.83123 0.23800000000000002 0.2975 0.1275
v -0.89703 1.24323 0.88748 0.23800000000000002 0.2975 0.1275
v -1.28961 1.56196 1.03965 0.23800000000000002 0.2975 0.1275
v -0.68014 -0.1 0.72266 0.2688 0.2856 0.1344
v -0.70496 0.9385 0.70173 0.2688 0.2856 0.1344
v -0.68389 0.93461 0.72266 0.2688 0.2856 0.1344
v -0.68014 -0.1 0.72266 0.2688 0.2856 0.1344
v -0.70514 -0.1 0.69766 0.2688 0.2856 0.1344
v -0.70496 0.9385 0.70173 0.2688 0.2856 0.1344
v -0.70514 -0.1 0.69766 0.31113327669410845 0.3305791064874903 0.15556663834705423
v -0.72525 0.93892 0.72266 0.31113327669410845 0.3305791064874903 0.15556663834705423
v -0.70496 0.9385 0.70173 0.31113327669410845 0.3305791064874903 0.15556663834705423
v -0.70514 -0.1 0.69766 0.31113327669410845 0.3305791064874903 0.15556663834705423
v -0.72953 -0.1 0.72266 0.31113327669410845 0.3305791064874903 0.15556663834705423
v -0.72525 0.93892 0.72266 0.31113327669410845 0.3305791064874903 0.15556663834705423
v -0.72953 -0.1 0.72266 0.2981248008655005 0.3167576009195943 0.14906240043275026
v -0.70531 0.93515 0.74359 0.2981248008655005 0.3167576009195943 0.14906240043275026
v -0.72525 0.93892 0.72266 0.2981248008655005 0.3167576009195943 0.14906240043275026
v -0.72953 -0.1 0.72266 0.2981248008655005 0.3167576009195943 0.14906240043275026
v -0.70514 -0.1 0.74766 0.2981248008655005 0.3167576009195943 0.14906240043275026
v -0.70531 0.93515 0.74359 0.2981248008655005 0.3167576009195943 0.14906240043275026
v -0.70514 -0.1 0.74766 0.2727973386564482 0.2898471723224762 0.1363986693282241
v -0.68389 0.93461 0.72266 0.2727973386564482 0.2898471723224762 0.1363986693282241
v -0.70531 0.93515 0.74359 0.2727973386564482 0.2898471723224762 0.1363986693282241
v -0.70514 -0.1 0.74766 0.2727973386564482 0.2898471723224762 0.1363986693282241
v -0.68014 -0.1 0.72266 0.2727973386564482 0.2898471723224762 0.1363986693282241
v -0.68389 0.93461 0.72266 0.2727973386564482 0.2898471723224762 0.1363986693282241
v -0.68389 0.93461 0.72266 0.3050533590156069 0.3241191939540823 0.15252667950780344
v -0.52475 1.62953 0.85481 0.3050533590156069 0.3241191939540823 0.15252667950780344
v -0.51715 1.62596 0.86266 0.3050533590156069 0.3241191939540823 0.15252667950780344
v -0.68389 0.93461 0.72266 0.3050533590156069 0.3241191939540823 0.15252667950780344
v -0.70496 0.9385 0.70173 0.3050533590156069 0.3241191939540823 0.15252667950780344
v -0.52475 1.62953 0.85481 0.3050533590156069 0.3241191939540823 0.15252667950780344
v -0.70496 0.9385 0.70173 0.2698196406617506 0.2866833682031101 0.1349098203308753
v -0.53254 1.62997 0.86266 0.2698196406617506 0.2866833682031101 0.1349098203308753
v -0.52475 1.62953 0.85481 0.2698196406617506 0.2866833682031101 0.1349098203308753
v -0.70496 0.9385 0.70173 0.2698196406617506 0.2866833682031101 0.1349098203308753
v -0.72525 0.93892 0.72266 0.2698196406617506 0.2866833682031101 0.1349098203308753
v -0.53254 1.62997 0.86266 0.2698196406617506 0.2866833682031101 0.1349098203308753
v -0.72525 0.93892 0.72266 0.3158802311443572 0.3356227455908795 0.1579401155721786
v -0.52553 1.62655 0.87051 0.3158802311443572 0.3356227455908795 0.1579401155721786
v -0.53254 1.62997 0.86266 0.3158802311443572 0.3356227455908795 0.1579401155721786
v -0.72525 0.93892 0.72266 0.3158802311443572 0.3356227455908795 0.1579401155721786
v -0.70531 0.93515 0.74359 0.3158802311443572 0.3356227455908795 0.1579401155721786
v -0.52553 1.62655 0.87051 0.3158802311443572 0.3356227455908795 0.1579401155721786
v -0.70531 0.93515 0.74359 0.29089952721387946 0.3090807476647469 0.14544976360693973
v -0.51715 1.62596 0.86266 0.29089952721387946 0.3090807476647469 0.14544976360693973
v -0.52553 1.62655 0.87051 0.29089952721387946 0.3090807476647469 0.14544976360693973
v -0.70531 0.93515 0.74359 0.29089952721387946 0.3090807476647469 0.14544976360693973
v -0.68389 0.93461 0.72266 0.29089952721387946 0.3090807476647469 0.14544976360693973
v -0.51715 1.62596 0.86266 0.29089952721387946 0.3090807476647469 0.14544976360693973
v -0.46014 1.62804 0.86266 0.2688 0.21 0.1344
v -0.51619 1.92804 0.83413 0.2688 0.21 0.1344
v -0.49461 1.92804 0.86266 0.2688 0.21 0.1344
v -0.46014 1.62804 0.86266 0.2688 0.21 0.1344
v -0.50592 1.62804 0.80084 0.2688 0.21 0.1344
v -0.51619 1.92804 0.83413 0.2688 0.21 0.1344
v -0.50592 1.62804 0.80084 0.31113327669410845 0.24307287241727224 0.15556663834705423
v -0.5485 1.92804 0.84503 0.31113327669410845 0.24307287241727224 0.15556663834705423
v -0.51619 1.92804 0.83413 0.31113327669410845 0.24307287241727224 0.15556663834705423
v -0.50592 1.62804 0.80084 0.31113327669410845 0.24307287241727224 0.15556663834705423
v -0.57644 1.62804 0.82446 0.31113327669410845 0.24307287241727224 0.15556663834705423
v -0.5485 1.92804 0.84503 0.31113327669410845 0.24307287241727224 0.15556663834705423
v -0.57644 1.62804 0.82446 0.2981248008655005 0.23291000067617226 0.14906240043275026
v -0.54974 1.92804 0.8803 0.2981248008655005 0.23291000067617226 0.14906240043275026
v -0.5485 1.92804 0.84503 0.2981248008655005 0.23291000067617226 0.14906240043275026
v -0.57644 1.62804 0.82446 0.2981248008655005 0.23291000067617226 0.14906240043275026
v -0.57926 1.62804 0.90087 0.2981248008655005 0.23291000067617226 0.14906240043275026
v -0.54974 1.92804 0.8803 0.2981248008655005 0.23291000067617226 0.14906240043275026
v -0.57926 1.62804 0.90087 0.2727973386564482 0.21312292082535014 0.1363986693282241
v -0.51545 1.92804 0.89119 0.2727973386564482 0.21312292082535014 0.1363986693282241
v -0.54974 1.92804 0.8803 0.2727973386564482 0.21312292082535014 0.1363986693282241
v -0.57926 1.62804 0.90087 0.2727973386564482 0.21312292082535014 0.1363986693282241
v -0.50423 1.62804 0.92448 0.2727973386564482 0.21312292082535014 0.1363986693282241
v -0.51545 1.92804 0.89119 0.2727973386564482 0.21312292082535014 0.1363986693282241
v -0.50423 1.62804 0.92448 0.31891608269627864 0.24915318960646768 0.15945804134813932
v -0.49461 1.92804 0.86266 0.31891608269627864 0.24915318960646768 0.15945804134813932
v -0.51545 1.92804 0.89119 0.31891608269627864 0.24915318960646768 0.15945804134813932
v -0.50423 1.62804 0.92448 0.31891608269627864 0.24915318960646768 0.15945804134813932
v -0.46014 1.62804 0.86266 0.31891608269627864 0.24915318960646768 0.15945804134813932
v -0.49461 1.92804 0.86266 0.31891608269627864 0.24915318960646768 0.15945804134813932
v -0.70514 0.24561 0.72266 0.28 0.35 0.15
v -1.07948 0.13951 0.80825 0.28 0.35 0.15
v -1.09397 0.108 0.74489 0.28 0.35 0.15
v -0.70514 0.24561 0.72266 0.23800000000000002 0.2975 0.1275
v -1.06499 0.04302 0.87162 0.23800000000000002 0.2975 0.1275
v -1.07948 0.13951 0.80825 0.23800000000000002 0.2975 0.1275
v -1.07948 0.13951 0.80825 0.28 0.35 0.15
v -1.48501 -0.10876 0.90097 0.28 0.35 0.15
v -1.09397 0.108 0.74489 0.28 0.35 0.15
v -1.07948 0.13951 0.80825 0.23800000000000002 0.2975 0.1275
v -1.06499 0.04302 0.87162 0.23800000000000002 0.2975 0.1275
v -1.48501 -0.10876 0.90097 0.23800000000000002 0.2975 0.1275
v -0.70514 0.53938 0.72266 0.28 0.35 0.15
v -0.97942 0.31852 0.45391 0.28 0.35 0.15
v -0.93392 0.2364 0.40748 0.28 0.35 0.15
v -0.70514 0.53938 0.72266 0.23800000000000002 0.2975 0.1275
v -1.02491 0.27264 0.50034 0.23800000000000002 0.2975 0.1275
v -0.97942 0.31852 0.45391 0.23800000000000002 0.2975 0.1275
v -0.97942 0.31852 0.45391 0.28 0.35 0.15
v -1.27655 -0.05408 0.16276 0.28 0.35 0.15
v -0.93392 0.2364 0.40748 0.28 0.35 0.15
v -0.97942 0.31852 0.45391 0.23800000000000002 0.2975 0.1275
v -1.02491 0.27264 0.50034 0.23800000000000002 0.2975 0.1275
v -1.27655 -0.05408 0.16276 0.23800000000000002 0.2975 0.1275
v -0.70514 0.83314 0.72266 0.28 0.35 0.15
v -0.62718 0.80215 0.34666 0.28 0.35 0.15
v -0.56354 0.72649 0.35985 0.28 0.35 0.15
v -0.70514 0.83314 0.72266 0.23800000000000002 0.2975 0.1275
v -0.69083 0.74981 0.33346 0.23800000000000002 0.2975 0.1275
v -0.62718 0.80215 0.34666 0.23800000000000002 0.2975 0.1275
v -0.62718 0.80215 0.34666 0.28 0.35 0.15
v -0.54273 0.63523 -0.06068 0.28 0.35 0.15
v -0.56354 0.72649 0.35985 0.28 0.35 0.15
v -0.62718 0.80215 0.34666 0.23800000000000002 0.2975 0.1275
v -0.69083 0.74981 0.33346 0.23800000000000002 0.2975 0.1275
v -0.54273 0.63523 -0.06068 0.23800000000000002 0.2975 0.1275
v 0.46758 -0.1 -0.83267 0.2688 0.2856 0.1344
v 0.44271 1.11066 -0.85362 0.2688 0.2856 0.1344
v 0.46386 1.10731 -0.83267 0.2688 0.2856 0.1344
v 0.46758 -0.1 -0.83267 0.2688 0.2856 0.1344
v 0.44258 -0.1 -0.85767 0.2688 0.2856 0.1344
v 0.44271 1.11066 -0.85362 0.2688 0.2856 0.1344
v 0.44258 -0.1 -0.85767 0.31113327669410845 0.3305791064874903 0.15556663834705423
v 0.42244 1.11101 -0.83267 0.31113327669410845 0.3305791064874903 0.15556663834705423
v 0.44271 1.11066 -0.85362 0.31113327669410845 0.3305791064874903 0.15556663834705423
v 0.44258 -0.1 -0.85767 0.31113327669410845 0.3305791064874903 0.15556663834705423
v 0.41819 -0.1 -0.83267 0.31113327669410845 0.3305791064874903 0.15556663834705423
v 0.42244 1.11101 -0.83267 0.31113327669410845 0.3305791064874903 0.15556663834705423
v 0.41819 -0.1 -0.83267 0.2981248008655005 0.3167576009195943 0.14906240043275026
v 0.44245 1.10777 -0.81172 0.2981248008655005 0.3167576009195943 0.14906240043275026
v 0.42244 1.11101 -0.83267 0.2981248008655005 0.3167576009195943 0.14906240043275026
v 0.41819 -0.1 -0.83267 0.2981248008655005 0.3167576009195943 0.14906240043275026
v 0.44258 -0.1 -0.80767 0.2981248008655005 0.3167576009195943 0.14906240043275026
v 0.44245 1.10777 -0.81172 0.2981248008655005 0.3167576009195943 0.14906240043275026
v 0.44258 -0.1 -0.80767 0.2727973386564482 0.2898471723224762 0.1363986693282241
v 0.46386 1.10731 -0.83267 0.2727973386564482 0.2898471723224762 0.1363986693282241
v 0.44245 1.10777 -0.81172 0.2727973386564482 0.2898471723224762 0.1363986693282241
v 0.44258 -0.1 -0.80767 0.2727973386564482 0.2898471723224762 0.1363986693282241
v 0.46758 -0.1 -0.83267 0.2727973386564482 0.2898471723224762 0.1363986693282241
v 0.46386 1.10731 -0.83267 0.2727973386564482 0.2898471723224762 0.1363986693282241
v 0.46386 1.10731 -0.83267 0.3050533590156069 0.3241191939540823 0.15252667950780344
v 0.62287 1.91666 -0.70056 0.3050533590156069 0.3241191939540823 0.15252667950780344
v 0.63064 1.91356 -0.69267 0.3050533590156069 0.3241191939540823 0.15252667950780344
v 0.46386 1.10731 -0.83267 0.3050533590156069 0.3241191939540823 0.15252667950780344
v 0.44271 1.11066 -0.85362 0.3050533590156069 0.3241191939540823 0.15252667950780344
v 0.62287 1.91666 -0.70056 0.3050533590156069 0.3241191939540823 0.15252667950780344
v 0.44271 1.11066 -0.85362 0.2698196406617506 0.2866833682031101 0.1349098203308753
v 0.61511 1.91702 -0.69267 0.2698196406617506 0.2866833682031101 0.1349098203308753
v 0.62287 1.91666 -0.70056 0.2698196406617506 0.2866833682031101 0.1349098203308753
v 0.44271 1.11066 -0.85362 0.2698196406617506 0.2866833682031101 0.1349098203308753
v 0.42244 1.11101 -0.83267 0.2698196406617506 0.2866833682031101 0.1349098203308753
v 0.61511 1.91702 -0.69267 0.2698196406617506 0.2866833682031101 0.1349098203308753
v 0.42244 1.11101 -0.83267 0.3158802311443572 0.3356227455908795 0.1579401155721786
v 0.62229 1.91405 -0.68478 0.3158802311443572 0.3356227455908795 0.1579401155721786
v 0.61511 1.91702 -0.69267 0.3158802311443572 0.3356227455908795 0.1579401155721786
v 0.42244 1.11101 -0.83267 0.3158802311443572 0.3356227455908795 0.1579401155721786
v 0.44245 1.10777 -0.81172 0.3158802311443572 0.3356227455908795 0.1579401155721786
v 0.62229 1.91405 -0.68478 0.3158802311443572 0.3356227455908795 0.1579401155721786
v 0.44245 1.10777 -0.81172 0.29089952721387946 0.3090807476647469 0.14544976360693973
v 0.63064 1.91356 -0.69267 0.29089952721387946 0.3090807476647469 0.14544976360693973
v 0.62229 1.91405 -0.68478 0.29089952721387946 0.3090807476647469 0.14544976360693973
v 0.44245 1.10777 -0.81172 0.29089952721387946 0.3090807476647469 0.14544976360693973
v 0.46386 1.10731 -0.83267 0.29089952721387946 0.3090807476647469 0.14544976360693973
v 0.63064 1.91356 -0.69267 0.29089952721387946 0.3090807476647469 0.14544976360693973
v 0.68758 1.91536 -0.69267 0.2688 0.21 0.1344
v 0.63153 2.21536 -0.7212 0.2688 0.21 0.1344
v 0.6531 2.21536 -0.69267 0.2688 0.21 0.1344
v 0.68758 1.91536 -0.69267 0.2688 0.21 0.1344
v 0.6418 1.91536 -0.75449 0.2688 0.21 0.1344
v 0.63153 2.21536 -0.7212 0.2688 0.21 0.1344
v 0.6418 1.91536 -0.75449 0.31113327669410845 0.24307287241727224 0.15556663834705423
v 0.59921 2.21536 -0.7103 0.31113327669410845 0.24307287241727224 0.15556663834705423
v 0.63153 2.21536 -0.7212 0.31113327669410845 0.24307287241727224 0.15556663834705423
v 0.6418 1.91536 -0.75449 0.31113327669410845 0.24307287241727224 0.15556663834705423
v 0.57128 1.91536 -0.73087 0.31113327669410845 0.24307287241727224 0.15556663834705423
v 0.59921 2.21536 -0.7103 0.31113327669410845 0.24307287241727224 0.15556663834705423
v 0.57128 1.91536 -0.73087 0.2981248008655005 0.23291000067617226 0.14906240043275026
v 0.59798 2.21536 -0.67503 0.2981248008655005 0.23291000067617226 0.14906240043275026
v 0.59921 2.21536 -0.7103 0.2981248008655005 0.23291000067617226 0.14906240043275026
v 0.57128 1.91536 -0.73087 0.2981248008655005 0.23291000067617226 0.14906240043275026
v 0.56845 1.91536 -0.65446 0.2981248008655005 0.23291000067617226 0.14906240043275026
v 0.59798 2.21536 -0.67503 0.2981248008655005 0.23291000067617226 0.14906240043275026
v 0.56845 1.91536 -0.65446 0.2727973386564482 0.21312292082535014 0.1363986693282241
v 0.63226 2.21536 -0.66414 0.2727973386564482 0.21312292082535014 0.1363986693282241
v 0.59798 2.21536 -0.67503 0.2727973386564482 0.21312292082535014 0.1363986693282241
v 0.56845 1.91536 -0.65446 0.2727973386564482 0.21312292082535014 0.1363986693282241
v 0.64349 1.91536 -0.63085 0.2727973386564482 0.21312292082535014 0.1363986693282241
v 0.63226 2.21536 -0.66414 0.2727973386564482 0.21312292082535014 0.1363986693282241
v 0.64349 1.91536 -0.63085 0.31891608269627864 0.24915318960646768 0.15945804134813932
v 0.6531 2.21536 -0.69267 0.31891608269627864 0.24915318960646768 0.15945804134813932
v 0.63226 2.21536 -0.66414 0.31891608269627864 0.24915318960646768 0.15945804134813932
v 0.64349 1.91536 -0.63085 0.31891608269627864 0.24915318960646768 0.15945804134813932
v 0.68758 1.91536 -0.69267 0.31891608269627864 0.24915318960646768 0.15945804134813932
v 0.6531 2.21536 -0.69267 0.31891608269627864 0.24915318960646768 0.15945804134813932
v 0.44258 0.30307 -0.83267 0.28 0.35 0.15
v 0.62817 0.185 -1.16884 0.28 0.35 0.15
v 0.68507 0.08851 -1.13743 0.28 0.35 0.15
v 0.44258 0.30307 -0.83267 0.23800000000000002 0.2975 0.1275
v 0.57126 0.15349 -1.20026 0.23800000000000002 0.2975 0.1275
v 0.62817 0.185 -1.16884 0.23800000000000002 0.2975 0.1275
v 0.62817 0.185 -1.16884 0.28 0.35 0.15
v 0.82922 -0.07624 -1.53303 0.28 0.35 0.15
v 0.68507 0.08851 -1.13743 0.28 0.35 0.15
v 0.62817 0.185 -1.16884 0.23800000000000002 0.2975 0.1275
v 0.57126 0.15349 -1.20026 0.23800000000000002 0.2975 0.1275
v 0.82922 -0.07624 -1.53303 0.23800000000000002 0.2975 0.1275
v 0.44258 0.64568 -0.83267 0.28 0.35 0.15
v 0.82573 0.42745 -0.85814 0.28 0.35 0.15
v 0.83004 0.38143 -0.79328 0.28 0.35 0.15
v 0.44258 0.64568 -0.83267 0.23800000000000002 0.2975 0.1275
v 0.82142 0.34546 -0.92299 0.23800000000000002 0.2975 0.1275
v 0.82573 0.42745 -0.85814 0.23800000000000002 0.2975 0.1275
v 0.82573 0.42745 -0.85814 0.28 0.35 0.15
v 1.24082 0.05769 -0.88573 0.28 0.35 0.15
v 0.83004 0.38143 -0.79328 0.28 0.35 0.15
v 0.82573 0.42745 -0.85814 0.23800000000000002 0.2975 0.1275
v 0.82142 0.34546 -0.92299 0.23800000000000002 0.2975 0.1275
v 1.24082 0.05769 -0.88573 0.23800000000000002 0.2975 0.1275
v 0.44258 0.98829 -0.83267 0.28 0.35 0.15
v 0.67103 0.97171 -0.52401 0.28 0.35 0.15
v 0.61878 0.91953 -0.48535 0.28 0.35 0.15
v 0.44258 0.98829 -0.83267 0.23800000000000002 0.2975 0.1275
v 0.72327 0.89589 -0.56268 0.23800000000000002 0.2975 0.1275
v 0.67103 0.97171 -0.52401 0.23800000000000002 0.2975 0.1275
v 0.67103 0.97171 -0.52401 0.28 0.35 0.15
v 0.91851 0.82041 -0.18964 0.28 0.35 0.15
v 0.61878 0.91953 -0.48535 0.28 0.35 0.15
v 0.67103 0.97171 -0.52401 0.23800000000000002 0.2975 0.1275
v 0.72327 0.89589 -0.56268 0.23800000000000002 0.2975 0.1275
v 0.91851 0.82041 -0.18964 0.23800000000000002 0.2975 0.1275
v -0.96431 -0.1 -0.87234 0.2688 0.2856 0.1344
v -0.98902 0.69806 -0.89323 0.2688 0.2856 0.1344
v -0.96814 0.69302 -0.87234 0.2688 0.2856 0.1344
v -0.96431 -0.1 -0.87234 0.2688 0.2856 0.1344
v -0.98931 -0.1 -0.89734 0.2688 0.2856 0.1344
v -0.98902 0.69806 -0.89323 0.2688 0.2856 0.1344
v -0.98931 -0.1 -0.89734 0.31113327669410845 0.3305791064874903 0.15556663834705423
v -1.00935 0.69862 -0.87234 0.31113327669410845 0.3305791064874903 0.15556663834705423
v -0.98902 0.69806 -0.89323 0.31113327669410845 0.3305791064874903 0.15556663834705423
v -0.98931 -0.1 -0.89734 0.31113327669410845 0.3305791064874903 0.15556663834705423
v -1.0137 -0.1 -0.87234 0.31113327669410845 0.3305791064874903 0.15556663834705423
v -1.00935 0.69862 -0.87234 0.31113327669410845 0.3305791064874903 0.15556663834705423
v -1.0137 -0.1 -0.87234 0.2981248008655005 0.3167576009195943 0.14906240043275026
v -0.98961 0.69373 -0.85146 0.2981248008655005 0.3167576009195943 0.14906240043275026
v -1.00935 0.69862 -0.87234 0.2981248008655005 0.3167576009195943 0.14906240043275026
v -1.0137 -0.1 -0.87234 0.2981248008655005 0.3167576009195943 0.14906240043275026
v -0.98931 -0.1 -0.84734 0.2981248008655005 0.3167576009195943 0.14906240043275026
v -0.98961 0.69373 -0.85146 0.2981248008655005 0.3167576009195943 0.14906240043275026
v -0.98931 -0.1 -0.84734 0.2727973386564482 0.2898471723224762 0.1363986693282241
v -0.96814 0.69302 -0.87234 0.2727973386564482 0.2898471723224762 0.1363986693282241
v -0.98961 0.69373 -0.85146 0.2727973386564482 0.2898471723224762 0.1363986693282241
v -0.98931 -0.1 -0.84734 0.2727973386564482 0.2898471723224762 0.1363986693282241
v -0.96431 -0.1 -0.87234 0.2727973386564482 0.2898471723224762 0.1363986693282241
v -0.96814 0.69302 -0.87234 0.2727973386564482 0.2898471723224762 0.1363986693282241
v -0.96814 0.69302 -0.87234 0.3050533590156069 0.3241191939540823 0.15252667950780344
v -0.80869 1.22833 -0.7401 0.3050533590156069 0.3241191939540823 0.15252667950780344
v -0.80149 1.22384 -0.73234 0.3050533590156069 0.3241191939540823 0.15252667950780344
v -0.96814 0.69302 -0.87234 0.3050533590156069 0.3241191939540823 0.15252667950780344
v -0.98902 0.69806 -0.89323 0.3050533590156069 0.3241191939540823 0.15252667950780344
v -0.80869 1.22833 -0.7401 0.3050533590156069 0.3241191939540823 0.15252667950780344
v -0.98902 0.69806 -0.89323 0.2698196406617506 0.2866833682031101 0.1349098203308753
v -0.81655 1.22895 -0.73234 0.2698196406617506 0.2866833682031101 0.1349098203308753
v -0.80869 1.22833 -0.7401 0.2698196406617506 0.2866833682031101 0.1349098203308753
v -0.98902 0.69806 -0.89323 0.2698196406617506 0.2866833682031101 0.1349098203308753
v -1.00935 0.69862 -0.87234 0.2698196406617506 0.2866833682031101 0.1349098203308753
v -0.81655 1.22895 -0.73234 0.2698196406617506 0.2866833682031101 0.1349098203308753
v -1.00935 0.69862 -0.87234 0.3158802311443572 0.3356227455908795 0.1579401155721786
v -0.80994 1.22466 -0.72458 0.3158802311443572 0.3356227455908795 0.1579401155721786
v -0.81655 1.22895 -0.73234 0.3158802311443572 0.3356227455908795 0.1579401155721786
v -1.00935 0.69862 -0.87234 0.3158802311443572 0.3356227455908795 0.1579401155721786
v -0.98961 0.69373 -0.85146 0.3158802311443572 0.3356227455908795 0.1579401155721786
v -0.80994 1.22466 -0.72458 0.3158802311443572 0.3356227455908795 0.1579401155721786
v -0.98961 0.69373 -0.85146 0.29089952721387946 0.3090807476647469 0.14544976360693973
v -0.80149 1.22384 -0.73234 0.29089952721387946 0.3090807476647469 0.14544976360693973
v -0.80994 1.22466 -0.72458 0.29089952721387946 0.3090807476647469 0.14544976360693973
v -0.98961 0.69373 -0.85146 0.29089952721387946 0.3090807476647469 0.14544976360693973
v -0.96814 0.69302 -0.87234 0.29089952721387946 0.3090807476647469 0.14544976360693973
v -0.80149 1.22384 -0.73234 0.29089952721387946 0.3090807476647469 0.14544976360693973
v -0.74431 1.2265 -0.73234 0.2688 0.21 0.1344
v -0.80037 1.5265 -0.76087 0.2688 0.21 0.1344
v -0.77879 1.5265 -0.73234 0.2688 0.21 0.1344
v -0.74431 1.2265 -0.73234 0.2688 0.21 0.1344
v -0.79009 1.2265 -0.79416 0.2688 0.21 0.1344
v -0.80037 1.5265 -0.76087 0.2688 0.21 0.1344
v -0.79009 1.2265 -0.79416 0.31113327669410845 0.24307287241727224 0.15556663834705423
v -0.83268 1.5265 -0.74998 0.31113327669410845 0.24307287241727224 0.15556663834705423
v -0.80037 1.5265 -0.76087 0.31113327669410845 0.24307287241727224 0.15556663834705423
v -0.79009 1.2265 -0.79416 0.31113327669410845 0.24307287241727224 0.15556663834705423
v -0.86061 1.2265 -0.77055 0.31113327669410845 0.24307287241727224 0.15556663834705423
v -0.83268 1.5265 -0.74998 0.31113327669410845 0.24307287241727224 0.15556663834705423
v -0.86061 1.2265 -0.77055 0.2981248008655005 0.23291000067617226 0.14906240043275026
v -0.83392 1.5265 -0.71471 0.2981248008655005 0.23291000067617226 0.14906240043275026
v -0.83268 1.5265 -0.74998 0.2981248008655005 0.23291000067617226 0.14906240043275026
v -0.86061 1.2265 -0.77055 0.2981248008655005 0.23291000067617226 0.14906240043275026
v -0.86344 1.2265 -0.69414 0.2981248008655005 0.23291000067617226 0.14906240043275026
v -0.83392 1.5265 -0.71471 0.2981248008655005 0.23291000067617226 0.14906240043275026
v -0.86344 1.2265 -0.69414 0.2727973386564482 0.21312292082535014 0.1363986693282241
v -0.79963 1.5265 -0.70381 0.2727973386564482 0.21312292082535014 0.1363986693282241
v -0.83392 1.5265 -0.71471 0.2727973386564482 0.21312292082535014 0.1363986693282241
v -0.86344 1.2265 -0.69414 0.2727973386564482 0.21312292082535014 0.1363986693282241
v -0.7884 1.2265 -0.67052 0.2727973386564482 0.21312292082535014 0.1363986693282241
v -0.79963 1.5265 -0.70381 0.2727973386564482 0.21312292082535014 0.1363986693282241
v -0.7884 1.2265 -0.67052 0.31891608269627864 0.24915318960646768 0.15945804134813932
v -0.77879 1.5265 -0.73234 0.31891608269627864 0.24915318960646768 0.15945804134813932
v -0.79963 1.5265 -0.70381 0.31891608269627864 0.24915318960646768 0.15945804134813932
v -0.7884 1.2265 -0.67052 0.31891608269627864 0.24915318960646768 0.15945804134813932
v -0.74431 1.2265 -0.73234 0.31891608269627864 0.24915318960646768 0.15945804134813932
v -0.77879 1.5265 -0.73234 0.31891608269627864 0.24915318960646768 0.15945804134813932
v -0.98931 0.1653 -0.87234 0.28 0.35 0.15
v -0.86228 0.08951 -0.50996 0.28 0.35 0.15
v -0.92362 0.05799 -0.48846 0.28 0.35 0.15
v -0.98931 0.1653 -0.87234 0.23800000000000002 0.2975 0.1275
v -0.80094 -0.00697 -0.53147 0.23800000000000002 0.2975 0.1275
v -0.86228 0.08951 -0.50996 0.23800000000000002 0.2975 0.1275
v -0.86228 0.08951 -0.50996 0.28 0.35 0.15
v -0.72466 -0.12593 -0.11739 0.28 0.35 0.15
v -0.92362 0.05799 -0.48846 0.28 0.35 0.15
v -0.86228 0.08951 -0.50996 0.23800000000000002 0.2975 0.1275
v -0.80094 -0.00697 -0.53147 0.23800000000000002 0.2975 0.1275
v -0.72466 -0.12593 -0.11739 0.23800000000000002 0.2975 0.1275
v -0.98931 0.3908 -0.87234 0.28 0.35 0.15
v -1.22561 0.61264 -0.56965 0.28 0.35 0.15
v -1.27685 0.5308 -0.60965 0.28 0.35 0.15
v -0.98931 0.3908 -0.87234 0.23800000000000002 0.2975 0.1275
v -1.17437 0.56648 -0.52966 0.23800000000000002 0.2975 0.1275
v -1.22561 0.61264 -0.56965 0.23800000000000002 0.2975 0.1275
v -1.22561 0.61264 -0.56965 0.28 0.35 0.15
v -1.4816 0.71963 -0.24174 0.28 0.35 0.15
v -1.27685 0.5308 -0.60965 0.28 0.35 0.15
v -1.22561 0.61264 -0.56965 0.23800000000000002 0.2975 0.1275
v -1.17437 0.56648 -0.52966 0.23800000000000002 0.2975 0.1275
v -1.4816 0.71963 -0.24174 0.23800000000000002 0.2975 0.1275
v -0.98931 0.61631 -0.87234 0.28 0.35 0.15
v -1.37169 0.96698 -0.90764 0.28 0.35 0.15
v -1.36571 0.89101 -0.97236 0.28 0.35 0.15
v -0.98931 0.61631 -0.87234 0.23800000000000002 0.2975 0.1275
v -1.37766 0.91496 -0.84291 0.23800000000000002 0.2975 0.1275
v -1.37169 0.96698 -0.90764 0.23800000000000002 0.2975 0.1275
v -1.37169 0.96698 -0.90764 0.28 0.35 0.15
v -1.78593 1.21354 -0.94587 0.28 0.35 0.15
v -1.36571 0.89101 -0.97236 0.28 0.35 0.15
v -1.37169 0.96698 -0.90764 0.23800000000000002 0.2975 0.1275
v -1.37766 0.91496 -0.84291 0.23800000000000002 0.2975 0.1275
v -1.78593 1.21354 -0.94587 0.23800000000000002 0.2975 0.1275
v -0.88356 -0.1 0.17776 0.2688 0.2856 0.1344
v -0.90832 0.77983 0.15686 0.2688 0.2856 0.1344
v -0.88735 0.77525 0.17776 0.2688 0.2856 0.1344
v -0.88356 -0.1 0.17776 0.2688 0.2856 0.1344
v -0.90856 -0.1 0.15276 0.2688 0.2856 0.1344
v -0.90832 0.77983 0.15686 0.2688 0.2856 0.1344
v -0.90856 -0.1 0.15276 0.31113327669410845 0.3305791064874903 0.15556663834705423
v -0.92863 0.78033 0.17776 0.31113327669410845 0.3305791064874903 0.15556663834705423
v -0.90832 0.77983 0.15686 0.31113327669410845 0.3305791064874903 0.15556663834705423
v -0.90856 -0.1 0.15276 0.31113327669410845 0.3305791064874903 0.15556663834705423
v -0.93295 -0.1 0.17776 0.31113327669410845 0.3305791064874903 0.15556663834705423
v -0.92863 0.78033 0.17776 0.31113327669410845 0.3305791064874903 0.15556663834705423
v -0.93295 -0.1 0.17776 0.2981248008655005 0.3167576009195943 0.14906240043275026
v -0.9088 0.77589 0.19867 0.2981248008655005 0.3167576009195943 0.14906240043275026
v -0.92863 0.78033 0.17776 0.2981248008655005 0.3167576009195943 0.14906240043275026
v -0.93295 -0.1 0.17776 0.2981248008655005 0.3167576009195943 0.14906240043275026
v -0.90856 -0.1 0.20276 0.2981248008655005 0.3167576009195943 0.14906240043275026
v -0.9088 0.77589 0.19867 0.2981248008655005 0.3167576009195943 0.14906240043275026
v -0.90856 -0.1 0.20276 0.2727973386564482 0.2898471723224762 0.1363986693282241
v -0.88735 0.77525 0.17776 0.2727973386564482 0.2898471723224762 0.1363986693282241
v -0.9088 0.77589 0.19867 0.2727973386564482 0.2898471723224762 0.1363986693282241
v -0.90856 -0.1 0.20276 0.2727973386564482 0.2898471723224762 0.1363986693282241
v -0.88356 -0.1 0.17776 0.2727973386564482 0.2898471723224762 0.1363986693282241
v -0.88735 0.77525 0.17776 0.2727973386564482 0.2898471723224762 0.1363986693282241
v -0.88735 0.77525 0.17776 0.3050533590156069 0.3241191939540823 0.15252667950780344
v -0.72804 1.3648 0.30996 0.3050533590156069 0.3241191939540823 0.15252667950780344
v -0.72067 1.36067 0.31776 0.3050533590156069 0.3241191939540823 0.15252667950780344
v -0.88735 0.77525 0.17776 0.3050533590156069 0.3241191939540823 0.15252667950780344
v -0.90832 0.77983 0.15686 0.3050533590156069 0.3241191939540823 0.15252667950780344
v -0.72804 1.3648 0.30996 0.3050533590156069 0.3241191939540823 0.15252667950780344
v -0.90832 0.77983 0.15686 0.2698196406617506 0.2866833682031101 0.1349098203308753
v -0.73587 1.36535 0.31776 0.2698196406617506 0.2866833682031101 0.1349098203308753
v -0.72804 1.3648 0.30996 0.2698196406617506 0.2866833682031101 0.1349098203308753
v -0.90832 0.77983 0.15686 0.2698196406617506 0.2866833682031101 0.1349098203308753
v -0.92863 0.78033 0.17776 0.2698196406617506 0.2866833682031101 0.1349098203308753
v -0.73587 1.36535 0.31776 0.2698196406617506 0.2866833682031101 0.1349098203308753
v -0.92863 0.78033 0.17776 0.3158802311443572 0.3356227455908795 0.1579401155721786
v -0.72908 1.3614 0.32556 0.3158802311443572 0.3356227455908795 0.1579401155721786
v -0.73587 1.36535 0.31776 0.3158802311443572 0.3356227455908795 0.1579401155721786
v -0.92863 0.78033 0.17776 0.3158802311443572 0.3356227455908795 0.1579401155721786
v -0.9088 0.77589 0.19867 0.3158802311443572 0.3356227455908795 0.1579401155721786
v -0.72908 1.3614 0.32556 0.3158802311443572 0.3356227455908795 0.1579401155721786
v -0.9088 0.77589 0.19867 0.29089952721387946 0.3090807476647469 0.14544976360693973
v -0.72067 1.36067 0.31776 0.29089952721387946 0.3090807476647469 0.14544976360693973
v -0.72908 1.3614 0.32556 0.29089952721387946 0.3090807476647469 0.14544976360693973
v -0.9088 0.77589 0.19867 0.29089952721387946 0.3090807476647469 0.14544976360693973
v -0.88735 0.77525 0.17776 0.29089952721387946 0.3090807476647469 0.14544976360693973
v -0.72067 1.36067 0.31776 0.29089952721387946 0.3090807476647469 0.14544976360693973
v -0.66356 1.3631 0.31776 0.2688 0.21 0.1344
v -0.71961 1.6631 0.28923 0.2688 0.21 0.1344
v -0.69803 1.6631 0.31776 0.2688 0.21 0.1344
v -0.66356 1.3631 0.31776 0.2688 0.21 0.1344
v -0.70934 1.3631 0.25594 0.2688 0.21 0.1344
v -0.71961 1.6631 0.28923 0.2688 0.21 0.1344
v -0.70934 1.3631 0.25594 0.31113327669410845 0.24307287241727224 0.15556663834705423
v -0.75193 1.6631 0.30013 0.31113327669410845 0.24307287241727224 0.15556663834705423
v -0.71961 1.6631 0.28923 0.31113327669410845 0.24307287241727224 0.15556663834705423
v -0.70934 1.3631 0.25594 0.31113327669410845 0.24307287241727224 0.15556663834705423
v -0.77986 1.3631 0.27956 0.31113327669410845 0.24307287241727224 0.15556663834705423
v -0.75193 1.6631 0.30013 0.31113327669410845 0.24307287241727224 0.15556663834705423
v -0.77986 1.3631 0.27956 0.2981248008655005 0.23291000067617226 0.14906240043275026
v -0.75316 1.6631 0.3354 0.2981248008655005 0.23291000067617226 0.14906240043275026
v -0.75193 1.6631 0.30013 0.2981248008655005 0.23291000067617226 0.14906240043275026
v -0.77986 1.3631 0.27956 0.2981248008655005 0.23291000067617226 0.14906240043275026
v -0.78268 1.3631 0.35597 0.2981248008655005 0.23291000067617226 0.14906240043275026
v -0.75316 1.6631 0.3354 0.2981248008655005 0.23291000067617226 0.14906240043275026
v -0.78268 1.3631 0.35597 0.2727973386564482 0.21312292082535014 0.1363986693282241
v -0.71887 1.6631 0.34629 0.2727973386564482 0.21312292082535014 0.1363986693282241
v -0.75316 1.6631 0.3354 0.2727973386564482 0.21312292082535014 0.1363986693282241
v -0.78268 1.3631 0.35597 0.2727973386564482 0.21312292082535014 0.1363986693282241
v -0.70765 1.3631 0.37958 0.2727973386564482 0.21312292082535014 0.1363986693282241
v -0.71887 1.6631 0.34629 0.2727973386564482 0.21312292082535014 0.1363986693282241
v -0.70765 1.3631 0.37958 0.31891608269627864 0.24915318960646768 0.15945804134813932
v -0.69803 1.6631 0.31776 0.31891608269627864 0.24915318960646768 0.15945804134813932
v -0.71887 1.6631 0.34629 0.31891608269627864 0.24915318960646768 0.15945804134813932
v -0.70765 1.3631 0.37958 0.31891608269627864 0.24915318960646768 0.15945804134813932
v -0.66356 1.3631 0.31776 0.31891608269627864 0.24915318960646768 0.15945804134813932
v -0.69803 1.6631 0.31776 0.31891608269627864 0.24915318960646768 0.15945804134813932
v -0.90856 0.19262 0.17776 0.28 0.35 0.15
v -1.26343 0.03584 0.03105 0.28 0.35 0.15
v -1.23859 -0.06064 -0.02902 0.28 0.35 0.15
v -0.90856 0.19262 0.17776 0.23800000000000002 0.2975 0.1275
v -1.28826 0.00432 0.09112 0.23800000000000002 0.2975 0.1275
v -1.26343 0.03584 0.03105 0.23800000000000002 0.2975 0.1275
v -1.26343 0.03584 0.03105 0.28 0.35 0.15
v -1.64787 -0.26734 -0.12789 0.28 0.35 0.15
v -1.23859 -0.06064 -0.02902 0.28 0.35 0.15
v -1.26343 0.03584 0.03105 0.23800000000000002 0.2975 0.1275
v -1.28826 0.00432 0.09112 0.23800000000000002 0.2975 0.1275
v -1.64787 -0.26734 -0.12789 0.23800000000000002 0.2975 0.1275
v -0.90856 0.44135 0.17776 0.28 0.35 0.15
v -0.97684 0.23892 -0.20012 0.28 0.35 0.15
v -0.91287 0.19262 -0.21168 0.28 0.35 0.15
v -0.90856 0.44135 0.17776 0.23800000000000002 0.2975 0.1275
v -1.0408 0.15723 -0.18856 0.23800000000000002 0.2975 0.1275
v -0.97684 0.23892 -0.20012 0.23800000000000002 0.2975 0.1275
v -0.97684 0.23892 -0.20012 0.28 0.35 0.15
v -1.05081 -0.1137 -0.60949 0.28 0.35 0.15
v -0.91287 0.19262 -0.21168 0.28 0.35 0.15
v -0.97684 0.23892 -0.20012 0.23800000000000002 0.2975 0.1275
v -1.0408 0.15723 -0.18856 0.23800000000000002 0.2975 0.1275
v -1.05081 -0.1137 -0.60949 0.23800000000000002 0.2975 0.1275
v -0.90856 0.69007 0.17776 0.28 0.35 0.15
v -0.62748 0.72691 -0.08386 0.28 0.35 0.15
v -0.58319 0.67505 -0.03628 0.28 0.35 0.15
v -0.90856 0.69007 0.17776 0.23800000000000002 0.2975 0.1275
v -0.67176 0.65078 -0.13144 0.23800000000000002 0.2975 0.1275
v -0.62748 0.72691 -0.08386 0.23800000000000002 0.2975 0.1275
v -0.62748 0.72691 -0.08386 0.28 0.35 0.15
v -0.32297 0.63349 -0.36729 0.28 0.35 0.15
v -0.58319 0.67505 -0.03628 0.28 0.35 0.15
v -0.62748 0.72691 -0.08386 0.23800000000000002 0.2975 0.1275
v -0.67176 0.65078 -0.13144 0.23800000000000002 0.2975 0.1275
v -0.32297 0.63349 -0.36729 0.23800000000000002 0.2975 0.1275
f 1 2 3
f 4 5 6
f 7 8 9
f 10 11 12
f 13 14 15
f 16 17 18
f 19 20 21
f 22 23 24
f 25 26 27
f 28 29 30
f 31 32 33
f 34 35 36
f 37 38 39
f 40 41 42
f 43 44 45
f 46 47 48
f 49 50 51
f 52 53 54
f 55 56 57
f 58 59 60
f 61 62 63
f 64 65 66
f 67 68 69
f 70 71 72
f 73 74 75
f 76 77 78
f 79 80 81
f 82 83 84
f 85 86 87
f 88 89 90
f 91 92 93
f 94 95 96
f 97 98 99
f 100 101 102
f 103 104 105
f 106 107 108
f 109 110 111
f 112 113 114
f 115 116 117
f 118 119 120
f 121 122 123
f 124 125 126
f 127 128 129
f 130 131 132
f 133 134 135
f 136 137 138
f 139 140 141
f 142 143 144
f 145 146 147
f 148 149 150
f 151 152 153
f 154 155 156
f 157 158 159
f 160 161 162
f 163 164 165
f 166 167 168
f 169 170 171
f 172 173 174
f 175 176 177
f 178 179 180
f 181 182 183
f 184 185 186
f 187 188 189
f 190 191 192
f 193 194 195
f 196 197 198
f 199 200 201
f 202 203 204
f 205 206 207
f 208 209 210
f 211 212 213
f 214 215 216
f 217 218 219
f 220 221 222
f 223 224 225
f 226 227 228
f 229 230 231
f 232 233 234
f 235 236 237
f 238 239 240
f 241 242 243
f 244 245 246
f 247 248 249
f 250 251 252
f 253 254 255
f 256 257 258
f 259 260 261
f 262 263 264
f 265 266 267
f 268 269 270
f 271 272 273
f 274 275 276
f 277 278 279
f 280 281 282
f 283 284 285
f 286 287 288
f 289 290 291
f 292 293 294
f 295 296 297
f 298 299 300
f 301 302 303
f 304 305 306
f 307 308 309
f 310 311 312
f 313 314 315
f 316 317 318
f 319 320 321
f 322 323 324
f 325 326 327
f 328 329 330
f 331 332 333
f 334 335 336
f 337 338 339
f 340 341 342
f 343 344 345
f 346 347 348
f 349 350 351
f 352 353 354
f 355 356 357
f 358 359 360
f 361 362 363
f 364 365 366
f 367 368 369
f 370 371 372
f 373 374 375
f 376 377 378
f 379 380 381
f 382 383 384
f 385 386 387
f 388 389 390
f 391 392 393
f 394 395 396
f 397 398 399
f 400 401 402
f 403 404 405
f 406 407 408
f 409 410 411
f 412 413 414
f 415 416 417
f 418 419 420
f 421 422 423
f 424 425 426
f 427 428 429
f 430 431 432
f 433 434 435
f 436 437 438
f 439 440 441
f 442 443 444
f 445 446 447
f 448 449 450
f 451 452 453
f 454 455 456
f 457 458 459
f 460 461 462
f 463 464 465
f 466 467 468
f 469 470 471
f 472 473 474
f 475 476 477
f 478 479 480
f 481 482 483
f 484 485 486
f 487 488 489
f 490 491 492
f 493 494 495
f 496 497 498
f 499 500 501
f 502 503 504
f 505 506 507
f 508 509 510
f 511 512 513
f 514 515 516
f 517 518 519
f 520 521 522
f 523 524 525
f 526 527 528
f 529 530 531
f 532 533 534
f 535 536 537
f 538 539 540
f 541 542 543
f 544 545 546
f 547 548 549
f 550 551 552
f 553 554 555
f 556 557 558
f 559 560 561
f 562 563 564
f 565 566 567
f 568 569 570
f 571 572 573
f 574 575 576
f 577 578 579
f 580 581 582
f 583 584 585
f 586 587 588
f 589 590 591
f 592 593 594
f 595 596 597
f 598 599 600
f 601 602 603
f 604 605 606
f 607 608 609
f 610 611 612
f 613 614 615
f 616 617 618
f 619 620 621
f 622 623 624
f 625 626 627
f 628 629 630
f 631 632 633
f 634 635 636
f 637 638 639
f 640 641 642
f 643 644 645
f 646 647 648
f 649 650 651
f 652 653 654
f 655 656 657
f 658 659 660
f 661 662 663
f 664 665 666
f 667 668 669
f 670 671 672
f 673 674 675
f 676 677 678
f 679 680 681
f 682 683 684
f 685 686 687
f 688 689 690
f 691 692 693
f 694 695 696
f 697 698 699
f 700 701 702
f 703 704 705
f 706 707 708
f 709 710 711
f 712 713 714
f 715 716 717
f 718 719 720
f 721 722 723
f 724 725 726
f 727 728 729
f 730 731 732
f 733 734 735
f 736 737 738
f 739 740 741
f 742 743 744
f 745 746 747
f 748 749 750
f 751 752 753
f 754 755 756
f 757 758 759
f 760 761 762
f 763 764 765
f 766 767 768
f 769 770 771
f 772 773 774
f 775 776 777
f 778 779 780
f 781 782 783
f 784 785 786
f 787 788 789
f 790 791 792
f 793 794 795
f 796 797 798
f 799 800 801
f 802 803 804
f 805 806 807
f 808 809 810
f 811 812 813
f 814 815 816
f 817 818 819
f 820 821 822
f 823 824 825
f 826 827 828
f 829 830 831
f 832 833 834
f 835 836 837
f 838 839 840
f 841 842 843
f 844 845 846
f 847 848 849
f 850 851 852
f 853 854 855
f 856 857 858
f 859 860 861
f 862 863 864
f 865 866 867
f 868 869 870
f 871 872 873
f 874 875 876
f 877 878 879
f 880 881 882
f 883 884 885
f 886 887 888
f 889 890 891
f 892 893 894
f 895 896 897
f 898 899 900
f 901 902 903
f 904 905 906
f 907 908 909
f 910 911 912
